/* XPM */
static char *_6d163cd2f6a4ab2a5aa197088871ab0KAUpPx04OCYWbpeJ_0[] = {
/* columns rows colors chars-per-pixel */
"32 32 256 2 ",
"   c None",
".  c #121828",
"X  c #141C2F",
"o  c #171F35",
"O  c #182138",
"+  c #19223A",
"@  c #18233B",
"#  c #17223A",
"$  c #16223A",
"%  c #16213B",
"&  c #15213C",
"*  c #15213D",
"=  c #16213F",
"-  c #172240",
";  c #152241",
":  c #142243",
">  c #142344",
",  c #162344",
"<  c #182542",
"1  c #192642",
"2  c #1A2643",
"3  c #1D263C",
"4  c #1F273B",
"5  c #20283D",
"6  c #222840",
"7  c #232941",
"8  c #252940",
"9  c #272A40",
"0  c #292C3F",
"q  c #292D40",
"w  c #262E41",
"e  c #292F41",
"r  c #2A3043",
"t  c #283147",
"y  c #2C364B",
"u  c #2D394E",
"i  c #303B50",
"p  c #323E54",
"a  c #334054",
"s  c #35435A",
"d  c #3B4358",
"f  c #3F4658",
"g  c #424758",
"h  c #454755",
"j  c #4B4B52",
"k  c #4F4C50",
"l  c #514D51",
"z  c #524D54",
"x  c #544E55",
"c  c #534E56",
"v  c #534F57",
"b  c #514F5B",
"n  c #4E505F",
"m  c #465063",
"M  c #425267",
"N  c #425069",
"B  c #46536B",
"V  c #46546C",
"C  c #46546D",
"Z  c #46556D",
"A  c #47566F",
"S  c #485770",
"D  c #485870",
"F  c #4A5A71",
"G  c #4B5972",
"H  c #4B5A71",
"J  c #4B5A6F",
"K  c #50586A",
"L  c #575562",
"P  c #57545E",
"I  c #5A565E",
"U  c #5B595E",
"Y  c #5C595C",
"T  c #5E5A5E",
"R  c #605D60",
"E  c #625F62",
"W  c #636063",
"Q  c #656266",
"!  c #6A676A",
"~  c #6E6A6C",
"^  c #6D6B6F",
"/  c #6D6970",
"(  c #6C6B72",
")  c #686B74",
"_  c #616876",
"`  c #5A6679",
"'  c #5A667A",
"]  c #5A677B",
"[  c #5B687C",
"{  c #5C697C",
"}  c #5F6A7D",
"|  c #5F6D7F",
" . c #5F6D82",
".. c #5F6E83",
"X. c #606F84",
"o. c #647285",
"O. c #687485",
"+. c #697485",
"@. c #6C7583",
"#. c #6E7581",
"$. c #70767F",
"%. c #74767A",
"&. c #777777",
"*. c #7A7878",
"=. c #7D7A79",
"-. c #807C7A",
";. c #837E7C",
":. c #867F7E",
">. c #848184",
",. c #83858A",
"<. c #818993",
"1. c #7F8996",
"2. c #7E8A97",
"3. c #7F8A98",
"4. c #818C9A",
"5. c #86909A",
"6. c #89919A",
"7. c #8C9098",
"8. c #8E8F96",
"9. c #909094",
"0. c #919092",
"q. c #929091",
"w. c #938F8F",
"e. c #938E8D",
"r. c #948D8B",
"t. c #968D89",
"y. c #9B8F8B",
"u. c #9B928F",
"i. c #9B9391",
"p. c #9B9392",
"a. c #9C9492",
"s. c #9E9591",
"d. c #9F9590",
"f. c #A09792",
"g. c #A19892",
"h. c #A29994",
"j. c #A39A94",
"k. c #A59B96",
"l. c #A59D97",
"z. c #AB9F97",
"x. c #ACA098",
"c. c #ADA198",
"v. c #AEA198",
"b. c #AEA299",
"n. c #AEA29A",
"m. c #AEA39C",
"M. c #ACA39E",
"N. c #ACA3A1",
"B. c #ACA4A2",
"V. c #ADA6A5",
"C. c #AEA7A7",
"Z. c #AEA7A8",
"A. c #AEA8A8",
"S. c #AFA8A7",
"D. c #B0A8A6",
"F. c #B1A8A5",
"G. c #B2A9A4",
"H. c #B2A9A3",
"J. c #B3A9A3",
"K. c #B4AAA2",
"L. c #B5AAA1",
"P. c #B6ABA1",
"I. c #B7ABA1",
"U. c #B8ACA0",
"Y. c #B9ACA0",
"T. c #BAADA0",
"R. c #BAADA1",
"E. c #BBB0A5",
"W. c #BCB2AB",
"Q. c #BDB3AD",
"!. c #BDB5AE",
"~. c #BDB6AC",
"^. c #BEB6AC",
"/. c #C0B7AC",
"(. c #C2B7AC",
"). c #C2B7AB",
"_. c #C3B8AB",
"`. c #C4B9AB",
"'. c #C5BAAC",
"]. c #C6BAAD",
"[. c #C7BAAD",
"{. c #C6BBAE",
"}. c #C9BDAF",
"|. c #C9BFB0",
" X c #CAC0B1",
".X c #CAC4B9",
"XX c #CEC8BD",
"oX c #D0CBC0",
"OX c #D1CBC1",
"+X c #D3CCC1",
"@X c #D3CEC3",
"#X c #D7D0C6",
"$X c #D8D1C7",
"%X c #D9D2C7",
"&X c #DBD5C9",
"*X c #E0DACC",
"=X c #E4DECF",
"-X c #E9E4D3",
";X c #EFEAD8",
":X c #F2EDD8",
">X c #F3EFDA",
",X c #F6F3DD",
"<X c #FAF8DE",
"1X c #FCFAE0",
"2X c #FDFBE1",
"3X c #FEFCE2",
"4X c #FEFDE3",
"5X c #FEFDE4",
"6X c #FEFCE4",
"7X c #FDFBE4",
"8X c #FCFAE4",
"9X c #FCFBE6",
"0X c #FCFCE7",
"qX c #FCFDE7",
"wX c #FDFDE8",
"eX c #FEFDE8",
"rX c #FEFCE8",
"tX c #FEFEE7",
"yX c #FEFEEA",
"uX c #FEFEEB",
"iX c #FEFEEC",
"pX c #FEFEED",
"aX c black",
"sX c black",
"dX c black",
"fX c black",
"gX c black",
"hX c black",
"jX c black",
"kX c black",
"lX c black",
"zX c black",
"xX c black",
"cX c black",
"vX c black",
"bX c black",
"nX c black",
"mX c black",
"MX c black",
"NX c black",
"BX c black",
"VX c black",
"CX c black",
"ZX c black",
"AX c black",
"SX c black",
"DX c black",
"FX c black",
"GX c black",
"HX c black",
"JX c black",
"KX c black",
"LX c black",
"PX c black",
"IX c black",
"UX c black",
/* pixels */
"                                                                ",
"                          j Q       U Q                         ",
"                          Q W       h &.h                       ",
"                          ! a         Q b                       ",
"                        P Q           P U                       ",
"                        Q U           i U                       ",
"                        Q b           b U                       ",
"                        Q h           L h                       ",
"                        R b           b                         ",
"              :.!   r.H.R L &.e.&.-.~ U M.                      ",
"              @X~   *X  w.n W ~ G.r.U B.%X~.                    ",
"        ~ >.^ ;X@XW.+Xf.  n n r.t.>.g >.oX=XG.      >.*.        ",
"      ~.*X*X#X~.E.oXXXr.:.I.k.`.`.^.x.x.r.~.=XW.  oX=X.X*.      ",
"    W.|.  j.;X8X*X|.E.r.).E.m.z.k.c.E.`.L.E.=XoXQ =X:.  Q       ",
"    H.>.r.~.@Xl.@X&Xr.).U.u.u.s.s.s.f.R.'.H.eX@X~.@XE.    r.f.! ",
"      E.=X@XXX@X~.E.h._.>.7 b s.s.u.P i n.z.>XXX.Xs.@X  r.oX;.  ",
"^ r.~.XXE.&X-XXX;X.Xr.E.h ; R s.s.u.P - Q l.=XoXXX~.|.l.=Xf.    ",
"    Q u.M.! &X-Xh.  g ) g R >.s.u.s.>.L L L @X~.;XXX,X;XE.      ",
"          ~ %XXXM.#.@.O.A m K ;.u.&.m B @.J M.#XoX{.Q Q         ",
"          :.e.&.V.@.g @.H D D B K Z D ] ,.m 7 .X/.H.l.=.        ",
"                W t w #.` D Z m s m A @.+.g   y e..Xl.          ",
"                n H y K +.m m S D A m @.H     J K M.Q           ",
"                n B     K ` D A m D @.` g     f K   E           ",
"                n a       ` B m Z B @.m       y n               ",
"                K i h     n M M K J K b     i y n               ",
"                i 7 h     #.J B X.K 4.#.      y r               ",
"                        a n m m m J m _ y                       ",
"                            d g   K g                           ",
"                              m i K                             ",
"                              m i }                             ",
"                                i m                             ",
"                                                                "
};
