/* XPM */
static char *_6d163cd2f6a4ab2a5aa197088871ab0KAUpPx04OCYWbpeJ_1[] = {
/* columns rows colors chars-per-pixel */
"32 32 256 2 ",
"   c #141D2C",
".  c #161F31",
"X  c #151F34",
"o  c #171F36",
"O  c #182037",
"+  c #171E39",
"@  c #151F3A",
"#  c #15213A",
"$  c #16203B",
"%  c #17203C",
"&  c #17203C",
"*  c #152240",
"=  c #152242",
"-  c #142243",
";  c #142343",
":  c #132343",
">  c #142342",
",  c #152440",
"<  c #16243D",
"1  c #17243D",
"2  c #18243C",
"3  c #19253C",
"4  c #1A253B",
"5  c #1A253E",
"6  c #1B2642",
"7  c #1C2540",
"8  c #1D263F",
"9  c #1E283E",
"0  c #1F283F",
"q  c #212841",
"w  c #252A3D",
"e  c #272B3D",
"r  c #282C3D",
"t  c #2A2E3E",
"y  c #2A2F40",
"u  c #293043",
"i  c #2B3248",
"p  c #2F354C",
"a  c #2F384F",
"s  c #2F3951",
"d  c #303A52",
"f  c #313951",
"g  c #32384E",
"h  c #363648",
"j  c #363647",
"k  c #373847",
"l  c #3A3B49",
"z  c #3B3E4C",
"x  c #3E404B",
"c  c #42444B",
"v  c #44454C",
"b  c #46464D",
"n  c #494650",
"m  c #4C4854",
"M  c #4F4C57",
"N  c #4F4D55",
"B  c #514F59",
"V  c #534F57",
"C  c #544F59",
"Z  c #564F5A",
"A  c #58505A",
"S  c #57505B",
"D  c #56515D",
"F  c #56525E",
"G  c #55535F",
"H  c #505262",
"J  c #485267",
"K  c #45526A",
"L  c #45546C",
"P  c #48566F",
"I  c #485770",
"U  c #495871",
"Y  c #495871",
"T  c #4B5A71",
"R  c #4D5B71",
"E  c #4F5D73",
"W  c #515D73",
"Q  c #545E72",
"!  c #575D6C",
"~  c #5B5B66",
"^  c #5F5960",
"/  c #605B61",
"(  c #605D63",
")  c #626065",
"_  c #636368",
"`  c #666568",
"'  c #62666D",
"]  c #5F6772",
"[  c #5C6776",
"{  c #596578",
"}  c #586577",
"|  c #596679",
" . c #59687A",
".. c #5B687C",
"X. c #5C697D",
"o. c #5D6A7D",
"O. c #5F6A7C",
"+. c #616A7B",
"@. c #616B7B",
"#. c #646C7A",
"$. c #686E7A",
"%. c #6D7079",
"&. c #717074",
"*. c #747273",
"=. c #757375",
"-. c #77757A",
";. c #7A777B",
":. c #7B797B",
">. c #7E7C7D",
",. c #7F7D7C",
"<. c #837F7C",
"1. c #88807E",
"2. c #8A8181",
"3. c #888181",
"4. c #818085",
"5. c #797D86",
"6. c #727B88",
"7. c #6F7A89",
"8. c #707B8A",
"9. c #727D8B",
"0. c #747F8D",
"q. c #798390",
"w. c #7E8791",
"e. c #7E8994",
"r. c #808A96",
"t. c #828D97",
"y. c #838E98",
"u. c #838F9A",
"i. c #85909C",
"p. c #87929E",
"a. c #8893A0",
"s. c #8893A0",
"d. c #8994A0",
"f. c #8B95A1",
"g. c #8B95A1",
"h. c #8C95A0",
"j. c #8C949E",
"k. c #8D939C",
"l. c #8F9298",
"z. c #918F94",
"x. c #938E93",
"c. c #948E93",
"v. c #958F93",
"b. c #98908D",
"n. c #989290",
"m. c #999393",
"M. c #9B9495",
"N. c #9B9493",
"B. c #9D948F",
"V. c #9E948E",
"C. c #A0958E",
"Z. c #A2978E",
"A. c #A2968E",
"S. c #A19790",
"D. c #A09791",
"F. c #A09892",
"G. c #A29993",
"H. c #A49B94",
"J. c #A79D95",
"K. c #AA9F96",
"L. c #ABA096",
"P. c #ADA197",
"I. c #AEA298",
"U. c #AEA59B",
"Y. c #AFA79E",
"T. c #B0AAA1",
"R. c #B3AEA5",
"E. c #B9B0A4",
"W. c #BAB3AA",
"Q. c #BEB5AC",
"!. c #C1B7AC",
"~. c #C3B7AB",
"^. c #C4B8AD",
"/. c #C5B9AE",
"(. c #C5BAAF",
"). c #C5BAB0",
"_. c #C5BAB1",
"`. c #C4BAB1",
"'. c #C5BEB6",
"]. c #CAC1BA",
"[. c #CFC8C0",
"{. c #D0CBC3",
"}. c #D2CCC5",
"|. c #D5D0CA",
" X c #D9D4CD",
".X c #DDD8D0",
"XX c #E1DED4",
"oX c #E6E3D5",
"OX c #E6E3D6",
"+X c #E7E4D7",
"@X c #E8E5D7",
"#X c #E8E6D8",
"$X c #E9E6D9",
"%X c #EAE7DA",
"&X c #EBE9DB",
"*X c #ECE9DD",
"=X c #ECEADD",
"-X c #EDEBE0",
";X c #EEECE1",
":X c #EEEDE1",
">X c #F1EEE0",
",X c #F3F0E2",
"<X c #F4F2E3",
"1X c #F6F4E3",
"2X c #F8F6E3",
"3X c #F9F6E2",
"4X c #F9F6E0",
"5X c #FAF5DF",
"6X c #FBF8DE",
"7X c #FCFADF",
"8X c #FDFBE0",
"9X c #FDFCE3",
"0X c #FCFCE4",
"qX c #FDFCE5",
"wX c #FEFCE6",
"eX c #FEFCE8",
"rX c #FEFCEA",
"tX c #FEFDEA",
"yX c #FEFDEB",
"uX c #FEFEED",
"iX c #FEFEEC",
"pX c #FEFEEB",
"aX c #FEFEEA",
"sX c #FEFEE9",
"dX c #FEFEE8",
"fX c #FEFEE7",
"gX c #FEFEE7",
"hX c #FEFEE6",
"jX c #FEFEE6",
"kX c #FEFEE4",
"lX c #FEFEE3",
"zX c #FEFEE4",
"xX c None",
"cX c black",
"vX c black",
"bX c black",
"nX c black",
"mX c black",
"MX c black",
"NX c black",
"BX c black",
"VX c black",
"CX c black",
"ZX c black",
"AX c black",
"SX c black",
"DX c black",
"FX c black",
"GX c black",
"HX c black",
"JX c black",
"KX c black",
"LX c black",
"PX c black",
"IX c black",
"UX c black",
/* pixels */
"xXxXxXxXxXxXxXxXxXxXxXxXxXxXxXxXxXxXxXxXxXxXxXxXxXxXxXxXxXxXxXxX",
"xXxXxXxXxXxXxXxXxXxXxXxXxXG G xXxXxXx ~ xXxXxXxXxXxXxXxXxXxXxXxX",
"xXxXxXxXxXxXxXxXxXxXxXxXxX&.~ xXxXxXxX&.B xXxXxXxXxXxXxXxXxXxXxX",
"xXxXxXxXxXxXxXxXxXxXxXxXG &.xXxXxXxXxXG ` xXxXxXxXxXxXxXxXxXxXxX",
"xXxXxXxXxXxXxXxXxXxXxXxX` _ xXxXxXxXxXl ` xXxXxXxXxXxXxXxXxXxXxX",
"xXxXxXxXxXxXxXxXxXxXxXxX` B xXxXxXxXxXxX~ xXxXxXxXxXxXxXxXxXxXxX",
"xXxXxXxXxXxXxXxXxXxXxXxX` n xXxXxXxXxXxX~ xXxXxXxXxXxXxXxXxXxXxX",
"xXxXxXxXxXxXxXxXxXxXxXxX` m xXxXxXxXxXM ~ xXxXxXxXxXxXxXxXxXxXxX",
"xXxXxXxXxXxXxXxXxXxXxXxX( G xXxXxXxXxXG z xXxXxXxXxXxXxXxXxXxXxX",
"xXxXxXxXxXxXxXxXxXxXxXxXn ) 3.F.` U.Y.M xXxXxXxXxXxXxXxXxXxXxXxX",
"xXxXxXxXxXxXxX` <.[.[.T.,.&.Q..X'. Xb.K.{.`.3.xXxXxXxXxXxXxXxXxX",
"xXxXxXxXxXxXQ.&X<X.X}.W.1X'.M <.2.:.g `.{..X>XR.xXxX/ xXxX` ` xX",
"xXxXxXxXxX` >X|.|.|.R.#XR.T.B.^./.W.J.P.}.].[.,Xn.xXW.J.Q.n.xXxX",
"xXxXxXxX` b.|.>X.X}.XXT.!.E.U.K.J.L.E./.T. X X|.`.xXW.}.Y.xXxXxX",
"xXxXxX;.[.XXW.|.&XXXQ.E.E.D.B.B.B.B.D.R./.L.].|..XR.]. X[.n.xXxX",
"xXxXxXxXF.J.{.Q.{.|.R.^.2.i G B.B.B.( z H.K.'.}.'..XXXK.L.U.xXxX",
"xXxXxXxX;.T..X3.3X XT.W.M , B B.B.B.m , ( U.XX[.[.W.`.R.].[.U.xX",
"xXxX<.[..X[.].b.oX[.4.-.M G 3.B.B.B.3.G ) ' l. X1X<X.X!.*.xX3.xX",
"xXxXT.m.xXxXW.R.{.$.7.$.K J ! 2.B.:.! J 9.J $.7.H ` xXxXxXxXxXxX",
"xXxX) xXxXxXH.D.W.$.m 7.T T I K ~ L U ..w.J 6 p xXxXxXxXxXxXxXxX",
"xXxXxXxXxXxXxXH.2.6 h %.W I K J J J L 8.7.M xXi m xXxXxXxXxXxXxX",
"xXxXxXxXxXxXxXxXJ R xX! $.J J I I I J 7.Q xXxXJ J xXxXxXxXxXxXxX",
"xXxXxXxXxXxXxXxXH J xXxXH Q I L J P 9.Q m xXxXd J xXxXxXxXxXxXxX",
"xXxXxXxXxXxXxXxX] m xXxXxX[ K J P ! @.n xXxXxXi H xXxXxXxXxXxXxX",
"xXxXxXxXxXxXxXxX! H m xXxXH J J ! P $.H xXxXl g ] xXxXxXxXxXxXxX",
"xXxXxXxXxXxXxXxXxXi c xXv $.! J #.Q r.7.xXxXxXu xXxXxXxXxXxXxXxX",
"xXxXxXxXxXxXxXxXxXxXxXxXxXxXJ J m R m ! xXxXxXxXxXxXxXxXxXxXxXxX",
"xXxXxXxXxXxXxXxXxXxXxXxXxXxXJ d xXJ n xXxXxXxXxXxXxXxXxXxXxXxXxX",
"xXxXxXxXxXxXxXxXxXxXxXxXxXxXz J xX! xXxXxXxXxXxXxXxXxXxXxXxXxXxX",
"xXxXxXxXxXxXxXxXxXxXxXxXxXxXxXH h ] xXxXxXxXxXxXxXxXxXxXxXxXxXxX",
"xXxXxXxXxXxXxXxXxXxXxXxXxXxXxXxXz m xXxXxXxXxXxXxXxXxXxXxXxXxXxX",
"xXxXxXxXxXxXxXxXxXxXxXxXxXxXxXxXxXxXxXxXxXxXxXxXxXxXxXxXxXxXxXxX"
};
