/* XPM */
static char *_6d163cd2f6a4ab2a5aa197088871ab0KAUpPx04OCYWbpeJ_2[] = {
/* columns rows colors chars-per-pixel */
"32 32 256 2 ",
"   c #12192A",
".  c #141D2F",
"X  c #181F32",
"o  c #1A2135",
"O  c #1C2338",
"+  c #1F2537",
"@  c #1E263A",
"#  c #1D253B",
"$  c #19233C",
"%  c #15213D",
"&  c #13203D",
"*  c #12203C",
"=  c #13203E",
"-  c #152141",
";  c #152243",
":  c #152342",
">  c #172342",
",  c #192441",
"<  c #1C2642",
"1  c #1D2843",
"2  c #1E2944",
"3  c #1E2C45",
"4  c #1F2B43",
"5  c #202C43",
"6  c #222B43",
"7  c #242D42",
"8  c #252D3F",
"9  c #272E40",
"0  c #282E40",
"q  c #292F41",
"w  c #293043",
"e  c #2E3244",
"r  c #333648",
"t  c #353B4C",
"y  c #343D51",
"u  c #3B4457",
"i  c #3F475A",
"p  c #464958",
"a  c #4E4B52",
"s  c #4F4C56",
"d  c #504C59",
"f  c #544D58",
"g  c #554E57",
"h  c #554F58",
"j  c #535157",
"k  c #545257",
"l  c #555358",
"z  c #555359",
"x  c #555458",
"c  c #565558",
"v  c #58565A",
"b  c #59565B",
"n  c #5B585B",
"m  c #5C595C",
"M  c #5D595B",
"N  c #5E5B5D",
"B  c #5F5C5E",
"V  c #5E5D62",
"C  c #5E5D67",
"Z  c #5B5C66",
"A  c #4F586C",
"S  c #4A586E",
"D  c #46546D",
"F  c #48576F",
"G  c #485770",
"H  c #495870",
"J  c #4B5971",
"K  c #4C5B72",
"L  c #4E5C72",
"P  c #505F74",
"I  c #516074",
"U  c #536276",
"Y  c #566477",
"T  c #576578",
"R  c #596678",
"E  c #5C6879",
"W  c #5D697B",
"Q  c #5D6A7C",
"!  c #5D6A7D",
"~  c #5E6B7D",
"^  c #616C7E",
"/  c #616D7F",
"(  c #656D7E",
")  c #6A717E",
"_  c #6C6F7A",
"`  c #6D7079",
"'  c #707075",
"]  c #726F6D",
"[  c #76726F",
"{  c #777371",
"}  c #787373",
"|  c #797677",
" . c #7A777A",
".. c #7B7A7C",
"X. c #7C7B7C",
"o. c #7D7B7D",
"O. c #807C7E",
"+. c #807D7F",
"@. c #817E81",
"#. c #848181",
"$. c #7F7E82",
"%. c #7A7C85",
"&. c #797D87",
"*. c #787F8A",
"=. c #77818D",
"-. c #78828D",
";. c #78838F",
":. c #7A848F",
">. c #7C8691",
",. c #808995",
"<. c #828C98",
"1. c #828D9A",
"2. c #838E9C",
"3. c #838E9D",
"4. c #838E9E",
"5. c #848E9E",
"6. c #86909F",
"7. c #858E9D",
"8. c #868E9C",
"9. c #868E9B",
"0. c #868E9B",
"q. c #878E9A",
"w. c #888D99",
"e. c #898D97",
"r. c #8A8D95",
"t. c #8C8D92",
"y. c #8D8D90",
"u. c #8F8D8D",
"i. c #918C87",
"p. c #928A83",
"a. c #948982",
"s. c #978A80",
"d. c #998C83",
"f. c #998D86",
"g. c #998E89",
"h. c #998F8B",
"j. c #98908E",
"k. c #99918E",
"l. c #9A928E",
"z. c #9B938E",
"x. c #9C948E",
"c. c #9D948E",
"v. c #9E948E",
"b. c #9E948F",
"n. c #9F948F",
"m. c #9E9590",
"M. c #9D9591",
"N. c #9C9594",
"B. c #9C9595",
"V. c #9C9695",
"C. c #9D9796",
"Z. c #9E9796",
"A. c #9F9897",
"S. c #9F9998",
"D. c #A09A9B",
"F. c #A39C9D",
"G. c #A59E9D",
"H. c #A8A09E",
"J. c #A9A29F",
"K. c #ACA5A0",
"L. c #B1A5A0",
"P. c #B2A69F",
"I. c #B3A79F",
"U. c #B4A79F",
"Y. c #B5A89F",
"T. c #B6A99F",
"R. c #B7AA9F",
"E. c #B9ACA0",
"W. c #BAAEA1",
"Q. c #BBAEA1",
"!. c #BBAEA1",
"~. c #BBAEA1",
"^. c #BBB0A3",
"/. c #BAB0A4",
"(. c #BBB0A6",
"). c #BBB1A7",
"_. c #BCB2A8",
"`. c #BDB2A9",
"'. c #BFB3A9",
"]. c #C0B3A8",
"[. c #C1B3A8",
"{. c #C3B4A8",
"}. c #C3B4A9",
"|. c #C3B4AA",
" X c #C3B5AA",
".X c #C4B6AA",
"XX c #C4B8AB",
"oX c #C5B8AB",
"OX c #C2BAB1",
"+X c #C5BAB2",
"@X c #C7BDB4",
"#X c #CEC4B9",
"$X c #D4CEC2",
"%X c #DBD5C9",
"&X c #DFD9CE",
"*X c #E2DCD1",
"=X c #E2DDD1",
"-X c #E3DFD1",
";X c #E4E0D3",
":X c #E6E3D4",
">X c #E8E4D7",
",X c #E9E5D8",
"<X c #EAE6D7",
"1X c #EBE8D7",
"2X c #ECE8D7",
"3X c #ECE9D7",
"4X c #EDEAD9",
"5X c #EEECDB",
"6X c #EFEDDC",
"7X c #F2EFDC",
"8X c #F4F0DD",
"9X c #F5F1DE",
"0X c #F6F3DF",
"qX c #F6F4E0",
"wX c #F7F6E2",
"eX c #F7F7E2",
"rX c #F8F7E2",
"tX c #F8F8E3",
"yX c #F9F7E5",
"uX c #F9F7E5",
"iX c #FBF7E5",
"pX c #FBF8E5",
"aX c #FCF8E5",
"sX c #FCF9E4",
"dX c #FCFAE3",
"fX c #FCFAE4",
"gX c #FCFAE5",
"hX c #FDFAE6",
"jX c #FEFBE6",
"kX c #FEFDE5",
"lX c #FEFEE5",
"zX c #FEFEE5",
"xX c #FEFEE4",
"cX c #FEFEE6",
"vX c #FEFEE7",
"bX c #FEFEE7",
"nX c #FEFDE9",
"mX c #FEFEEA",
"MX c #FDFDEC",
"NX c #FDFCEE",
"BX c #FCFCED",
"VX c #FCFCED",
"CX c None",
"ZX c black",
"AX c black",
"SX c black",
"DX c black",
"FX c black",
"GX c black",
"HX c black",
"JX c black",
"KX c black",
"LX c black",
"PX c black",
"IX c black",
"UX c black",
/* pixels */
"CXCXCXCXCXCXCXCXCXCXCXCXCXCXCXCXCXCXCXCXCXCXCXCXCXCXCXCXCXCXCXCX",
"CXCXCXCXCXCXCXCXCXCXCXCXCXz z CXCXCXz z CXCXCXCXCXCXCXCXCXCXCXCX",
"CXCXCXCXCXCXCXCXCXCXCXCXCXC C CXCXCXC C CXCXCXCXCXCXCXCXCXCXCXCX",
"CXCXCXCXCXCXCXCXCXCXCXCXCXC d CXCXCXd ' CXCXCXCXCXCXCXCXCXCXCXCX",
"CXCXCXCXCXCXCXCXCXCXCXCXCXC CXCXCXCXe ' t CXCXCXCXCXCXCXCXCXCXCX",
"CXCXCXCXCXCXCXCXCXCXCXCXu C CXCXCXCXCX' t CXCXCXCXCXCXCXCXCXCXCX",
"CXCXCXCXCXCXCXCXCXCXCXCXd C CXCXCXCXCX] t CXCXCXCXCXCXCXCXCXCXCX",
"CXCXCXCXCXCXCXCXCXCXCXCXd C CXCXCXCXCXC t CXCXCXCXCXCXCXCXCXCXCX",
"CXCXCXCXCXCXCXS.CXCXCXCXy C CXCXCXC.o.Z CXCXCXCXCXCXCXCXCXCXCXCX",
"CXCXCXCXCXCXCX@XO.CXCXCXCXb C CXz.pX@XC l.CXCXCXCXCXCXCXCXCXCXCX",
"CXCXCXCXCXC #.$XCXCXCXS.$X#.).$X/.J...u.1X=Xj.CXC CXC CXCXCXCXCX",
"CXCXCXCXK.7X1X@X).#.T.7X$XI.u.G.G.[ u :X:X$X%XCXK.#.J.CXCXCXCXCX",
"CXCXCXCX$X_.#X4X#X#X%X$XOXH.i. X.X/.k.G.&XwX$XS.%X#XG.).j.CXCXCX",
"CXCXCXCXi.`.$X%X%X&X:XI.(.(.L.H.G.J.(.XXH.<X%X#X$X$X7X%X#XCXCXCX",
"CXCXCXp.&X).$X=XOXOX@XL.E.Z.M.x.M.c.Z.E..XG.0X#X$X@XI.CXO.V CXCX",
"CXCXCX#X/.@X#X$X:X3XM. Xj.p ] b.x.c.] p J.A.%XOX%X%XK.CXCXCX] CX",
"CX] G.%X@Xk.J.j.$XG.] (.m - z b.c.x.z - C A.@X$X$X#X$X#.V G.} CX",
"CXi./.X.K.] _.$X$X+.d  .b b p.c.x.c.#.z Z C D.&XOXX./.%X-X#XCXCX",
"CXCXCXCX`.C $X/.o.*.) ) D i C p.x...Z D ( I E C #X%X@X#.CXCXCXCX",
"CXCXCXC @XCXj.CXd C y *.K H H D C D H Y =.A 1 7 CX#.OX$XG.CXCXCX",
"CXCXCX} X.CXCXCXCX6 t ) I H D i i i F ) &.A CXy p CXCXCX} CXCXCX",
"CXCXCXCXCXCXCXCXp A CXE W i i F H F i &.R u CXD A CXCXCXCXCXCXCX",
"CXCXCXCXCXCXCXCXi D CXCXA L H D i D *.I p CXCXy A CXCXCXCXCXCXCX",
"CXCXCXCXCXCXCXCXC y CXCXu Y i D F A ( p CXCXw t d CXCXCXCXCXCXCX",
"CXCXCXCXCXCXCXCX( y a CXZ ) A D A A ( Y CXCXt t d CXCXCXCXCXCXCX",
"CXCXCXCXCXCXCXCXCXr CXCXz C D i R A ) ) p CXCXr CXCXCXCXCXCXCXCX",
"CXCXCXCXCXCXCXCXCXCXCXCXCXCXD i t L p CXCXCXCXCXCXCXCXCXCXCXCXCX",
"CXCXCXCXCXCXCXCXCXCXCXCXCXCXi t CXD u CXCXCXCXCXCXCXCXCXCXCXCXCX",
"CXCXCXCXCXCXCXCXCXCXCXCXCXCXu A CXY CXCXCXCXCXCXCXCXCXCXCXCXCXCX",
"CXCXCXCXCXCXCXCXCXCXCXCXCXCXCXu a Y CXCXCXCXCXCXCXCXCXCXCXCXCXCX",
"CXCXCXCXCXCXCXCXCXCXCXCXCXCXCXCXt t CXCXCXCXCXCXCXCXCXCXCXCXCXCX",
"CXCXCXCXCXCXCXCXCXCXCXCXCXCXCXCXCXCXCXCXCXCXCXCXCXCXCXCXCXCXCXCX"
};
