/* XPM */
static char *_6d163cd2f6a4ab2a5aa197088871ab0KAUpPx04OCYWbpeJ_3[] = {
/* columns rows colors chars-per-pixel */
"32 32 256 2 ",
"   c #141823",
".  c #192030",
"X  c #1C2336",
"o  c #1C2437",
"O  c #1D2438",
"+  c #1E243B",
"@  c #1D243A",
"#  c #1D253B",
"$  c #1A233C",
"%  c #17223A",
"&  c #16213A",
"*  c #15213A",
"=  c #15213B",
"-  c #15223C",
";  c #14223E",
":  c #152340",
">  c #152341",
",  c #152341",
"<  c #152542",
"1  c #162542",
"2  c #172542",
"3  c #182342",
"4  c #1A2742",
"5  c #1C2943",
"6  c #1D2A44",
"7  c #1D2B45",
"8  c #1E2A44",
"9  c #1F2943",
"0  c #212941",
"q  c #232941",
"w  c #242942",
"e  c #252B43",
"r  c #262D45",
"t  c #272D43",
"y  c #282E47",
"u  c #2A3248",
"i  c #2C3248",
"p  c #303347",
"a  c #373846",
"s  c #3B3D4A",
"d  c #3E4151",
"f  c #454550",
"g  c #4A4A55",
"h  c #4F4A54",
"j  c #4E4C54",
"k  c #504D5B",
"l  c #504E5C",
"z  c #534F5B",
"x  c #545059",
"c  c #56525A",
"v  c #5B5457",
"b  c #5C585B",
"n  c #5D5B5C",
"m  c #5E5B5D",
"M  c #5B5A5E",
"N  c #5B5B60",
"B  c #5D5D61",
"V  c #595A62",
"C  c #545863",
"Z  c #4D5464",
"A  c #495365",
"S  c #455266",
"D  c #435267",
"F  c #415167",
"G  c #3F5067",
"H  c #3F5068",
"J  c #405169",
"K  c #40516A",
"L  c #41526B",
"P  c #42526B",
"I  c #42536C",
"U  c #44546D",
"Y  c #45546D",
"T  c #46556E",
"R  c #47566F",
"E  c #475870",
"W  c #495870",
"Q  c #495871",
"!  c #495871",
"~  c #4A5A71",
"^  c #4C5B73",
"/  c #4F5E75",
"(  c #526177",
")  c #546278",
"_  c #556379",
"`  c #576479",
"'  c #5A667A",
"]  c #5B667A",
"[  c #5B667A",
"{  c #5C667A",
"}  c #5E667A",
"|  c #60677A",
" . c #616677",
".. c #676773",
"X. c #6A666E",
"o. c #6B666D",
"O. c #6C666C",
"+. c #6D676D",
"@. c #70686E",
"#. c #736B70",
"$. c #7B7174",
"%. c #7D7375",
"&. c #837E7D",
"*. c #85817F",
"=. c #84807F",
"-. c #7D787A",
";. c #7A777A",
":. c #757479",
">. c #707379",
",. c #6D737B",
"<. c #667480",
"1. c #637181",
"2. c #647381",
"3. c #647382",
"4. c #657184",
"5. c #687586",
"6. c #697789",
"7. c #6D7A8A",
"8. c #707C8D",
"9. c #75818F",
"0. c #7C8794",
"q. c #7D8896",
"w. c #7E8A97",
"e. c #818D99",
"r. c #838E99",
"t. c #848F9B",
"y. c #85919C",
"u. c #86919D",
"i. c #87929E",
"p. c #89939E",
"a. c #8B939E",
"s. c #8C939C",
"d. c #8F9299",
"f. c #909198",
"g. c #919096",
"h. c #928F94",
"j. c #928E8E",
"k. c #938D8C",
"l. c #958E8C",
"z. c #9A918D",
"x. c #9B918E",
"c. c #9B938F",
"v. c #9C948E",
"b. c #9D9490",
"n. c #9F9491",
"m. c #9F9591",
"M. c #9F9592",
"N. c #A09794",
"B. c #A19895",
"V. c #A39B96",
"C. c #A49B97",
"Z. c #A49C97",
"A. c #A59D98",
"S. c #A6A09A",
"D. c #A7A29C",
"F. c #A9A49D",
"G. c #AAA59E",
"H. c #ABA69E",
"J. c #ACA69E",
"K. c #ADA69E",
"L. c #AEA79D",
"P. c #B4A89A",
"I. c #B9A998",
"U. c #BCAB99",
"Y. c #BFAD9A",
"T. c #BFAE9D",
"R. c #BFAF9F",
"E. c #BCB1A6",
"W. c #BAB1AA",
"Q. c #BFB4AA",
"!. c #C4B7AA",
"~. c #C6B8AA",
"^. c #C8BAAB",
"/. c #C8BBAD",
"(. c #C7BCAF",
"). c #C7BEB2",
"_. c #C5C0B6",
"`. c #C5C1B8",
"'. c #C6C2BA",
"]. c #CAC6BC",
"[. c #CDCAC0",
"{. c #D1CEC4",
"}. c #D3D0C6",
"|. c #D7D3C8",
" X c #DAD7CB",
".X c #DCD9CD",
"XX c #E1DED2",
"oX c #E3E0D5",
"OX c #E4E1D6",
"+X c #E6E4D8",
"@X c #E9E8DA",
"#X c #EBEADC",
"$X c #ECECDC",
"%X c #EEEEDE",
"&X c #F1F1E3",
"*X c #F5F3E3",
"=X c #F6F4E1",
"-X c #F8F5E2",
";X c #FBF7E5",
":X c #FCF7E5",
">X c #FCF7E5",
",X c #FDF7E5",
"<X c #FCF8E4",
"1X c #FCF9E3",
"2X c #FCFAE3",
"3X c #FBFAE3",
"4X c #FDFBE2",
"5X c #FEFBE3",
"6X c #FEFCE3",
"7X c #FDFCE3",
"8X c #FDFDE3",
"9X c #FDFDE4",
"0X c #FDFDE5",
"qX c #FDFDE5",
"wX c #FDFDE6",
"eX c #FDFDE6",
"rX c #FEFCE7",
"tX c #FEFDE7",
"yX c #FEFDE8",
"uX c #FEFEE8",
"iX c #FEFEE8",
"pX c #FEFDE9",
"aX c #FEFCEA",
"sX c #FDFCEB",
"dX c #FDFDEC",
"fX c #FDFDEC",
"gX c #FDFDEB",
"hX c #FEFDEA",
"jX c None",
"kX c black",
"lX c black",
"zX c black",
"xX c black",
"cX c black",
"vX c black",
"bX c black",
"nX c black",
"mX c black",
"MX c black",
"NX c black",
"BX c black",
"VX c black",
"CX c black",
"ZX c black",
"AX c black",
"SX c black",
"DX c black",
"FX c black",
"GX c black",
"HX c black",
"JX c black",
"KX c black",
"LX c black",
"PX c black",
"IX c black",
"UX c black",
/* pixels */
"jXjXjXjXjXjXjXjXjXjXjXjXjXjXjXjXjXjXjXjXjXjXjXjXjXjXjXjXjXjXjXjX",
"jXjXjXjXjXjXjXjXjXjXjXjXjXd jXjXjXjXN jXjXjXjXjXjXjXjXjXjXjXjXjX",
"jXjXjXjXjXjXjXjXjXjXjXjXjXo.z jXjXjX#.p jXjXjXjXjXjXjXjXjXjXjXjX",
"jXjXjXjXjXjXjXjXjXjXjXjXjXB N jXjXjX@.jXjXjXjXjXjXjXjXjXjXjXjXjX",
"jXjXjXjXjXjXjXjXjXjXjXjXjXB c jXjXjXB jXjXjXjXjXjXjXjXjXjXjXjXjX",
"jXjXjXjXjXjXjXjXjXjXjXjXjXB s jXjXjXB g jXjXjXjXjXjXjXjXjXjXjXjX",
"jXjXjXjXjXjXjXjXjXjXjXjXjXV jXjXjXjXj B jXjXjXjXjXjXjXjXjXjXjXjX",
"jXjXjXjXjXjXjXjXjXjXjXjXjXc jXjXjXjXjXV jXjXjXjXjXjXjXjXjXjXjXjX",
"jXjXjXjXjXjXjXjXjXjXjXjXjXc jXjXjXjXjXk jXjXjXjXjXjXjXjXjXjXjXjX",
"jXjXjXjXjXjXjXjXjXjXjXjXjXk jXQ.l.}.W.k jXjXjXjXjXjXjXjXjXjXjXjX",
"jXjXjXjXjXjXjXjXjXjXjXc.H.V H.|.{.OXH.D.|.k.jXjXjXjXjXjXjXjXjXjX",
"jXjXjXjXjXjXjX%.Q.L.*.K.XX[.N.Q.c.N.j.].}.].*.jXjXjXjXjXjXjXjXjX",
"jXjXjX-.{.{.L.|.=X|.Q.[._.S.k.!.~.P.k.J..X%XQ.L.'.b.jXjXjXjXjXjX",
"jXjXF._.l.m..X|.(.XXH.W.E.E.L.S.A.F.E.!.S.W.@X+X'.oXW.jXjXjXjXjX",
"jXjXk.W.OXL.{. X|.@XS.P.E.N.m.b.b.b.N.E.~.D.XX.XXXW.}.}.].S.#.jX",
"jXjXv.I.&.`.{.F.H.]._.!.k.d B b.b.b.#.B L.A.XXXX}._.H.c.jXjXjXjX",
"jXjXjXk.].{.'.|.{.W.#.E.V : g b.b.c.g : +.A..X]._.|.).*.jXjXjXjX",
"jXjXjXO._._. XL.S.-.C :.C C =.b.c.b.&.V X.#.D..X].W.[.W.M.k.O.jX",
"jXjX-.H.N.$.].H.jX7.5.1.F S ..k.b.*.X.Z 5./  . .*.Q.W._.W.*.jXjX",
"jXjXjXjXjXjXL.jXd / u 7.~ Q Q D ..P Q ( 0.W 0 0 jX].W.jXjXjXjXjX",
"jXjXjXjXjXB jXjXg i i 5.( W G G G G Y 1.9.A jXd A jXQ.k.M jXjXjX",
"jXjXjXjXjXjXjXjX~ A jX .1.G P W W W D 7.1.s jXd ^ jXjXjXjXjXjXjX",
"jXjXjXjXjXjXjXjXS d jXjX^ ( Q F G Y 9.` g jXjXp W jXjXjXjXjXjXjX",
"jXjXjXjXjXjXjXjXC g t jXjX) G G F / / g jXjXt d Z jXjXjXjXjXjXjX",
"jXjXjXjXjXjXjXjX .c a jXg | ~ W 3.Z 0./ jXjXd d jXjXjXjXjXjXjXjX",
"jXjXjXjXjXjXjXjXs 9 jXjXA Z G d S W C  .jXjXjXjXjXjXjXjXjXjXjXjX",
"jXjXjXjXjXjXjXjXjXjXjXjXjXjXG p jXT d jXjXjXjXjXjXjXjXjXjXjXjXjX",
"jXjXjXjXjXjXjXjXjXjXjXjXjXjXd d jXg i jXjXjXjXjXjXjXjXjXjXjXjXjX",
"jXjXjXjXjXjXjXjXjXjXjXjXjXjXg A jX .jXjXjXjXjXjXjXjXjXjXjXjXjXjX",
"jXjXjXjXjXjXjXjXjXjXjXjXjXjXjXi jXd jXjXjXjXjXjXjXjXjXjXjXjXjXjX",
"jXjXjXjXjXjXjXjXjXjXjXjXjXjXjXjXjXjXjXjXjXjXjXjXjXjXjXjXjXjXjXjX",
"jXjXjXjXjXjXjXjXjXjXjXjXjXjXjXjXjXjXjXjXjXjXjXjXjXjXjXjXjXjXjXjX"
};
