/* XPM */
static char *_6d163cd2f6a4ab2a5aa197088871ab0KAUpPx04OCYWbpeJ_4[] = {
/* columns rows colors chars-per-pixel */
"32 32 256 2 ",
"   c #131A26",
".  c #18212F",
"X  c #192231",
"o  c #192332",
"O  c #192333",
"+  c #182436",
"@  c #1A2437",
"#  c #1B2439",
"$  c #1B253A",
"%  c #1A243A",
"&  c #18243C",
"*  c #18233E",
"=  c #16223D",
"-  c #12213B",
";  c #14233D",
":  c #15233E",
">  c #15243F",
",  c #142540",
"<  c #142540",
"1  c #152442",
"2  c #172643",
"3  c #192443",
"4  c #1C2741",
"5  c #1F293F",
"6  c #1F2B42",
"7  c #222C41",
"8  c #242D43",
"9  c #252D41",
"0  c #262C3F",
"q  c #262C3E",
"w  c #272C3E",
"e  c #2A2D3F",
"r  c #2B2E3F",
"t  c #2C3143",
"y  c #2F3447",
"u  c #313747",
"i  c #363C50",
"p  c #3B3F51",
"a  c #3B4457",
"s  c #3B4459",
"d  c #3B455C",
"f  c #3D475D",
"g  c #3F485D",
"h  c #434D5F",
"j  c #4A4C58",
"k  c #4C4B54",
"l  c #4E4A50",
"z  c #4E4A4F",
"x  c #4F4A4F",
"c  c #504C51",
"v  c #524C52",
"b  c #554E53",
"n  c #575157",
"m  c #565158",
"M  c #585258",
"N  c #5C565B",
"B  c #5F585C",
"V  c #5D575C",
"C  c #5C595F",
"Z  c #5B555C",
"A  c #57535D",
"S  c #55515D",
"D  c #52525F",
"F  c #4B5465",
"G  c #465367",
"H  c #475468",
"J  c #465469",
"K  c #46546A",
"L  c #46546C",
"P  c #47546C",
"I  c #47546D",
"U  c #48556D",
"Y  c #48566E",
"T  c #495770",
"R  c #495870",
"E  c #4A5970",
"W  c #4D5C71",
"Q  c #505E73",
"!  c #526074",
"~  c #556276",
"^  c #566377",
"/  c #576478",
"(  c #58657A",
")  c #59677C",
"_  c #5B697B",
"`  c #5C6B7C",
"'  c #5E6C7D",
"]  c #626F82",
"[  c #646B7B",
"{  c #656A76",
"}  c #686A72",
"|  c #6A6C72",
" . c #6C6D70",
".. c #6E6C6D",
"X. c #716E6F",
"o. c #737172",
"O. c #767474",
"+. c #797676",
"@. c #7B7677",
"#. c #7F7876",
"$. c #817977",
"%. c #827A79",
"&. c #837A7A",
"*. c #847A7A",
"=. c #817B7C",
"-. c #7F7C7D",
";. c #7B7A80",
":. c #797A81",
">. c #787B83",
",. c #747A85",
"<. c #707A88",
"1. c #6C7A8B",
"2. c #6C7B8C",
"3. c #6D7B8F",
"4. c #6D7B90",
"5. c #6F7D8F",
"6. c #717E8F",
"7. c #727F8F",
"8. c #77828F",
"9. c #7B8390",
"0. c #7D8490",
"q. c #86868C",
"w. c #8A888C",
"e. c #8A8A8F",
"r. c #868D97",
"t. c #878E99",
"y. c #868F9B",
"u. c #86909D",
"i. c #86909D",
"p. c #86909D",
"a. c #87919E",
"s. c #88929D",
"d. c #89939E",
"f. c #8B949E",
"g. c #8C949C",
"h. c #8E959D",
"j. c #90959A",
"k. c #959598",
"l. c #989797",
"z. c #999595",
"x. c #989493",
"c. c #989493",
"v. c #999491",
"b. c #9A9390",
"n. c #9A938F",
"m. c #9B918C",
"M. c #9B918B",
"N. c #9B928C",
"B. c #9C948E",
"V. c #9D948E",
"C. c #9D958F",
"Z. c #9E958E",
"A. c #9F9690",
"S. c #A09792",
"D. c #A09893",
"F. c #A29B95",
"G. c #A49D95",
"H. c #A7A096",
"J. c #AAA298",
"K. c #ADA49B",
"L. c #AFA69D",
"P. c #B5A89B",
"I. c #BBAA9B",
"U. c #BDAB9C",
"Y. c #BEAC9C",
"T. c #BEAD9E",
"R. c #BCAE9F",
"E. c #B9AFA4",
"W. c #BCB1A7",
"Q. c #BAB0AA",
"!. c #BAB0AB",
"~. c #BBB1AC",
"^. c #BCB4AE",
"/. c #C1B5AB",
"(. c #C3B5A9",
"). c #C4B6A9",
"_. c #C6B8AA",
"`. c #C6B9AB",
"'. c #C6B9AD",
"]. c #C7BAAE",
"[. c #C7BDB2",
"{. c #C7BFB6",
"}. c #C7C1B8",
"|. c #C7C3BA",
" X c #C7C4BA",
".X c #C9C5BC",
"XX c #CCC7BE",
"oX c #D0CBC2",
"OX c #D3CEC6",
"+X c #D5D1C8",
"@X c #D5D1C9",
"#X c #D7D3C9",
"$X c #DAD6CB",
"%X c #DDD8CD",
"&X c #DFDACE",
"*X c #E0DBCF",
"=X c #E1DED0",
"-X c #E1DFD1",
";X c #E3E1D3",
":X c #E4E2D5",
">X c #E7E5D7",
",X c #EBE8DA",
"<X c #EEEBDC",
"1X c #F2EEDF",
"2X c #F4EFDF",
"3X c #F7F1E1",
"4X c #F9F3E1",
"5X c #F9F3E1",
"6X c #FBF5E4",
"7X c #FCF6E5",
"8X c #FCF8E6",
"9X c #FDF9E7",
"0X c #FEF9E7",
"qX c #FDFAE8",
"wX c #FEFBE7",
"eX c #FEFCE6",
"rX c #FEFDE6",
"tX c #FEFDE7",
"yX c #FEFEE7",
"uX c #FEFDE8",
"iX c #FEFDE9",
"pX c #FEFDE9",
"aX c #FEFEE9",
"sX c #FEFDEA",
"dX c #FEFDEA",
"fX c #FEFEEB",
"gX c #FEFDEC",
"hX c #FEFDEE",
"jX c #FEFCEE",
"kX c #FEFDEE",
"lX c None",
"zX c black",
"xX c black",
"cX c black",
"vX c black",
"bX c black",
"nX c black",
"mX c black",
"MX c black",
"NX c black",
"BX c black",
"VX c black",
"CX c black",
"ZX c black",
"AX c black",
"SX c black",
"DX c black",
"FX c black",
"GX c black",
"HX c black",
"JX c black",
"KX c black",
"LX c black",
"PX c black",
"IX c black",
"UX c black",
/* pixels */
"lXlXlXlXlXlXlXlXlXlXlXlXlXlXlXlXlXlXlXlXlXlXlXlXlXlXlXlXlXlXlXlX",
"lXlXlXlXlXlXlXlXlXlXlXlXlXlXlXk lXS j lXlXlXlXlXlXlXlXlXlXlXlXlX",
"lXlXlXlXlXlXlXlXlXlXlXlXlXlXC C lXC X.lXlXlXlXlXlXlXlXlXlXlXlXlX",
"lXlXlXlXlXlXlXlXlXlXlXlXlXD o.lXlXlXX.C lXlXlXlXlXlXlXlXlXlXlXlX",
"lXlXlXlXlXlXlXlXlXlXlXlXlX} S lXlXlXS ..lXlXlXlXlXlXlXlXlXlXlXlX",
"lXlXlXlXlXlXlXlXlXlXlXlXlX} lXlXlXlXlX} lXlXlXlXlXlXlXlXlXlXlXlX",
"lXlXlXlXlXlXlXlXlXlXlXlXlXC lXlXlXlXlXC lXlXlXlXlXlXlXlXlXlXlXlX",
"lXlXlXlXlXlXlXlXlXlXlXlXlXC lXlXlXlXlXC lXlXlXlXlXlXlXlXlXlXlXlX",
"lXlXlXlXlXlXlXlXlXlXlXlXlXD lXlXlXlXlXD lXlXlXlXlXlXlXlXlXlXlXlX",
"lXlXlXlXlXlXlXlXlXlXlXlXlXj O.=.lXlXlXD lXlXlXlXlXlXlXlXlXlXlXlX",
"lXlXlXlXlXlXlXlXlXlX+.D.H.C XX:X^.J.S D lXlXlXlXlXlXlXlXlXlXlXlX",
"lXlXlXlXlXlXlXlX..D.oX[.oXE.e.J.v.v.-.^.#XoXL.lXlXlXlXlXlXlXlXlX",
"lXlXlXlXq.C lXv.;X>XXX%XE.L.w./.).E.D.G.E.oX>XE.lXlXlXJ.oX XL...",
"lXlXlXH.{.lXw.>XoX.X>XJ./.E.L.H.G.J.E.).L.oXOX&XlXlX^..X=.lXlXlX",
"lXo.J.E.%Xw.oXQ.XX[.OXW.E.C.B.B.V.B.S.E.'.m.;XOX-.#X[.C w.X.lXlX",
"lXlXL.L.oX-XOX#X X,XG.).w.8 A B.V.B.C i H.H.XX+X X#XoX=X=X+XL.lX",
"lXlXlX}..X^.^.~.#XoX^.E.j > j C.V.B.C > ..F.{.+X.XL.N.*...lXX.lX",
"lXlX^.L.Z.^.Q. X[.Q.} +.C C =.B.B.B.w.C C C ] OX X;X=X+X{.v.lXlX",
"lXlX=.lX^.v.C 2XK.C F <.K G } =.N.@.C G ] W ] F..XQ.^.lXlXC lXlX",
"lXlXlXlXC.lXlX}.#.W u <.W R R J F P R ~ 8.U 6 a .X{.^.w.C lXlXlX",
"lXlXlXlXlXlXlXC.m y 8 [ ~ R K h h h Y ] <.F lXy } Q.{.w.C lXlXlX",
"lXlXlXlXlXlXlXlXg E lXF ] g G R R Y h <./ lXlXH W lXlXlXlXlXlXlX",
"lXlXlXlXlXlXlXlXg h lXlXF ~ E P h Y 6.! g lXlXs E lXlXlXlXlXlXlX",
"lXlXlXlXlXlXlXlXF i lXlXlX_ J h P E <.g lXlXlXi h lXlXlXlXlXlXlX",
"lXlXlXlXlXlXlXlXW i t lXlXF H H W ! ^ lXlXlXu i W lXlXlXlXlXlXlX",
"lXlXlXlXlXlXlXlXu 6 lXlXF <.! H ] Q 0.] lXlXlXy lXlXlXlXlXlXlXlX",
"lXlXlXlXlXlXlXlXlXlXlXlXu lXG g h Q h h lXlXlXlXlXlXlXlXlXlXlXlX",
"lXlXlXlXlXlXlXlXlXlXlXlXlXlXh i lXE a lXlXlXlXlXlXlXlXlXlXlXlXlX",
"lXlXlXlXlXlXlXlXlXlXlXlXlXlXi H lXF lXlXlXlXlXlXlXlXlXlXlXlXlXlX",
"lXlXlXlXlXlXlXlXlXlXlXlXlXlXlXg y / lXlXlXlXlXlXlXlXlXlXlXlXlXlX",
"lXlXlXlXlXlXlXlXlXlXlXlXlXlXlXlXu p lXlXlXlXlXlXlXlXlXlXlXlXlXlX",
"lXlXlXlXlXlXlXlXlXlXlXlXlXlXlXlXlXlXlXlXlXlXlXlXlXlXlXlXlXlXlXlX"
};
