/* XPM */
static char *_6d163cd2f6a4ab2a5aa197088871ab0KAUpPx04OCYWbpeJ_5[] = {
/* columns rows colors chars-per-pixel */
"32 32 256 2 ",
"   c #0D1528",
".  c #101A31",
"X  c #131E36",
"o  c #131F38",
"O  c #14203C",
"+  c #14223D",
"@  c #14213E",
"#  c #162542",
"$  c #192745",
"%  c #1A2847",
"&  c #1C2947",
"*  c #1E2946",
"=  c #1D2847",
"-  c #1A2744",
";  c #192642",
":  c #182440",
">  c #172340",
",  c #17223F",
"<  c #17223B",
"1  c #19213A",
"2  c #1C2038",
"3  c #1D2239",
"4  c #1E233B",
"5  c #1F243C",
"6  c #212538",
"7  c #22273D",
"8  c #282D3E",
"9  c #2C2F3E",
"0  c #2D303E",
"q  c #2E3342",
"w  c #303645",
"e  c #323746",
"r  c #323A4E",
"t  c #333D55",
"y  c #363F58",
"u  c #39415B",
"i  c #3B435D",
"p  c #3D4860",
"a  c #3E455D",
"s  c #43485B",
"d  c #494B56",
"f  c #4D4C52",
"g  c #524E51",
"h  c #514F53",
"j  c #524E54",
"k  c #514F55",
"l  c #4F5058",
"z  c #495162",
"x  c #455267",
"c  c #45536A",
"v  c #47556C",
"b  c #46556D",
"n  c #46556D",
"m  c #45546D",
"M  c #45556E",
"N  c #46556E",
"B  c #46556E",
"V  c #47556F",
"C  c #47556F",
"Z  c #485670",
"A  c #485771",
"S  c #495972",
"D  c #4A5871",
"F  c #4B5970",
"G  c #4D596D",
"H  c #4E586B",
"J  c #4F5667",
"K  c #505563",
"L  c #535563",
"P  c #555562",
"I  c #555460",
"U  c #55545C",
"Y  c #58545B",
"T  c #5A5559",
"R  c #5C565A",
"E  c #5D595B",
"W  c #5F595D",
"Q  c #5E5B60",
"!  c #5F5E66",
"~  c #656066",
"^  c #60616B",
"/  c #60626D",
"(  c #646670",
")  c #5D6474",
"_  c #596477",
"`  c #586478",
"'  c #586479",
"]  c #58667B",
"[  c #5A697D",
"{  c #5C6B7E",
"}  c #5E6C7F",
"|  c #5F6D80",
" . c #606D80",
".. c #626E81",
"X. c #656C7E",
"o. c #696C7D",
"O. c #6B6E7D",
"+. c #717179",
"@. c #767174",
"#. c #7C7778",
"$. c #807877",
"%. c #827C7A",
"&. c #7D7B7F",
"*. c #767B84",
"=. c #727B87",
"-. c #6C7889",
";. c #6E7A8C",
":. c #707C8F",
">. c #75808E",
",. c #7D828E",
"<. c #81848E",
"1. c #81858E",
"2. c #818590",
"3. c #808691",
"4. c #7E8792",
"5. c #7C8894",
"6. c #7A8996",
"7. c #7A8898",
"8. c #7D8A98",
"9. c #7E8B99",
"0. c #7F8C9A",
"q. c #808D9B",
"w. c #828E9C",
"e. c #86919D",
"r. c #89939E",
"t. c #8B959E",
"y. c #8D969E",
"u. c #8E969E",
"i. c #909195",
"p. c #918E8E",
"a. c #938F8F",
"s. c #979392",
"d. c #999391",
"f. c #9B938F",
"g. c #9D948E",
"h. c #9D948E",
"j. c #9D948E",
"k. c #9E958F",
"l. c #A09690",
"z. c #A19690",
"x. c #A19690",
"c. c #A09791",
"v. c #A09792",
"b. c #A19894",
"n. c #A39A97",
"m. c #A59D9A",
"M. c #A7A09E",
"N. c #A8A3A0",
"B. c #AAA6A2",
"V. c #AAA6A3",
"C. c #ABA8A2",
"Z. c #ABA8A1",
"A. c #ACA8A0",
"S. c #AEA89F",
"D. c #AFA79E",
"F. c #B1A79C",
"G. c #B4A69A",
"H. c #B5A699",
"J. c #B7A799",
"K. c #BBA794",
"L. c #BEA891",
"P. c #C1A98F",
"I. c #C3AA8F",
"U. c #C5AB8F",
"Y. c #C6AC8F",
"T. c #C5AD92",
"R. c #C3AF98",
"E. c #C2B09B",
"W. c #BDAF9F",
"Q. c #BAB0A2",
"!. c #BAB1A4",
"~. c #BBB4A7",
"^. c #BCB5A8",
"/. c #BEB6A9",
"(. c #C0B7AA",
"). c #C2B6AA",
"_. c #C6B8AA",
"`. c #C6B8AB",
"'. c #C7BBB2",
"]. c #C9BFB6",
"[. c #CDC4B9",
"{. c #D4CBBF",
"}. c #D7D0C3",
"|. c #DBD6C8",
" X c #DDD8C9",
".X c #DED9CA",
"XX c #E0DACB",
"oX c #E1DCCC",
"OX c #E2DDCD",
"+X c #E3DECD",
"@X c #E3DFCE",
"#X c #E4DFCE",
"$X c #E4E0CF",
"%X c #E5E0D1",
"&X c #E6E1D2",
"*X c #E8E2D5",
"=X c #EAE5D8",
"-X c #EDE7DB",
";X c #EFE9DD",
":X c #F0EBDF",
">X c #F0EBDF",
",X c #F1EBDF",
"<X c #F1EDE0",
"1X c #F2EDE0",
"2X c #F2EEDF",
"3X c #F2EEDE",
"4X c #F3EEDE",
"5X c #F4F1DF",
"6X c #F5F4E2",
"7X c #F7F6E4",
"8X c #FAF9E6",
"9X c #FBFBE8",
"0X c #FDFCE9",
"qX c #FDFDEB",
"wX c #FEFDEB",
"eX c #FEFDEC",
"rX c #FEFDED",
"tX c #FEFEED",
"yX c #FEFEEC",
"uX c #FEFEEB",
"iX c #FEFEEB",
"pX c #FEFEEA",
"aX c #FEFEEA",
"sX c #FEFEE9",
"dX c #FEFEE8",
"fX c #FEFDE7",
"gX c #FEFDE7",
"hX c #FEFDE6",
"jX c #FEFDE6",
"kX c #FDFDE5",
"lX c #FDFEE3",
"zX c #FDFDE3",
"xX c #FDFCE3",
"cX c #FDFAE3",
"vX c #FDFAE3",
"bX c #FDFAE3",
"nX c None",
"mX c black",
"MX c black",
"NX c black",
"BX c black",
"VX c black",
"CX c black",
"ZX c black",
"AX c black",
"SX c black",
"DX c black",
"FX c black",
"GX c black",
"HX c black",
"JX c black",
"KX c black",
"LX c black",
"PX c black",
"IX c black",
"UX c black",
/* pixels */
"nXnXnXnXnXnXnXnXnXnXnXnXnXnXnXnXnXnXd nXnXnXnXnXnXnXnXnXnXnXnXnX",
"nXnXnXnXnXnXnXnXnXnXnXnXnXnXQ U nXnX~ l nXnXnXnXnXnXnXnXnXnXnXnX",
"nXnXnXnXnXnXnXnXnXnXnXnXnXd ( nXnXnXU ~ nXnXnXnXnXnXnXnXnXnXnXnX",
"nXnXnXnXnXnXnXnXnXnXnXnXnX! U nXnXnXnXQ nXnXnXnXnXnXnXnXnXnXnXnX",
"nXnXnXnXnXnXnXnXnXnXnXnXnXQ nXnXnXnXnX! r nXnXnXnXnXnXnXnXnXnXnX",
"nXnXnXnXnXnXnXnXnXnXnXnXt Q nXnXnXnXnXQ t nXnXnXnXnXnXnXnXnXnXnX",
"nXnXnXnXnXnXnXnXnXnXnXnXd I nXnXnXnXnXU d nXnXnXnXnXnXnXnXnXnXnX",
"nXnXnXnXnXnXnXnXnXnXnXnXd U nXnXnXnXnXI r nXnXnXnXnXnXnXnXnXnXnX",
"nXnXnXnXnXnXnXnXnXnXnXnXr I nXnXnXnXnXl nXnXnXnXnXnXnXnXnXnXnXnX",
"nXnXnXnXnXnXnXnXnXnXnXnXnXl %.nXnX@.nXI nXnXnXnXnXnXnXnXnXnXnXnX",
"nXnXnXnXnXnX~ nXnXnXnXnX%.+.].[.(.-X&.( nXnXnXnXnXnXnXnXnXnXnXnX",
"nXnXnXnXnXA.~ nXnX'.^.[.7XZ.%.n.b.p.+.C.m.@.nXnXnX~ %.nXnXnXnXnX",
"nXnXnXnXnXS.m.[.!.}.].=XM.!.k.).).G.M.M.[..X%.nXnXnX!.nXnXnXnXnX",
"nXnXnX~.*X5X.X}. X(.@Xn.).!.F.M.m.D.!.).F.[.{.! nX#.&X1.nX~ nXnX",
"nXnXN.~.p.v.'.6X7X!.].).Q.d.f.g.k.k.k.F.`.p.=X].{.;X}.nXnX%.nXnX",
"nXnXp.z.{. X|./.[.[.^.).%.; l k.g.f.d - c.M.[.5X{.a.~ p.(.%.nXnX",
"nXnX@.~.!.z.f.~.S.b.[.Q.d > P k.g.f.l > ( n.|.|.}.}.|.{.a.nXnXnX",
"nXnXnXM.J.I.A.|.}..X1.o.z ( %.k.g.g.%.^ ( L i.1.s.{./.nXnXnXnXnX",
"nXnXnXnX%.p.|.p.Q ) O.-.v x J %.f.@.J c >.H =.,.s nX{.M.nXnXnXnX",
"nXnXnXnXnXp.].nXr =.s ;.S D D c K N A ] 4.z ; r r nX%.(.nXnXnXnX",
"nXnXnXnXnXnXp.~ d d q O.` A V p p x Z -.;.s r q nXnX( a.nXnXnXnX",
"nXnXnXnXnXnXnXnXe G r K -.x p b Z c p ,._ nXnXH z nXnXnXnXnXnXnX",
"nXnXnXnXnXnXnXnXs x nXnXz _ D Z x Z -._ s nXnXz H nXnXnXnXnXnXnX",
"nXnXnXnXnXnXnXnXs r nXnXnX) v p c x >.z nXnXnXr z nXnXnXnXnXnXnX",
"nXnXnXnXnXnXnXnX/ r r nXnXs x x v ] H nXnXnXe r H nXnXnXnXnXnXnX",
"nXnXnXnXnXnXnXnXr * nXnXnXO.[ H -._ e.) nXnXnXnXq nXnXnXnXnXnXnX",
"nXnXnXnXnXnXnXnXnXnXnXnXr ) p p _ x ) X.nXnXnXnXnXnXnXnXnXnXnXnX",
"nXnXnXnXnXnXnXnXnXnXnXnXnXnXt z d J y nXnXnXnXnXnXnXnXnXnXnXnXnX",
"nXnXnXnXnXnXnXnXnXnXnXnXnXnXnXz r z nXnXnXnXnXnXnXnXnXnXnXnXnXnX",
"nXnXnXnXnXnXnXnXnXnXnXnXnXnXnXs z _ nXnXnXnXnXnXnXnXnXnXnXnXnXnX",
"nXnXnXnXnXnXnXnXnXnXnXnXnXnXnXnXs t nXnXnXnXnXnXnXnXnXnXnXnXnXnX",
"nXnXnXnXnXnXnXnXnXnXnXnXnXnXnXnXnXr nXnXnXnXnXnXnXnXnXnXnXnXnXnX"
};
