/* XPM */
static char *result[] = {
/* columns rows colors chars-per-pixel */
"32 32 170 2 ",
"   c #9F3500",
".  c #9B3B05",
"X  c #9A3F08",
"o  c #A33700",
"O  c #A43B03",
"+  c #AC3B00",
"@  c #9E4D12",
"#  c #AB4203",
"$  c #A74B05",
"%  c #A9410B",
"&  c #A54A08",
"*  c #B34401",
"=  c #B54A01",
"-  c #B84C00",
";  c #A8520D",
":  c #A95A0D",
">  c #AC5C07",
",  c #BB5301",
"<  c #BD5B03",
"1  c #B15609",
"2  c #BA5F0C",
"3  c #B45C0E",
"4  c #AE5810",
"5  c #AE650D",
"6  c #B36207",
"7  c #B3640B",
"8  c #BA6E0D",
"9  c #BE7007",
"0  c #B5710D",
"q  c #BD710B",
"w  c #BE790D",
"e  c #B76B13",
"r  c #B26212",
"t  c #AD7019",
"y  c #B77013",
"u  c #BC7C12",
"i  c #B5771C",
"p  c #AB5922",
"a  c #B16D37",
"s  c #C15D00",
"d  c #C36402",
"f  c #C46903",
"g  c #C96E02",
"h  c #CD7401",
"j  c #CD7D06",
"k  c #C2700B",
"l  c #C87508",
"z  c #D07700",
"x  c #D27D01",
"c  c #CB7D12",
"v  c #BE920D",
"b  c #BF9518",
"n  c #CF8907",
"m  c #C8860C",
"M  c #CA8C0D",
"N  c #C6890D",
"B  c #D28203",
"V  c #D88600",
"C  c #D58A05",
"Z  c #DA8C01",
"A  c #C5930F",
"S  c #CA9508",
"D  c #CB9D0E",
"F  c #D09407",
"G  c #DE9301",
"H  c #DE9904",
"J  c #D0970C",
"K  c #D49B0B",
"L  c #C58511",
"P  c #C18A15",
"I  c #C79512",
"U  c #CE9311",
"Y  c #CE9910",
"T  c #E09500",
"R  c #E29D02",
"E  c #DFA806",
"W  c #DAA80B",
"Q  c #DDA206",
"!  c #DFB207",
"~  c #D6B60A",
"^  c #DEB108",
"/  c #D0AA10",
"(  c #D5A818",
")  c #D7B511",
"_  c #E9A701",
"`  c #E4AB06",
"'  c #EAAC02",
"]  c #EDB102",
"[  c #E4BA06",
"{  c #F0B400",
"}  c #F3BB02",
"|  c #E0BE19",
" . c #D1962E",
".. c #D8BB23",
"X. c #DFC106",
"o. c #DEC614",
"O. c #DDD01E",
"+. c #E7C107",
"@. c #EBC606",
"#. c #ECCE06",
"$. c #E7C60C",
"%. c #F4C202",
"&. c #F9C600",
"*. c #F2CA04",
"=. c #FACC01",
"-. c #EED305",
";. c #EEDA05",
":. c #E9D30C",
">. c #EDDF0E",
",. c #FBD500",
"<. c #F4DD03",
"1. c #FADD01",
"2. c #F1DC09",
"3. c #F2D104",
"4. c #E6C412",
"5. c #E4C61F",
"6. c #E5CD18",
"7. c #E9D71C",
"8. c #E9DB1C",
"9. c #F3DF1E",
"0. c #FBE401",
"q. c #FDED00",
"w. c #F5EB0F",
"e. c #FBEE0A",
"r. c #F3E706",
"t. c #FEF401",
"y. c #FFF904",
"u. c #FCF20A",
"i. c #ECE514",
"p. c #F3E01F",
"a. c #FDF614",
"s. c #FFF71F",
"d. c #DBD53E",
"f. c #E6C92D",
"g. c #E0D736",
"h. c #E9D538",
"j. c #EEDD3C",
"k. c #E2DC36",
"l. c #F3E729",
"z. c #FFF82A",
"x. c #FBF22C",
"c. c #FFFA34",
"v. c #F7F13E",
"b. c #C09644",
"n. c #D8BC6C",
"m. c #DDD846",
"M. c #DBD749",
"N. c #E0DB47",
"B. c #F1DF43",
"V. c #F3E14B",
"C. c #FFFA41",
"Z. c #FFF94B",
"A. c #EDE85F",
"S. c #F7ED54",
"D. c #F2E458",
"F. c #FEF955",
"G. c #E1CC62",
"H. c #EDD966",
"J. c #E1DD64",
"K. c #EEDE74",
"L. c #E4E06C",
"P. c #EEE06B",
"I. c #FFFA62",
"U. c #F1E271",
"Y. c #FDF976",
"T. c #DFD284",
"R. c #F1E48C",
"E. c #FFFC82",
"W. c #F8F59C",
"Q. c None",
/* pixels */
"Q.Q.Q.Q.Q.Q.Q.Q.Q.Q.Q.Q.Q.Q.Q.Q.Q.Q.Q.Q.Q.Q.Q.Q.Q.Q.Q.Q.Q.Q.Q.Q.",
"Q.Q.Q.Q.Q.Q.Q.Q.Q.Q.Q.Q.Q.Q.Q.Q.Q.Q.Q.Q.Q.Q.Q.Q.Q.Q.Q.Q.Q.Q.Q.Q.",
"Q.Q.Q.Q.Q.Q.Q.Q.Q.Q.Q.Q.Q.Q.Q.Q.Q.Q.Q.Q.Q.Q.Q.Q.Q.Q.Q.Q.Q.Q.Q.Q.",
"Q.Q.Q.Q.Q.Q.Q.Q.Q.Q.Q.Q.Q.Q.Q.Q.Q.Q.Q.Q.Q.Q.Q.Q.Q.Q.Q.Q.Q.Q.Q.Q.",
"Q.Q.Q.Q.Q.Q.Q.Q.Q.d.8.7.b 7 8 L m J M 8 8 K Q.Q.Q.Q.Q.Q.Q.Q.Q.Q.",
"Q.Q.Q.Q.Q.Q.Q.Q.m.i.t.<.> + - l B T B < * 7 Q.Q.Q.Q.Q.Q.Q.Q.Q.Q.",
"Q.Q.Q.Q.Q.Q.Q.Q.k.a.t.X.# - f C T { ` d = # w Q.Q.Q.Q.Q.Q.Q.Q.Q.",
"Q.Q.Q.Q.Q.Q.Q.m.v.z.y.S = d x R ' &.*.j - + & m Q.Q.Q.Q.Q.Q.Q.Q.",
"Q.Q.Q.Q.Q.Q.N.P.Z.z.w.9 s x G ` %.,.0.K s * O : Q.Q.Q.Q.Q.Q.Q.Q.",
"Q.Q.Q.Q.Q.Q.L.Y.F.c.6.f z Z _ } ,.0.y.5.d = + . r Q.Q.Q.Q.Q.Q.Q.",
"Q.Q.Q.Q.Q.J.W.E.I.C.( h Z _ } *.0.y.c.D.c - + o & 8 Q.Q.Q.Q.Q.Q.",
"Q.Q.Q.Q.g.T.R.U.D.j.S C R ] %.*.2.p.V.K. .f < = & : Q.Q.Q.Q.Q.Q.",
"Q.Q.Q.Q.O.t 4 3 2 k W ' R Z j l < 1 ; @ A *.-.-.:.P Q.Q.Q.Q.Q.Q.",
"Q.Q.Q.Q.Q.v O + * < K %.' H x g - +   . [ q.t.y.o.e Q.Q.Q.Q.Q.Q.",
"Q.Q.Q.Q.Q.Q.0 + - d B *.%.' T x s - + 6 <.q.t.i.u Q.Q.Q.Q.Q.Q.Q.",
"Q.Q.Q.Q.Q.Q.~ 7 s g B +.,.} _ Z z s = S q.t.e.I Q.Q.Q.Q.Q.Q.Q.Q.",
"Q.Q.Q.Q.Q.Q.Q.Y f z V ^ 1.=.{ ` Z z d @.t.t.) Q.Q.Q.Q.Q.Q.Q.Q.Q.",
"Q.Q.Q.Q.Q.Q.Q.Q.L B T E <.1.&.' R V n 0.y.:.y Q.Q.Q.Q.Q.Q.Q.Q.Q.",
"Q.Q.Q.Q.Q.Q.Q.Q.Q.S R ' :.0.,.} { T ^ t.r.P Q.Q.Q.Q.Q.Q.Q.Q.Q.Q.",
"Q.Q.Q.Q.Q.Q.Q.Q.Q.Y ` } 4.u.0.%.&.` -.t./ Q.Q.Q.Q.Q.Q.Q.Q.Q.Q.Q.",
"Q.Q.Q.Q.Q.Q.Q.Q.Q.Q.K } 4.l.e.3.,.[ q.$.5 Q.Q.Q.Q.Q.Q.Q.Q.Q.Q.Q.",
"Q.Q.Q.Q.Q.Q.Q.Q.Q.Q.Q.W &.h.x.2.1.#.r.u Q.Q.Q.Q.Q.Q.Q.Q.Q.Q.Q.Q.",
"Q.Q.Q.Q.Q.Q.Q.Q.Q.Q.Q.L [ f.S.9.>.;.D Q.Q.Q.Q.Q.Q.Q.Q.Q.Q.Q.Q.Q.",
"Q.Q.Q.Q.Q.Q.Q.Q.Q.Q.Q.Q.A ) P.V.7.~ Q.Q.Q.Q.Q.Q.Q.Q.Q.Q.Q.Q.Q.Q.",
"Q.Q.Q.Q.Q.Q.Q.Q.Q.Q.Q.Q.Q.I G.H...0 Q.Q.Q.Q.Q.Q.Q.Q.Q.Q.Q.Q.Q.Q.",
"Q.Q.Q.Q.Q.Q.Q.Q.Q.Q.Q.Q.Q.6 b.n.i Q.Q.Q.Q.Q.Q.Q.Q.Q.Q.Q.Q.Q.Q.Q.",
"Q.Q.Q.Q.Q.Q.Q.Q.Q.Q.Q.Q.Q.Q.p a Q.Q.Q.Q.Q.Q.Q.Q.Q.Q.Q.Q.Q.Q.Q.Q.",
"Q.Q.Q.Q.Q.Q.Q.Q.Q.Q.Q.Q.Q.Q.Q.% Q.Q.Q.Q.Q.Q.Q.Q.Q.Q.Q.Q.Q.Q.Q.Q.",
"Q.Q.Q.Q.Q.Q.Q.Q.Q.Q.Q.Q.Q.Q.Q.Q.Q.Q.Q.Q.Q.Q.Q.Q.Q.Q.Q.Q.Q.Q.Q.Q.",
"Q.Q.Q.Q.Q.Q.Q.Q.Q.Q.Q.Q.Q.Q.Q.Q.Q.Q.Q.Q.Q.Q.Q.Q.Q.Q.Q.Q.Q.Q.Q.Q.",
"Q.Q.Q.Q.Q.Q.Q.Q.Q.Q.Q.Q.Q.Q.Q.Q.Q.Q.Q.Q.Q.Q.Q.Q.Q.Q.Q.Q.Q.Q.Q.Q.",
"Q.Q.Q.Q.Q.Q.Q.Q.Q.Q.Q.Q.Q.Q.Q.Q.Q.Q.Q.Q.Q.Q.Q.Q.Q.Q.Q.Q.Q.Q.Q.Q."
};
