/* XPM */
static char *_384_5c149ce7981bbf1d9d0e2c7a31fa6aaec788d91bf6e2658d93833310716a8e6e[] = {
/* columns rows colors chars-per-pixel */
"32 32 142 2 ",
"   c #000000",
".  c #0D1615",
"X  c #051A1F",
"o  c #04171C",
"O  c #131E1E",
"+  c #1E1E1E",
"@  c #062027",
"#  c #07242B",
"$  c #1A2B2A",
"%  c #092B34",
"&  c #09313B",
"*  c #14383E",
"=  c #183438",
"-  c #272726",
";  c gray16",
":  c #373737",
">  c #373838",
",  c #0B3A45",
"<  c #0D424F",
"1  c #0E4A5A",
"2  c #2A4544",
"3  c #1C6476",
"4  c #3B6160",
"5  c #316B72",
"6  c #494949",
"7  c #5A5A5A",
"8  c #416866",
"9  c #497675",
"0  c #4D7E7C",
"q  c #697376",
"w  c gray45",
"e  c #167188",
"r  c #1A839D",
"t  c #2F8494",
"y  c #1A89A5",
"u  c #1B8CA9",
"i  c #1C90AC",
"p  c #1D95B2",
"a  c #1E9CBC",
"s  c #228FA8",
"d  c #2492AB",
"f  c #2C95AB",
"g  c #399DAF",
"h  c #2397B2",
"j  c #2E9CB8",
"k  c #2498B3",
"l  c #3A9EB0",
"z  c #29A2BE",
"x  c #608088",
"c  c #5DA7AA",
"v  c #64AEAF",
"b  c #6BADAB",
"n  c #6FB5B3",
"m  c #6CBBBD",
"M  c #70B7B5",
"N  c #71B8B6",
"B  c #79C2BE",
"V  c #1E9FC0",
"C  c #1FA2C2",
"Z  c #20A5C7",
"A  c #29A4C0",
"S  c #27A8C7",
"D  c #23A9CA",
"F  c #21ADD0",
"G  c #24B9DF",
"H  c #24BCE1",
"J  c #6CBEC0",
"K  c #25C0E7",
"L  c #26C4EC",
"P  c #27CBF5",
"I  c #28CDF7",
"U  c #28CEF8",
"Y  c #25D3FF",
"T  c #29D4FF",
"R  c #29D8FF",
"E  c #32D1F6",
"W  c #34D5FC",
"Q  c #39D7FF",
"!  c #3BD9FF",
"~  c #46C5DC",
"^  c #53C3D4",
"/  c #5DC7D4",
"(  c #5CC8D6",
")  c #57C9DA",
"_  c #5DCCDA",
"`  c #6FC4C7",
"'  c #6EC4C8",
"]  c #76C2C1",
"[  c #7CC7C4",
"{  c #79D5D8",
"}  c #47CCE5",
"|  c #4AD1EA",
" . c #5ED3E5",
".. c #42D9FF",
"X. c #4BDDFF",
"o. c #59D6F1",
"O. c #57DDFF",
"+. c #66D6E3",
"@. c #6EDCEB",
"#. c #60DFFF",
"$. c #70DFFA",
"%. c #5DE2FF",
"&. c #64E3FF",
"*. c #6FE3FF",
"=. c #74E3FF",
"-. c #79E4FF",
";. c #7BEAFF",
":. c #888888",
">. c #9B9A9A",
",. c #96A3A6",
"<. c #A5A5A5",
"1. c #AAAAAA",
"2. c #86D5D1",
"3. c #97E1DF",
"4. c #85CEE1",
"5. c #88DFE3",
"6. c #82DCF3",
"7. c #80E6FF",
"8. c #8CEEFF",
"9. c #9EECFF",
"0. c #99F2FF",
"q. c #A5EEFF",
"w. c #ACEFFF",
"e. c #ACE3F1",
"r. c #B4F3FF",
"t. c #B9F1FF",
"y. c #B5F9FF",
"u. c #BCFBFF",
"i. c #D0D0D0",
"p. c #C4FDFF",
"a. c #CBFFFF",
"s. c #DBF7FE",
"d. c #D4FBFF",
"f. c #DCF9FF",
"g. c #EFECEB",
"h. c #E2E1E1",
"j. c #E5FAFF",
"k. c #E9FCFF",
"l. c #F1F2F2",
"z. c #F4FEFF",
"x. c #FFFFFF",
"c. c None",
/* pixels */
"c.c.c.c.c.c.c.c.c.c.c.                    c.c.c.c.c.c.c.c.c.c.c.",
"c.c.c.c.c.c.c.c.c.c.c.                    c.c.c.c.c.c.c.c.c.c.c.",
"c.c.c.c.c.c.c.c.c.  6 :.:.:.:.:.:.:.x e e ,   c.c.c.c.c.c.c.c.c.",
"c.c.c.c.c.c.c.c.    7 x.x.x.x.x.x.x.r.T T 1     c.c.c.c.c.c.c.c.",
"c.c.c.c.c.c.c.c.; - q s.f.f.f.f.f.f.q.....3 @ # c.c.c.c.c.c.c.c.",
"c.c.c.c.c.    + i.g.e.! ! ! ! ! ! ! &.u.u.o.L D X     c.c.c.c.c.",
"c.c.c.c.c.    + h.x.t.T T Y Y T T Y %.p.p.&.Y H X     c.c.c.c.c.",
"c.c.c.    w >.,.6.7.O.T T T Y W ;.8.;.&.&.! T H X     c.c.c.c.c.",
"c.c.c.    1.x.k...Y Y Y Y T Y Q y.a.8.Y Y Y T H o     c.c.c.c.c.",
"c.c.c.    <.x.j...Y ! O.O.X.X.%.y.p.0.X.X.Q T H < % % c.c.c.c.c.",
"c.c.c.    <.x.j...Y =.z.z.d.u.u.p.p.p.u.u.%.Y T P I r     c.c.c.",
"c.c.c.    <.x.j...Y =.x.x.d.p.p.p.p.p.p.p.%.Y T T R y     c.c.c.",
"    6 1.1.4.*.-.w.t.9.=.*.&.O.&.%.%.%.%.%. ./ ) T R y     c.c.c.",
"    7 x.x.-.Y ! k.x.t.Y Y Y Y Y Y Y Y Y Y ( B ` E T y     c.c.c.",
"    7 x.x.=.Y ..s.z.w.T Y T T T T T T T T ( ] ' E R a , , # c.c.",
"    7 x.x.=.Y ! y.p.8.T T T T T T T T T T ( B ] E T T I T 1     ",
"    7 x.x.=.Y ! y.a.8.T T T T T T T T T T / ] ` E T Y Y U 1     ",
"    7 x.x.=.Y W 5.3.@.T T T T T T T T T T / B ` z a C z k ,     ",
"    7 x.x.=.Y W { 2.+.R T T T T T T T T R / B N s y y y y &     ",
"    7 x.x.=.Y W  .+.} H H H H H H H H H H ~ / ^ S Z z g l ,     ",
"    7 x.x.-.Y T T T G u u u u u u u u u u H T T T T } ] ] 2     ",
"    7 l.l.$.Y Y U T G i i u i i i i i i i G Y Y T Y } N N 2     ",
"c.c.c.: > j T I C a D L L L L L L L L L L D a C I T k $ $ c.c.c.",
"c.c.c.    y R P p y Z T T T T T T T T T T C u p I R y     c.c.c.",
"c.c.c.    y R I p y Z T T T T T T T T T R C y d ~ | t     c.c.c.",
"c.c.c.    y R I p y Z T T T T T T T T T T C u d m [ 0     c.c.c.",
"c.c.c.    r L H k s D T T T T T T T T T T D s f v n 9     c.c.c.",
"c.c.c.c.c.@ @ * c m ^ T T T T T T T T T T ^ m c = O O c.c.c.c.c.",
"c.c.c.c.c.    . b [ _ R T R R T T T R R R _ [ b .     c.c.c.c.c.",
"c.c.c.c.c.c.  . 4 8 5 e e e e e e e e e e 5 8 4 .   c.c.c.c.c.c.",
"c.c.c.c.c.c.c.c.                                c.c.c.c.c.c.c.c.",
"c.c.c.c.c.c.c.c.                                c.c.c.c.c.c.c.c."
};
