/* XPM */
static char *result[] = {
/* columns rows colors chars-per-pixel */
"20 20 207 2 ",
"   c black",
".  c #000100",
"X  c #000101",
"o  c #000002",
"O  c #000003",
"+  c #020204",
"@  c #000106",
"#  c #040506",
"$  c #060707",
"%  c #070707",
"&  c #010208",
"*  c #010309",
"=  c #070A0B",
"-  c #070A0D",
";  c #080A0A",
":  c #090A0B",
">  c #090B0C",
",  c #090D0F",
"<  c #070C11",
"1  c #090C10",
"2  c #0A0D10",
"3  c #0D1114",
"4  c #0C1015",
"5  c #0E1417",
"6  c #101110",
"7  c #121313",
"8  c #111619",
"9  c #11171C",
"0  c #13181C",
"q  c #14191E",
"w  c #171C1F",
"e  c #1D1F1D",
"r  c #151E27",
"t  c #191E20",
"y  c #182025",
"u  c #1F2427",
"i  c #18212A",
"p  c #1A252F",
"a  c #1D272D",
"s  c #1E282F",
"d  c #1F2A32",
"f  c #242624",
"g  c #20252B",
"h  c #222A2C",
"j  c #252B2C",
"k  c #242A2D",
"l  c #262D2F",
"z  c #2A2C29",
"x  c #2B2E2D",
"c  c #2F322F",
"v  c #282D32",
"b  c #2A3031",
"n  c #293033",
"m  c #2B3232",
"M  c #243038",
"N  c #27333C",
"B  c #27343C",
"V  c #2D383D",
"C  c #303437",
"Z  c #313738",
"A  c #30393D",
"S  c #343D3D",
"D  c #363D3D",
"F  c #3B3D3B",
"G  c #263540",
"H  c #2D3A41",
"J  c #2C3B42",
"K  c #2C3A45",
"L  c #2D3A45",
"P  c #2E3A44",
"I  c #344045",
"U  c #3F4443",
"Y  c #394347",
"T  c #334149",
"R  c #33414A",
"E  c #30424C",
"W  c #34434C",
"Q  c #3A464B",
"!  c #3F494A",
"~  c #394653",
"^  c #374853",
"/  c #3E4953",
"(  c #3B4C57",
")  c #3F4C58",
"_  c #414642",
"`  c #444A47",
"'  c #414748",
"]  c #4B4E49",
"[  c #484C4A",
"{  c #494E4B",
"}  c #4C504C",
"|  c #404C50",
" . c #404C51",
".. c #414F57",
"X. c #4D5555",
"o. c #405059",
"O. c #44565F",
"+. c #4A575E",
"@. c #515A58",
"#. c #545C5E",
"$. c #405360",
"%. c #475761",
"&. c #485665",
"*. c #485A64",
"=. c #485B67",
"-. c #4C5C64",
";. c #465969",
":. c #495E6B",
">. c #4B5F6D",
",. c #535F69",
"<. c #4A606D",
"1. c #4B606F",
"2. c #4D616F",
"3. c #5A6160",
"4. c #5C6461",
"5. c #5B6566",
"6. c #5A686A",
"7. c #5D6D6F",
"8. c #526570",
"9. c #566971",
"0. c #556C79",
"q. c #596E7C",
"w. c #5F7279",
"e. c #5D707B",
"r. c #636764",
"t. c #62686C",
"y. c #666F6C",
"u. c #66706F",
"i. c #6B726C",
"p. c #677172",
"a. c #637276",
"s. c #697373",
"d. c #6D7570",
"f. c #6F7771",
"g. c #6B7777",
"h. c #6C7878",
"j. c #6C787B",
"k. c #7F837D",
"l. c #5E7581",
"z. c #617680",
"x. c #617681",
"c. c #637781",
"v. c #647984",
"b. c #6E7F86",
"n. c #748081",
"m. c #7F8783",
"M. c #7E8E8F",
"N. c #688091",
"B. c #7C8C90",
"V. c #7C9095",
"C. c #7D949F",
"Z. c #818783",
"A. c #809296",
"S. c #839496",
"D. c #849697",
"F. c #879A9C",
"G. c #899C9E",
"H. c #8F9E9C",
"J. c #839AA4",
"K. c #8FA3A9",
"L. c #91A2A1",
"P. c #93A5A5",
"I. c #9CA9A3",
"U. c #9BA8A4",
"Y. c #9BABA7",
"T. c #91A4AB",
"R. c #93A7AD",
"E. c #93A8AD",
"W. c #96A9AD",
"Q. c #99ABAB",
"!. c #9BACAC",
"~. c #A1AAA5",
"^. c #A8B3AB",
"/. c #A9B4AC",
"(. c #A2B0B1",
"). c #A1B2B0",
"_. c #A2B2B0",
"`. c #AABAB6",
"'. c #B2BAB0",
"]. c #B7BEB1",
"[. c #BABFB1",
"{. c #B1BFBA",
"}. c #C7CEBF",
"|. c #B3C4C0",
" X c #BBCBC5",
".X c #C6CCC4",
"XX c #C2D0C8",
"oX c #C7D4CB",
"OX c #C5D4CF",
"+X c #C6D4CF",
"@X c #CDD3CB",
"#X c #C8D4CA",
"$X c #CCD5C9",
"%X c #CDD9CD",
"&X c #CED9CF",
"*X c #CEDBD1",
"=X c #D1DFD6",
"-X c #D5DDD5",
";X c #D5E1D5",
":X c #D7E2DC",
">X c #D9E4DD",
",X c #E0E9DB",
"<X c #E6EEDE",
"1X c #EAEFDD",
"2X c #DBE9E1",
"3X c #EEF6E4",
"4X c None",
/* pixels */
"4X4X4X4X4X4X4X4X4X4X4X4X4X4X4X4X4X4X4X4X",
"4X4X4X4X4X4X4X4X4X4X4X4X4X4X4X4X4X4X4X4X",
"4X4X4X4X4X4X4X4X  % x F 6 4X4X4X4X4X4X4X",
"4X4X4X4X4Xf ] z $ r..X@Xk.7 4X4X4X4X4X4X",
"4X4X4X4X} [.1X]._ ~.:X>X-X[ X # 4X4X4X4X",
"4X4X4Xc }.3X;X Xa.S.E.R.(.' 3.s.g 4X4X4X",
"4X4X4XU #X|.K.J.=.o.1.;.~ ,.+X2Xn.1 4X4X",
"4X4X  t M.C.N.>.y = j 4.C &.T.OX{.h 4X4X",
"4X4Xe { ! %.) t.Z.Z f.<X'./ q.W._.k 4X4X",
"4X4Xi.&X^.m D $X,Xg.h.%X%X#.L e.+.2 4X4X",
"4X4Xy.XXoXp.I Y.L.7.6.G.D.A n j.v   4X4X",
"4X4XY F.P.B.K w.z.O.Q 9.V , 5.*Xm.: 4X4X",
"4X4X0 *.l.v.H J <.E 8 S d.X.W A.u.; 4X4X",
"4X4X4Xq ^ T b u a 5 l I.=XH.( :.s o 4X4X",
"4X4X4X  > ` /.U. .3 | Q.!.b.P M - 4X4X4X",
"4X4X4X4X. @.`.).V...d 2.0.$.4 + 4X4X4X4X",
"4X4X4X4X4Xw -.c.x.8.i p G r * 4X4X4X4X4X",
"4X4X4X4X4X4X9 N R B < O & @ 4X4X4X4X4X4X",
"4X4X4X4X4X4X4X4X4X4X4X4X4X4X4X4X4X4X4X4X",
"4X4X4X4X4X4X4X4X4X4X4X4X4X4X4X4X4X4X4X4X"
};
