/* XPM */
static char *result[] = {
/* columns rows colors chars-per-pixel */
"32 32 237 2 ",
"   c #17750B",
".  c #177B0A",
"X  c #187C0B",
"o  c #187D0B",
"O  c #187E0B",
"+  c #197E0B",
"@  c #197F0C",
"#  c #19800B",
"$  c #19810B",
"%  c #19820B",
"&  c #19830B",
"*  c #19840B",
"=  c #1A850B",
"-  c #19860B",
";  c #19870B",
":  c #1A860B",
">  c #1A870B",
",  c #19810C",
"<  c #19820C",
"1  c #1A820C",
"2  c #1A830C",
"3  c #1A840C",
"4  c #1A850C",
"5  c #1A860C",
"6  c #1A870C",
"7  c #1A870D",
"8  c #1A880B",
"9  c #1A890B",
"0  c #1B890B",
"q  c #1A8A0B",
"w  c #1B8B0B",
"e  c #1A8C0B",
"r  c #1B8C0B",
"t  c #1A8D0B",
"y  c #1B8D0B",
"u  c #1B8E0B",
"i  c #1B8F0B",
"p  c #1A880C",
"a  c #1B880C",
"s  c #1A890C",
"d  c #1A8A0C",
"f  c #1B8A0C",
"g  c #1B8B0C",
"h  c #1C8B0D",
"j  c #1A8C0C",
"k  c #1B8C0C",
"l  c #1B8D0C",
"z  c #1B8D0D",
"x  c #1B8E0C",
"c  c #1B8F0C",
"v  c #1B8E0D",
"b  c #1C8E0C",
"n  c #1C8F0C",
"m  c #1C8E0D",
"M  c #1C8F0D",
"N  c #1B900B",
"B  c #1B910B",
"V  c #1B920B",
"C  c #1C910B",
"Z  c #1C920B",
"A  c #1C930B",
"S  c #1C940B",
"D  c #1C950B",
"F  c #1B900C",
"G  c #1B910C",
"H  c #1B900D",
"J  c #1B920C",
"K  c #1C900C",
"L  c #1C910C",
"P  c #1C900D",
"I  c #1C910D",
"U  c #1D910D",
"Y  c #1C920C",
"T  c #1C930C",
"R  c #1C920D",
"E  c #1D920D",
"W  c #1C930D",
"Q  c #1D930D",
"!  c #1D930E",
"~  c #1C940C",
"^  c #1C950C",
"/  c #1D950C",
"(  c #1C940D",
")  c #1D940D",
"_  c #1C950D",
"`  c #1D950D",
"'  c #1C960C",
"]  c #1D960C",
"[  c #1C970C",
"{  c #1D970C",
"}  c #1D960D",
"|  c #1D970D",
" . c #1D950E",
".. c #1D970E",
"X. c #1E960E",
"o. c #1E970E",
"O. c #1C980C",
"+. c #1D980C",
"@. c #1D990C",
"#. c #1D980D",
"$. c #1D990D",
"%. c #1E980C",
"&. c #1E990D",
"*. c #1D9A0C",
"=. c #1D9B0C",
"-. c #1D9A0D",
";. c #1D9B0D",
":. c #1E9A0C",
">. c #1E9B0C",
",. c #1E9A0D",
"<. c #1E9B0D",
"1. c #1E980E",
"2. c #1E990E",
"3. c #1E9A0E",
"4. c #1E9B0E",
"5. c #1F9B0E",
"6. c #1D9C0C",
"7. c #1D9D0C",
"8. c #1D9C0D",
"9. c #1E9C0C",
"0. c #1E9D0C",
"q. c #1E9C0D",
"w. c #1E9D0D",
"e. c #1F9D0D",
"r. c #1D9E0C",
"t. c #1D9E0D",
"y. c #1E9E0C",
"u. c #1E9F0C",
"i. c #1E9E0D",
"p. c #1F9E0D",
"a. c #1E9F0D",
"s. c #1F9F0D",
"d. c #1E9C0E",
"f. c #1E9D0E",
"g. c #1F9D0E",
"h. c #1E9E0E",
"j. c #1F9E0E",
"k. c #1F9F0E",
"l. c #1EA00C",
"z. c #1EA10C",
"x. c #1EA00D",
"c. c #1FA00D",
"v. c #1EA10D",
"b. c #1FA10D",
"n. c #1EA20C",
"m. c #1FA20C",
"M. c #1EA30C",
"N. c #1FA30C",
"B. c #1EA20D",
"V. c #1FA20D",
"C. c #1EA30D",
"Z. c #1FA30D",
"A. c #1FA00E",
"S. c #1FA10E",
"D. c #1FA20E",
"F. c #1FA30E",
"G. c #1EA40C",
"H. c #1FA40C",
"J. c #1FA50C",
"K. c #1FA40D",
"L. c #1FA50D",
"P. c #1FA60C",
"I. c #1FA70C",
"U. c #1FA60D",
"Y. c #1FA70D",
"T. c #1FA50E",
"R. c #1FA80C",
"E. c #1FA90C",
"W. c #1FA80D",
"Q. c #1FA90D",
"!. c #1FAA0C",
"~. c #20A20E",
"^. c #20A30E",
"/. c #20A40D",
"(. c #20A50D",
"). c #20A70C",
"_. c #20A70D",
"`. c #20A40E",
"'. c #20A50E",
"]. c #20A60E",
"[. c #20A70E",
"{. c #20A80C",
"}. c #20A90C",
"|. c #20A80D",
" X c #20A90D",
".X c #20AA0C",
"XX c #20AB0C",
"oX c #20AA0D",
"OX c #20AB0D",
"+X c #20A80E",
"@X c #20A90E",
"#X c #21A90E",
"$X c #20A90F",
"%X c #20AA0E",
"&X c #21AA0E",
"*X c #20AB0E",
"=X c #21AB0E",
"-X c #20AC0C",
";X c #20AD0C",
":X c #21AD0C",
">X c #20AC0D",
",X c #21AC0D",
"<X c #20AD0D",
"1X c #21AD0D",
"2X c #20AE0C",
"3X c #21AE0C",
"4X c #21AF0C",
"5X c #20AE0D",
"6X c #21AE0D",
"7X c #20AF0D",
"8X c #21AF0D",
"9X c #21AC0E",
"0X c #21AD0E",
"qX c #21AE0E",
"wX c #21AF0E",
"eX c #21B00C",
"rX c #20B00D",
"tX c #21B00D",
"yX c #20B10D",
"uX c #21B10D",
"iX c #21B20D",
"pX c #21B30D",
"aX c #22B30D",
"sX c #21B00E",
"dX c #21B00F",
"fX c #22B20E",
"gX c #21B40D",
"hX c #21B50D",
"jX c #22B40D",
"kX c #22B50D",
"lX c #21B60D",
"zX c #22B60D",
"xX c #22B70D",
"cX c #22B80D",
"vX c #23B80D",
"bX c #23BB0D",
"nX c #23B80F",
/* pixels */
"iX5XkXl.L iXt.{ W.kXjXiXtXkXT A.[ w.c * } J.n.c.s.<XuXuXiXtXiXuX",
"8X| y.d 0.zXw.2.+.6.i.OXgXV.Q U.q.D u 7.M oX6.c kXtXoX9 8XpX8XiX",
"=.q.T R ,.+.@._ * ) : p.z.L.E T k.r.V.P.^.4 e.+.pXiX}.K ;.uX~ { ",
"Y S ^ y.OX_.I.0.> Q..X,X,.] t ).Z.Y.*XG T [ oX6XoX0 iX=.o.-.k E ",
"|.W.n.pXuXjXhXR.I a.B Y.[ s tX!.j.;.O.m.uXkXOXL.<X< -.~ x.O b #.",
"gXtX5XOX> 5XyX} ;.T } 9.' ) S.c a.o x a V.2XV.1.c.#.Z.W.M.L oX5X",
"8Xc 9 G L [.D f.q.rX| w.>X^ sXY.n.L OX*.D.| 0.6 ] s.eX<XK.bXN.<X",
"iXC.^ l / $.q q.1.. n <.n g.@.6.tXzXgX8XpXZ.l.M.^ q.tXv.1.u.| H.",
"pXH.<X5XN.5 6.~ -.8 ~.s ^ Y $ m G xXa.<.5X9 OX5Xk =X{ 9.5 +.s.;X",
" X8 [ kX* T [.6.~ 6.oXoX XG l.).q.z.K.U G ..{ A i.W.^ H.n.pX<XiX",
">X^ I L d.P.kXtXpXuXiXiXB.Y xX' =X} @.e  XZ.].b.@.Y 8X7XK.jXjXiX",
"kXY.dX*.+.8XOX7X0.zXB.&.Z V C ^ -.3X X6XzX8XiX1Xr +.cX-.1.O.*.OX",
">Xu.hXa. .b * F 5 a.^ j.0.D.I l.I.Z.q Y } ) i Y 5 g.{ @.L $ I v.",
"P.6 9.T -.<.T * x #.^ w >XtX2. Xl.> $ > ( #.K K u.oX_.OXV y.<XpX",
"-X8.F.@.= l.XX` G ' C.L.q.N.S.5 A.c } &.J ~ *.>XjXpX5Xu.xXkXL.OX",
"xXa.,.z.l [.G K.$ l | U.=Xc G ' L.8XU.qX|.u.OXpXuXuXW.2 K.R.m | ",
"I.-.4.- I F.v.y * W.uX+.+ -Xa.2.~ T <XzXL.,.4XiX1XT ~ c.0XX @ %.",
"~ u.; f T 8X7X^ $.oXoX8 6 >.~ { q.X n -Xs R ;XK.| @.% T 6.F <.nX",
"uXiX>XjXz.Q.cX7.S.oXL.I.q.'.=.B N.P.M o   } J.#.d.q k *.7XuX5XuX",
"iXOX{ H.k Y 4Xx.1.}.vXZ.T tXvXF 0.z.h.L n b.w.n.: # 4 H.L.pXuXuX",
"jXK.: d l +XP L R % uX+.c l.8X~ d.T Y @.K.>X] M.9 h | ~ 5.{.pXuX",
">Xy.8X7.g U.>X~ Z #.( l k f 2 X _.V.X.W 6.K 9 d v #XW c $.;XiXuX",
"P.5 oXl.M , n.c / z.w.X.q *.[ W qXgX%X# H K.N.l.R o.I ' G.jX6XuX",
":X| /.8 | k < 6 '.} # ^ lXL.-.r. XtXz.u.>XwX|.*.T :.^ 7 9XY.] kX",
"zXc } ' ~ s i.~ R -.$ x E.#.3.8 ` z ^ zX>X&X&X<.L w.Z ^.3 S.*.gX",
"zXz.S.b.i 1 |.u.S.g x 2.| u.> > f p % $.D.V -.V.R.@X^ T @.OXoXpX",
"l.Q.kXV.) { p.~ 7.# *.c.y.aX8XtX[ T K {  Xx ^ Y cXuXx.6XOXz.jXuX",
"k Q R.$.4.& W Y.J.=.W.l.a V.~ k I s P.5X#.<.7.3 Y.R.3.<.| x zX<X",
"*.].| 0.q k d n.,.| Y M +.[.% : o l T.D k.6 s | '.: | X V.>Xl.~ ",
"<.}.zXhX7.N $XF K B.L.` #. X4 c x *.qXg [ v.6.L.^ K 0.q.3.n.` ~ ",
"fXu.[ M.l L tXi.E ] E.} 4.V } (.>XY.V.tX6XjXm.6Xz.`.,.i.6 +.c.*.",
"gXB.& j W [.W x $.F.| y.* : *. XzXw.! x Z.xXx K eXtXB.l.u.aX<XzX"
};
