/* XPM */
static char *_0220_72b9bd73948ba071b07f522095d3a223428399a73839a51909794cf3937545ff[] = {
/* columns rows colors chars-per-pixel */
"32 32 36 1 ",
"  c #6DBB3F",
". c #58AA49",
"X c #5EA356",
"o c #64AC4C",
"O c #6AAE4D",
"+ c #6CB545",
"@ c #6FB942",
"# c #6CB24B",
"$ c #70B746",
"% c #73BA45",
"& c #7ABD45",
"* c #74B54B",
"= c #7BB64F",
"- c #76B849",
"; c #7DBA4B",
": c #64A556",
"> c #69AB51",
", c #6FA759",
"< c #71AA56",
"1 c #74B251",
"2 c #7BB451",
"3 c #7FB850",
"4 c #7DC143",
"5 c #88CB3B",
"6 c #84BD4C",
"7 c #89BE4D",
"8 c #81B552",
"9 c #85BA50",
"0 c #89BB50",
"q c #83C345",
"w c #8CC646",
"e c #8BC841",
"r c #86C149",
"t c #8BC34A",
"y c #92C945",
"u c #92C748",
/* pixels */
"t0>ttttttttttttttttttttttttttttt",
"tt6tttttttttttttrttttttttttttttt",
"ttttttttttt6tttt$=ttrttrtttttttt",
"tttt;*ttttt6ttttr6trrtttttt4rttt",
"tttt6=ttttttqw&tttttttttttw=#rtt",
"tttttttttttte+<tttrrt4rttttt9ttt",
"tttt6tttttwt6,7ttttew@qrtttttttt",
"t6tt1ttttt@rtwt66ttr*##%tttttttt",
"tttt7rtttt;6ttttrtt933;0ttwttttt",
"tttrtwqrrttttttwtttwttttttyttttt",
"tttq&#.q qtttt67ttttwttrttt-0ttt",
"ttt66=1u&ttrrt7twrtttrt0ttr>tttt",
"tttttuttttt&6tttw4rtt5rttttttttt",
"t66ttttrttt7tttttrtrt;;ttttttt9r",
"t--ttttq46tttttrtttttttttee0ttrt",
"tt7ttttt&7ttttttttttttt0rtrttttt",
"ttttttrttttttt&-ttrrttttttrttttt",
"ttt4;tttttttttrrttttttttttertr0t",
"ttt6#6tttttttttttttt44=ttt3>rttt",
"tttt6ttt;4tttttrtrtt%o2ttttrttrt",
"tttttttt63ttrrw5t#3tr3tttttttttt",
"trttttttttttr4&#4*2ttttttttttrtt",
"ttttttttttttt&Oo>=tttttttttttttt",
"tttttttrtttttttrttttttttqrtrtttt",
"ttqrttt6tuyrtttttttttt4;#+440ttt",
"ttr*7ttttt-qtttttttttt&6X=r*rttt",
"ttttwtttt0=rttttttwytttttttttttt",
"trtttq%-twttttrtttttttttwtt6tttt",
"ttttt-:8ttttt$6tttttqwtttttrtttt",
"ttttt63tttrttrtwtt46q%&$0ttttttt",
"ttttttttttr7tttttt;;X,6>0ttt;6rt",
"t-;ttttttttttttttttttttttttt=:tt"
};
