/* XPM */
static char *efe8870273eb4677d13a78bdbab3d945xgLrbFRDeHEkxXpS[] = {
/* columns rows colors chars-per-pixel */
"32 32 59 1 ",
"  c #20221D",
". c #21221D",
"X c #21231E",
"o c #22231E",
"O c #22241F",
"+ c #23241F",
"@ c #232520",
"# c #242520",
"$ c #242621",
"% c #252621",
"& c #252722",
"* c #262722",
"= c #262823",
"- c #272823",
"; c #272924",
": c #282924",
"> c #282A25",
", c #292A25",
"< c #292B26",
"1 c #2A2B26",
"2 c #2A2C27",
"3 c #2B2C27",
"4 c #2B2D28",
"5 c #2C2D28",
"6 c #2C2E29",
"7 c #2D2E29",
"8 c #2D2F2A",
"9 c #2E2F2A",
"0 c #2E302B",
"q c #2F302B",
"w c #2F312C",
"e c #30312C",
"r c #30322D",
"t c #31322D",
"y c #31332E",
"u c #32332E",
"i c #32342F",
"p c #33342F",
"a c #333530",
"s c #343530",
"d c #343631",
"f c #353631",
"g c #353732",
"h c #363732",
"j c #363833",
"k c #373833",
"l c #373934",
"z c #383934",
"x c #383A35",
"c c #393A35",
"v c #393B36",
"b c #3A3B36",
"n c #3A3C37",
"m c #3B3C37",
"M c #3B3D38",
"N c #3C3D38",
"B c #3D3E39",
"V c #3D3F3A",
"C c #3F403B",
/* pixels */
",uh53hp55hp55hh55pp4wla4wwa&wwl4",
"uhkhpkkhhzkpukkhalapavlwagM0lava",
"%-,,,,,3,3,,,,3,<;;;<44;4<w;0;4;",
"uuphhuphhpphhuphaawagwaglwlavwaw",
"uquhuuuuhuqpuuuhawwwawwgw0awl;w0",
"%-,,,33,33,,,,,3<;<;&;<4<&4$4$;$",
"uzmkhmmkkmzhhzNzavvwwgvlglMwlaMa",
"%55,%q5,,5u-%u5-$q0$$40;;4wX;<w;",
"3,5hu,,ph,uqz,5ha<wwl;0wg4wwg;44",
"uuhzhphhzuhhNuzzl0giMwgllwgwMwgw",
"%,,,,5,,,%3%5,q,;$4$0&02;&4$4;4;",
"qhhphzzuupz5hhzpwwg0lwliwwl4lglw",
"5ppquhh5uuk5huhuwwg4a0a0wwg2awg4",
"%,,,,,,,3-q%5%3,4;0&0&4;4<w$0;4$",
"hhzmmhkmmpzkCuzzvalgCwllMlMgCala",
",-5u5,,u5%3,h%5u4X;<w$40w&42w&44",
",up3,hhq,qu35phu4au,,uh55uh-uuk3",
"ukzpukzhhphhhhhhalkppzzhhhzqkhzu",
"%,,3,,--,--,,,-,,,,3,35,,-5%5%3%",
"uuhhhuuphuuhhuuhpupahuuhhuhuNupq",
"55uhhuuhu5qhhqqhuquupuuuu5uqzqpu",
"%,,,35,3,--,5,,533353355,%5%u,5-",
"pzzkhzmkhzzkhzzhlNmkhNNzhhmuzzNh",
"-5u%-55,,u5,-55-;q5%%qu,35uo3,u+",
"55quuu5up55hk55kh33hh,,ph,5zh555",
"uphhhpphh5uhhuqhzhuzkuhzzuhmhhhu",
"%-,,-,,335533555,,,3,5333-,3,55%",
"phhuphkhuhhuuhkpukhuukzpuhzu5zNq",
"qpuuqphuqhu55phu5hp5uhhqquh55kz3",
"%3,-%55,5553,u53,55,,55,,,3,%5qo",
"uzNzkmNkhhkhzzhhmNmzzNNzzzmmkmNu",
",upu5uh5uquphuuuu5uuu5qqq5up5qq-"
};
