/* XPM */
static char *result[] = {
/* columns rows colors chars-per-pixel */
"32 32 167 2 ",
"   c #89848B",
".  c #605B62",
"X  c #88838A",
"o  c #7F7A81",
"O  c #78737A",
"+  c #8F8A91",
"@  c #6D686F",
"#  c #6B666D",
"$  c #8E8990",
"%  c #837E85",
"&  c #858087",
"*  c #746F76",
"=  c #6E6970",
"-  c #8C878E",
";  c #817C83",
":  c #656067",
">  c #7C777E",
",  c #8D888F",
"<  c #767178",
"1  c #645F66",
"2  c #908B92",
"3  c #827D84",
"4  c #79747B",
"5  c #6A656C",
"6  c #8B868D",
"7  c #565158",
"8  c #868188",
"9  c #736E75",
"0  c #7D787F",
"q  c #635E65",
"w  c #6F6A71",
"e  c #7B767D",
"r  c #7E7980",
"t  c #68636A",
"y  c #777279",
"u  c #575259",
"i  c #666168",
"p  c #716C73",
"a  c #5F5A61",
"s  c #757077",
"d  c #524D54",
"f  c #706B72",
"g  c #5B565D",
"h  c #625D64",
"j  c #534E55",
"k  c #676269",
"l  c #878289",
"z  c #7A757C",
"x  c #3E3940",
"c  c #544F56",
"v  c #4E4950",
"b  c #59545B",
"n  c #413C43",
"m  c #49444B",
"M  c #403B42",
"N  c #4F4A51",
"B  c #5A555C",
"V  c #4D484F",
"C  c #58535A",
"Z  c #454047",
"A  c #514C53",
"S  c #464148",
"D  c #4A454C",
"F  c #5E5960",
"G  c #4C474E",
"H  c #847F86",
"J  c #6C676E",
"K  c #807B82",
"L  c #5D585F",
"P  c #615C63",
"I  c #3D383F",
"U  c #474249",
"Y  c #4B464D",
"T  c #48434A",
"R  c #504B52",
"E  c #3C373E",
"W  c #69646B",
"Q  c #423D44",
"!  c #8A858C",
"~  c #726D74",
"^  c #555057",
"/  c #5C575E",
"(  c #3B363D",
")  c #3A353C",
"_  c #837E84",
"`  c #59545A",
"'  c #807B81",
"]  c #777278",
"[  c #706B71",
"{  c #868187",
"}  c #656066",
"|  c #635E64",
" . c #7C777D",
".. c #716C72",
"X. c #7E797F",
"o. c #6F6A70",
"O. c #757076",
"+. c #827D83",
"@. c #565157",
"#. c #7B767C",
"$. c #888389",
"%. c #726D73",
"&. c #625D63",
"*. c #79747A",
"=. c #575258",
"-. c #736E74",
";. c #7D787E",
":. c #787379",
">. c #6E696F",
",. c #645F65",
"<. c #858086",
"1. c #585359",
"2. c #847F85",
"3. c #6D686E",
"4. c #686369",
"5. c #817C82",
"6. c #746F75",
"7. c #7F7A80",
"8. c #767177",
"9. c #5E595F",
"0. c #878288",
"q. c #524D53",
"w. c #6C676D",
"e. c #605B61",
"r. c #7A757B",
"t. c #69646A",
"y. c #3E393F",
"u. c #5A555B",
"i. c #4C474D",
"p. c #3F3A40",
"a. c #474248",
"s. c #615C62",
"d. c #4B464C",
"f. c #555056",
"g. c #4A454B",
"h. c #4F4A50",
"j. c #5C575D",
"k. c #5B565C",
"l. c #4E494F",
"z. c #454046",
"x. c #443F45",
"c. c #544F55",
"v. c #514C52",
"b. c #484349",
"n. c #6B666C",
"m. c #6A656B",
"M. c #666167",
"N. c #89848A",
"B. c #8D888E",
"V. c #3C373D",
"C. c #504B51",
"Z. c #3D383E",
"A. c #413C42",
"S. c #433E44",
"D. c #49444A",
"F. c #464147",
"G. c #5F5A60",
"H. c #676268",
"J. c #8B868C",
"K. c #908B91",
"L. c #8A858B",
"P. c #4D484E",
"I. c #534E54",
"U. c #3B363C",
"Y. c #5D585E",
"T. c #403B41",
"R. c white",
/* pixels */
"  . X o O + @ # $ % o & * = - ; $ : % & > , < 1 2 > % 3 4 5 6 & ",
"< 7 8 3 9 0 q w e < O r t q r 9 y u o & 9 4 t i 0 p e e @ a 0 s ",
"@ d o o f 9 g @ 8 0 4 4 h t % 0 f j > 3 f p . k l z e < k 1 & 0 ",
"7 x g c v b n m h c v c M N g v g x B u V C Z Z 1 j v A S D F G ",
"; < % = = 8 < s z t @ & O H p u H p 3 @ t H * f z # J 3 r 0 y d ",
"4 > 3 : : % > > 0 1 5 6 e X # C r y & 1 a % z e 0 5 i l 3 K 9 A ",
"O O < a t ; O s > L h ; t s . q ; s r P q & O 4 > : L r w @ 5 B ",
"h c m I d i A U C x Y J T R E G t v N E Y W v m u U Z W N U T Q ",
"r 1 J 8 = l k . & 3 y ; @ : 8 9 z @ h   * % p u ! e 3 e p i H s ",
"X i 5 8 f ; k w > z ~ r W 1 X > H @ . l * 0 f i o 9 e y J : & > ",
"3 P @ + > o h f & r O K W q H 0 r i : $ 0 z t t X z r > J 1 % 0 ",
"h D b f q : Y C < i . W ^ v t h a v j w q h R d 4 i 1 W u R W q ",
"k u g C d : C h = ^ c 1 B b 5 1 i B B u A : g a = u j i B b # q ",
"3 0 ; @ f ! o K X 5 f & ; ;   3 ; o 3 J = 6 ; K & @ t X 0 0 l r ",
"* s > : w l y 9 o . @ H r 4 z s * s r h # X y * e i q   4 < z p ",
"a b C x V i / F C ( N k a b u ^ F u g ) U i b F 7 Z S f L C B c ",
"_ ` ' ] [ { } | _  ...X.o.| { O.+.@.#.O.] X.o.` $.%.] ] [ &.+.*.",
"] =.{ +.-.;.| [ ;.;.:._ >.,.<.O. .1.{ 2.#.:.3.4.5.6.7.7.%.} 5.] ",
"..@._ +.-.8.9.[ 2.' 8.#.&.,.0.;...q.X.X...w.e.| { r.X.*.t.} <.;.",
"@.y.u.q.i.=.p.a.s.1.d.f.p.g.9.h.j.p.k.@.l.=.z.x.&.c.v.q.z.b.9.l.",
"7.-.' n.m.+.%...] m.4.2.8.;.%.@.2.%.+.o.t.0.8.-.:.m.m.X.:.] O.c.",
" .X.2.M.M._ ;.;.#.} | N.#._ w.c.r.8.' } k.<.:. . .4.| +. .#...v.",
" .#.*.s.m._ r.:._ } s.0...#.t.,._ r.X.t.| B.*.;.+.n.&._ O.-.[ 9.",
"&.c.b.V.v.} C.a.=.Z.A.m.i.C.y.S.4.q.d.A.z.w.g.D.f.x.S.t.q.D.F.V.",
"X.| m.2.>.0.M.G.+.X. . .[ 9.N.O.X.M.&._ :.*.[ ` 2.*._ #.3.&.+.] ",
"0.| H.2.>.' } w.;.] O.*.>.s.J.#._ t.&.7.6.] ..,.7.-.#.] w.} { ;.",
"_ &.3.K.X.5.| o.L.;.*. .o.,.0.r.;.m.3.N.7.;.o.M.J.r. .#.>.M._ #.",
",.d.u.%.M.4.P.1.*.H.e.4.=.h.t.e.G.q.` o.} M.c.v.#.M.s.H.=.v.H.G.",
"M.f.` @.v.,.@.G.3.@.f.M.1.=.4.,.,.@.f.1.v.s.@.G.>.1.I.M.` =.t.&.",
"_  .7.n.o.L.X.7.<.w.o.N.#.7.<.2._  .r.[ 3.N.r.+.{ o.n.N.X.X.$.' ",
"r.:. .} [ L.#.] ;.&.m.N.*.;.] 8.] *.#.4.4.B.8.*.X.H.| N. .r. .%.",
",.k.=.U.d.M.9.s.` y.b.w.Y.s.=.@.Y.G.u.V.p.>.j.e.u.S.T.3.e.9.j.v."
};
