/* XPM */
static char *result[] = {
/* columns rows colors chars-per-pixel */
"32 32 113 2 ",
"   c #000100",
".  c #020B02",
"X  c #0A0902",
"o  c #000F09",
"O  c #041404",
"+  c #051C02",
"@  c #04170A",
"#  c #131304",
"$  c #1C1706",
"%  c #141C05",
"&  c #062303",
"*  c #072A04",
"=  c #082D04",
"-  c #032308",
";  c #072C0E",
":  c #093104",
">  c #0A3B05",
",  c #05320E",
"<  c #04380E",
"1  c #072F12",
"2  c #083814",
"3  c #272009",
"4  c #2B2309",
"5  c #3C2E0C",
"6  c #3F330E",
"7  c #493A10",
"8  c #0D4B06",
"9  c #0E5207",
"0  c #105507",
"q  c #12520B",
"w  c #0C4E1E",
"e  c #0F6207",
"r  c #11620A",
"t  c #146D0A",
"y  c #15730A",
"u  c #177C0B",
"i  c #0A6D1D",
"p  c #0C4822",
"a  c #0C4428",
"s  c #0C5421",
"d  c #0D5C22",
"f  c #0F5C32",
"g  c #0D6224",
"h  c #0D7828",
"j  c #0F6032",
"k  c #116936",
"l  c #127539",
"z  c #5A4713",
"x  c #614C14",
"c  c #695316",
"v  c #6E5718",
"b  c #735B19",
"n  c #7E641C",
"m  c #80651C",
"M  c #17800B",
"N  c #18830C",
"B  c #198A0C",
"V  c #149603",
"C  c #159D03",
"Z  c #1B940C",
"A  c #1D9F0F",
"S  c #1D9211",
"D  c #1EA50F",
"F  c #1DBA0A",
"G  c #21B310",
"H  c #22BC11",
"J  c #10912C",
"K  c #149136",
"L  c #109D35",
"P  c #16973A",
"I  c #16993A",
"U  c #13BB38",
"Y  c #25DD0F",
"T  c #24C511",
"R  c #24CA11",
"E  c #27D513",
"W  c #26D912",
"Q  c #28DD14",
"!  c #2CD21B",
"~  c #26F90C",
"^  c #28FB0F",
"/  c #27E411",
"(  c #29E314",
")  c #2BEB14",
"_  c #2DF516",
"`  c #2DFA16",
"'  c #2EFA18",
"]  c #30FF17",
"[  c #30F71B",
"{  c #32FF1B",
"}  c #36FD21",
"|  c #39FB26",
" . c #3DFC2B",
".. c #40FB2F",
"X. c #43F434",
"o. c #41FB30",
"O. c #49FC3C",
"+. c #52FE46",
"@. c #57FF4D",
"#. c #58FE4F",
"$. c #5CFC54",
"%. c #62FC5D",
"&. c #65FD60",
"*. c #6CFD6A",
"=. c #70FE6F",
"-. c #74FD74",
";. c #77FE78",
":. c #7BFD7C",
">. c #7EFE82",
",. c #81FE86",
"<. c #86FF8C",
"1. c #89FD90",
"2. c None",
/* pixels */
"2.2.2.2.2.2.2.2.2.2.2.2.2.2.2.2.2.2.2.2.2.2.2.2.2.2.2.2.2.2.2.2.",
"2.2.2.2.2.2.2.2.2.    2.2.2.2.2.2.2.2.2.2.2.2.2.2.2.2.2.2.2.2.2.",
"2.2.2.2.2.2.2.2.2., i . 2.2.2.2.2.2.2.2.2.2.2.2.2.2.2.2.2.2.2.2.",
"2.2.2.2.2.2.2.2.2.< U p . 2.2.2.2.2.  X X   2.2.2.2.2.2.2.2.2.2.",
"2.2.2.2.2.2.2.2.2., U K s   2.2.2.# $ v c   2.2.2.2.2.2.2.2.2.2.",
"2.2.2.2.2.2.2.2.2.@ J L k d @ 2.  x m n 7   2.2.2.2.2.2.2.2.2.2.",
"2.2.2.2.2.2.2.2.2.  - h f l 1   3 v m 6   2.2.2.2.2.2.2.2.2.2.2.",
"2.2.2.2.2.2.2.2.2.2.  2 I j a o x m 5   2.2.2.2.2.2.2.2.2.2.2.2.",
"2.2.2.2.2.2.2.2.2.2.2.O g I p . z m X 2.2.2.2.2.2.2.2.2.2.2.2.2.",
"2.2.2.2.2.2.2.2.2..     . ; . 5 b 4   . . .     2.2.2.2.2.2.2.2.",
"2.2.2.2.2.2.2.  > / W W ( Z + # % 9 t ! W Q D O . 2.2.2.2.2.2.2.",
"2.2.2.2.2.2.  8 _  . .} ` T N y r t S *.{ ` _ _ A O   2.2.2.2.2.",
"2.2.2.2.2.  q o.+.,.1.%.~ _ ` F V C X.:.[ ` ` ` ] Z . 2.2.2.2.2.",
"2.2.2.2.  e } ,.<.>.;.O.` ' ` O.#.#.<.$.` ` ` _ ` T & 2.2.2.2.2.",
"2.2.2.2.  / } :.>.<.&.~ ` ` ` O.$.#.+.` ` _ ` ` ' H 8 + 2.2.2.2.",
"2.2.2.  N ) } >.<.-. .` ` ` ` ~ ~ ~ ~ ` ` ` ` ` ] G y : 2.2.2.2.",
"2.2.2.  E ] _ o...} ` ` ` ` ` [ ` ' ' ` ` _ ` ` ` ) D & 2.2.2.2.",
"2.2.2.  T ` | &._ ` ` ` ` ` ` ` ` _ ` ` ` ` ` ` ` ' G & 2.2.2.2.",
"2.2.2.  R { -.<.=.` ` ` ` ` ` ` _ ` ` ` ` ` ` ` ' H y = 2.2.2.2.",
"2.2.2.  T { >.<.$.` _ ` ` ` ` ` ` ` ` ` ` ` ` ` ) D y * 2.2.2.2.",
"2.2.2.  E ] $.#.` ` ` ` ` ` ` ` ` ` ` ` ` ` ` ' T r N = 2.2.2.2.",
"2.2.2.  r ) ` ~ ` ` ` ` ` ` _ ` ` ` ` ` ` _ ' ) Z y 0 O 2.2.2.2.",
"2.2.2.2.  E ' ` ` ` ` ` ` ` ` ` ` ` ` ' _ ` ) B t u : 2.2.2.2.2.",
"2.2.2.2.. W ] _ ` _ ` ` ` ` ` ` ` _ ` ` ' ) N t u 8 . 2.2.2.2.2.",
"2.2.2.2.  * W ` _ ` ` ` ` ` ] ` ] ` ` _ ( u t y y : 2.2.2.2.2.2.",
"2.2.2.2.2.  + E ] ` ' ` _ ( ( ( ( ( Q N y y y u q   2.2.2.2.2.2.",
"2.2.2.2.2.2.  + R ] E W D t y t y y y y y y u y = 2.2.2.2.2.2.2.",
"2.2.2.2.2.2.2.  + N 8 t t y u u u u y y y y 8 = 2.2.2.2.2.2.2.2.",
"2.2.2.2.2.2.2.2.2.  & N u M 9 > > > y u y *   2.2.2.2.2.2.2.2.2.",
"2.2.2.2.2.2.2.2.2.2.O = * = . 2.2.2.& = & 2.2.2.2.2.2.2.2.2.2.2.",
"2.2.2.2.2.2.2.2.2.2.2.2.2.2.2.2.2.2.2.2.2.2.2.2.2.2.2.2.2.2.2.2.",
"2.2.2.2.2.2.2.2.2.2.2.2.2.2.2.2.2.2.2.2.2.2.2.2.2.2.2.2.2.2.2.2."
};
