/* XPM */
static char *result[] = {
/* columns rows colors chars-per-pixel */
"32 65 105 2 ",
"   c #000101",
".  c #090504",
"X  c #040709",
"o  c #060A0C",
"O  c #09090A",
"+  c #120603",
"@  c #140E0E",
"#  c #1D0E09",
"$  c #040C10",
"%  c #0B1114",
"&  c #151211",
"*  c #181515",
"=  c #13191B",
"-  c #26140C",
";  c #29140B",
":  c #221612",
">  c #291811",
",  c #2F1D18",
"<  c #331E14",
"1  c #391E12",
"2  c #351F1B",
"3  c #3D2214",
"4  c #34201B",
"5  c #3B231D",
"6  c #1F2325",
"7  c #252A2C",
"8  c #3A322C",
"9  c #2A2E30",
"0  c #323838",
"q  c #432516",
"w  c #42261E",
"e  c #45291E",
"r  c #4B2C1C",
"t  c #56311F",
"y  c #412721",
"u  c #452820",
"i  c #4C2D21",
"p  c #522F20",
"a  c #4B322A",
"s  c #553221",
"d  c #5B3522",
"f  c #5D3A27",
"g  c #50352C",
"h  c #5B3A2A",
"j  c #4B3C33",
"k  c #613622",
"l  c #643A25",
"z  c #6A3D25",
"x  c #653C29",
"c  c #6B3E29",
"v  c #42413D",
"b  c #6E4026",
"n  c #60402F",
"m  c #6E4129",
"M  c #724126",
"N  c #794226",
"B  c #75442A",
"V  c #794629",
"C  c #7C492E",
"Z  c #6E4532",
"A  c #7E4C32",
"S  c #424442",
"D  c #434B4A",
"F  c #4D4D4B",
"G  c #4D504D",
"H  c #4B5353",
"J  c #4F5758",
"K  c #535554",
"L  c #555C5C",
"P  c #5A5D5B",
"I  c #7F6452",
"U  c #834C2F",
"Y  c #844D30",
"T  c #884F30",
"R  c #855034",
"E  c #8A5132",
"W  c #86543A",
"Q  c #8A563A",
"!  c #8D593E",
"~  c #905637",
"^  c #945F41",
"/  c #7D8682",
"(  c #7E8885",
")  c #848D8A",
"_  c #86918D",
"`  c #88928E",
"'  c #8A9593",
"]  c #929C97",
"[  c #929E9A",
"{  c #95A19C",
"}  c #99A19E",
"|  c #98A4A0",
" . c #9EAAA6",
".. c #A3AEAB",
"X. c #A6B2AE",
"o. c #A9B2AF",
"O. c #ACB5B3",
"+. c #B1BAB7",
"@. c #B3BCB9",
"#. c #B6C1BD",
"$. c #B9C2BF",
"%. c #B9C3C0",
"&. c #BFC8C5",
"*. c #C1CAC7",
"=. c #C2CBC8",
/* pixels */
"  . . . . . . . . . . . O & * @ . . . . . .   . . . . .   . .   ",
"  r U C C C C C A C C A U Y A C C C C C C A A C C A C C A Y i   ",
"  d Y d d d f f d d f d d d d f d d f k d d f k f k d k d T t   ",
"  d V 4 e e w q e w u w u w u u w e e q u w u w u w u y 4 B d   ",
"  d C 5 l b b b z z z z z z z z z z z z z z z z z z m l 5 C s   ",
"  t V 5 k M C V U C C C U U U U U U U V U V U C V U B l 5 C s   ",
"  d C 5 l V T T U U Y T B z l z x c l C T U U T U T V k 5 C s   ",
"  t C 5 k V R U U U Y Y k 2 5 w w w 5 k U U U Y U T N k 5 C t   ",
"  s V 5 t V T U U T E e p c E ~ E E M i i E T Y U U B k 5 U s   ",
"  d V 5 l V T U T V s t c V ; ; ; ; B M s s B E U Y B k 5 B d   ",
"  d V 5 l V T U C l w b M d 9 9 7 6 h M c e x B T Y N k 5 B s   ",
"  s C 3 k V T T t e b E 1 % $.*.@.{ $ 3 E z w s T U V k 5 A s   ",
"  d C 5 k V T T s p T # K ..} } } [ _ S # Y i s T U V k 2 U s   ",
"  t C 5 k N U E p i E   J #.[ [ [ [ X.D   E i s E T V k 5 C d   ",
"  f V 5 k V R C p s E . D | [ { [ [ ..D + E s s U U N k 5 C s   ",
"  s V 5 k C C 5 s B Q   D ..[ { [ ] ..S   Q N t 5 C V k 2 A f o ",
"  t V 5 f V C 5 m c > P ( | { { { [ | ( L > c c 5 U V k 5 Y n $ ",
"  d V 5 l V C 5 B d   '  .[ { [ { { [  ._   l B 2 U N k 2 A x O ",
"  d C 5 k V C 5 B x   ( | [ { { { { { | /   l B 5 U V k 5 C d   ",
"  t C 5 k C U 5 B l   ( | ] [ [ [ [ [ | (   x B 5 C V k 5 C p   ",
"  s V 5 k V C 5 B x   ( ..X.o.....X...../   l B 5 U N k 5 C s   ",
"  t V 5 k V U 5 B k   ) O.@.@.@.@.@.@.O.)   l B 5 U V k 5 C s   ",
"  t C 5 k V C 5 B x   } %.+.+.@.@.@.@.$.}   l B 5 U V k 5 C s   ",
"  d C 5 k V U 5 B l   | %.+.+.@.@.@.@.%.[   x Z 5 U V k 2 C s   ",
"  d C 5 k V C 5 V l   } $.+.@.@.@.@.@.#.|   z B 5 Y B k 5 C d   ",
"  t C 5 k V U 5 B l   | $.@.@.@.@.@.@.%.[   x B 5 Y V k 5 C s   ",
"  t C 5 k V C 5 B l   } $.+.@.@.@.@.@.#.}   x B 2 C V k 5 C s   ",
"  t A 5 k C C 5 B l   } %.+.+.@.@.@.@.$.[   x B 5 U V k 5 B d   ",
"  t A 5 f V C 5 B x   | %.@.@.@.@.@.+.%.[   l B w U B k 2 U s   ",
"  f C 5 b C C 5 B l   | @.@.@.@.@.@.@.#.[ . l B 2 U V d 2 C d   ",
"  t C 5 + 3 V 5 B l   ' @.@.@.@.@.+.@.@.'   z B 2 U V k 5 C s   ",
"  d V : 0 8 3 5 m x < G ` $.@.@.@.+.@.` F 2 z c w U V k 5 U s   ",
"  k c   ] L   e s M ~   K =.@.#.#.+.&.H   ~ c d w U V k 5 C s   ",
"  t c   ' L   U s p E . L =.@.@.@.@.&.L . E p p U U B k 5 B d   ",
"  f z   I v . R s i E   J $.@.#.@.+.%.H   ~ p p T U V k 5 C s   ",
"  t M   N q   T s i U ; F ` O.O.O.X.( j ; U i s T U V k 5 C t   ",
"  k b   C r   T p e b ^ e % { { | [ $ q Q z r p T T V k 5 C s   ",
"  t B , @ < k U A Z a m B l = = = = x c c 5 z C T U N k 5 C d   ",
"  d C 5 > r C R R R n t z V 1 2 1 2 V z s d C T U U B k 5 C s   ",
"  d C 5 b C E ! Q U R i p z T E T T z i r E U U T R N k 5 C s   ",
"  t V 5 f B Q ! ! Y Y Y l 4 5 5 w 5 4 l Y U Y U U Y N k 2 C s   ",
"  d V 5 k N R Q E E Y E A M m c m c m A E T T Y T T V k 5 C d   ",
"  d C 5 k V U M M m M c M B E T T T V M m M M m c T c k 2 C s   ",
"  t C 5 k C C 5 5 5 w 5 4 u Y U U U w 5 5 5 5 5 2 U U k w C s   ",
"  t C 5 k V C q d z k z p e U T U U u s c l l d 5 U V k 5 C s   ",
"  t B 5 k V C 5 d M B z p e T U Y U u s M V c d w C V k 5 C s   ",
"  t C 5 k C C e d M T M p e U U U U u p M Y N d w U V k 5 C s   ",
"  f C 5 k C C 5 d M Y c p i E U U U e p M U M d w U V k 2 C d   ",
"  t C 5 k V C 5 d V U b s e Y U U U i s b U B d w U V k 5 U p   ",
"  t C 5 k V C q s B T b t e Y U U U u p M U M t w C V k 2 C d X ",
"  f C 5 k V C 5 t B U M s e Y U U U w t M U M d 5 U V k 5 C d o ",
"  s V 5 l C C e d V U M p e Y U Y U u p M U B d w C V k 2 W h o ",
"  t C 5 t V A 5 d M T z p e Y Y T U i p z Y z d 5 U B f y W f X ",
"  t C 5 l V C e d N T M p e Y U U U u p N T N d w U C x a W s   ",
"  f C 5 l V C 5 d M U c p e Y U U U e p c T V s 2 Y A x 5 A p   ",
"  t C 5 k V C q d M V z s e T U T U w t M M c d i Y A x 5 C d   ",
"  d C 5 k V C y s d p d e w T U U U e i d p d h a W V k 5 C s   ",
"  d V 5 k V C u y w w w w i Y U U U i w w w u a g Q N k 5 C s   ",
"  d C 5 k V T Y Y U Y U U U Y Y U Y U U Y U U Y Y E V k 5 C d   ",
"  r b 5 l M B V B B B B B V B V B B B B B V c N B B M k w c r   ",
"  q l 5 d k k d k k k t d k k d k d k k k d k d k d l d 5 l q   ",
"  e k 5 5 5 5 5 5 5 5 5 5 5 5 5 5 5 5 5 5 5 5 5 5 5 5 5 5 l q   ",
"  r V l l z z z c z z z z z z z l c z z z z x z z z z z l B r   ",
"  - q 3 3 3 3 3 3 3 3 3 2 3 q 1 3 3 3 3 3 3 3 3 3 3 3 3 3 3 -   ",
". X       X     X     X   X   X X     X     X   X     X     X X "
};
