/* XPM */
static char *result[] = {
/* columns rows colors chars-per-pixel */
"32 32 151 2 ",
"   c #642820",
".  c #612D2A",
"X  c #733226",
"o  c #7A3524",
"O  c #79382C",
"+  c #633231",
"@  c #6E4547",
"#  c #7B4A44",
"$  c #795254",
"%  c #5B5665",
"&  c #57506A",
"*  c #5B536F",
"=  c #5F5972",
"-  c #665566",
";  c #695969",
":  c #725562",
">  c #755A64",
",  c #7A5C66",
"<  c #655E73",
"1  c #7C6369",
"2  c #646273",
"3  c #686677",
"4  c #666279",
"5  c #6B657B",
"6  c #803620",
"7  c #813D2C",
"8  c #8C442D",
"9  c #924327",
"0  c #9A4A2F",
"q  c #844335",
"w  c #944A30",
"e  c #A05336",
"r  c #AB5433",
"t  c #A05A3C",
"y  c #AA5F3D",
"u  c #B35633",
"i  c #B15C31",
"p  c #AE613E",
"a  c #BE6637",
"s  c #B4663E",
"d  c #BB643C",
"f  c #BD693F",
"g  c #C96836",
"h  c #C06639",
"j  c #C16A3E",
"k  c #CB6E3E",
"l  c #824D46",
"z  c #8F5949",
"x  c #955443",
"c  c #9B5742",
"v  c #9C5944",
"b  c #94594A",
"n  c #9F5C4A",
"m  c #8B5753",
"M  c #875954",
"N  c #8C5C56",
"B  c #8E5D58",
"V  c #915F56",
"C  c #905F59",
"Z  c #A15C44",
"A  c #AA5F42",
"S  c #916058",
"D  c #A56347",
"F  c #AC6244",
"G  c #A2624C",
"H  c #B46443",
"J  c #B56844",
"K  c #BC6C43",
"L  c #B66A49",
"P  c #BD6D49",
"I  c #BF714C",
"U  c #825F65",
"Y  c #815F68",
"T  c #846065",
"R  c #83636A",
"E  c #C26D43",
"W  c #C06F49",
"Q  c #C47346",
"!  c #CC7444",
"~  c #CE7A47",
"^  c #C5744A",
"/  c #C9774A",
"(  c #CC7A4C",
")  c #D87A46",
"_  c #D27C4B",
"`  c #C57651",
"'  c #CB7C51",
"]  c #CF824F",
"[  c #D5814C",
"{  c #DB864E",
"}  c #CF8151",
"|  c #D28453",
" . c #D78956",
".. c #DA8B55",
"X. c #DD915A",
"o. c #6E6A82",
"O. c #736D83",
"+. c #757082",
"@. c #74718B",
"#. c #7A758B",
"$. c #7C798C",
"%. c #757593",
"&. c #7D7B95",
"*. c #7C7D98",
"=. c #8B7A8E",
"-. c #827D94",
";. c #7D809B",
":. c #88848E",
">. c #848096",
",. c #8A8294",
"<. c #86849B",
"1. c #8A859B",
"2. c #8B899D",
"3. c #90879D",
"4. c #9A8D9A",
"5. c #9F929D",
"6. c #8486A1",
"7. c #8489A2",
"8. c #8C8CA2",
"9. c #918DA4",
"0. c #8E92A2",
"q. c #8E92AB",
"w. c #9291A5",
"e. c #9896A7",
"r. c #9395A9",
"t. c #9894AA",
"y. c #9699AB",
"u. c #9999AE",
"i. c #959BB2",
"p. c #9A9EB1",
"a. c #A295A0",
"s. c #A699A4",
"d. c #AD9FAA",
"f. c #9CA1B5",
"g. c #9DA5BA",
"h. c #AFA1AE",
"j. c #A0A3B6",
"k. c #A2A3B8",
"l. c #A4ABBD",
"z. c #A8AABD",
"x. c #B6A8B4",
"c. c #BBADB9",
"v. c #A6ADC1",
"b. c #ABAEC2",
"n. c #B9AFC0",
"m. c #ABB1C6",
"M. c #B1B0C4",
"N. c #B3B5C9",
"B. c #BEBBCE",
"V. c #C1BECF",
"C. c None",
/* pixels */
"C.C.C.C.C.C.C.C.C.C.C.C.C.C.C.C.C.C.C.C.C.C.C.C.C.C.C.C.C.C.C.C.",
"C.C.C.C.C.C.C.C.C.C.C.C.C.C.C.C.C.C.C.C.C.C.C.C.C.C.C.C.C.C.C.C.",
"C.C.C.C.C.C.C.C.C.C.C.C.C.C.C.C.C.C.C.C.C.C.C.C.C.C.C.C.C.C.C.C.",
"C.C.C.C.C.C.C.C.C.C.C.C.C.C.C.C.C.C.C.C.C.C.C.C.C.C.C.C.C.C.C.C.",
"C.C.C.C.C.C.C.C.C.C.C.C.w.N.m.l.m.l.p.;.C.C.C.C.C.C.C.C.C.C.C.C.",
"C.C.C.C.C.C.C.C.C.C.y.m.l.l.f.f.y.y.u.g.j.5 C.C.C.C.C.C.C.C.C.C.",
"C.C.C.C.C.C.C.C.C.l.g.f.f.g.f.y.f.g.l.w.3.w.1.C.C.C.C.C.C.C.C.C.",
"C.C.C.C.C.C.C.C.m.f.y.e.f.2.1 # @ > 2.f.w.3.w.1.C.C.C.C.C.C.C.C.",
"C.C.C.C.C.C.C.f.l.j.e.u.R 7 w 8 O X . ; r.u.8.1.2 C.C.C.C.C.C.C.",
"C.C.C.C.C.C.C.m.z.M.g.1 6 s f p x b q   - w.8.-.2.C.C.C.C.C.C.C.",
"C.C.C.C.C.C.8.g.k.v.,.o p ] s p v c v x + &.k.t.u.3 C.C.C.C.C.C.",
"C.C.C.C.C.#.1.<.2.w.=.w f ] f p v Z G Z l 9.9.6.-.-.% C.C.C.C.C.",
"C.C.C.C.C.C.5 o.#.q.$ i K ] Q p Z G Z Z 0 : -.< * & C.C.C.C.C.C.",
"C.C.C.C.C.C.3 &.0.i.M a K } K s F Z Z L u : q.<.@.= C.C.C.C.C.C.",
"C.C.C.C.C.C.@.>.r.q.N a f [ ^ J W A H E r : 9.<.<.$.C.C.C.C.C.C.",
"C.C.C.C.C.C.<.8.r.7.N f K | ( J A W W H e , 6.-.<.-.C.C.C.C.C.C.",
"C.C.C.C.C.C.8.w.0.7.S z G  .^ J A W H A J Y &.#.-.#.C.C.C.C.C.C.",
"C.C.C.C.C.C.9.9.8.<.B # z ..! K W F F ` E , %.-.-.5 C.C.C.C.C.C.",
"C.C.C.C.C.C.y.8.w.8.N t D  .! K L W ` ` H : &.-.-.+.C.C.C.C.C.C.",
"C.C.C.C.C.C.8.<.8.6.B K ^  .! f L ` ` L H Y &.#.-.#.C.C.C.C.C.C.",
"C.C.C.C.C.C.>.1.1.6.B ~ (  ._ f ' W L W k Y &.#.-.O.C.C.C.C.C.C.",
"C.C.C.C.C.C.8.8.2.7.C ~ | ..[ K / W / _ E Y &.#.$.O.C.C.C.C.C.C.",
"C.C.C.C.C.C.9.-.1.<.S _ | ..) E P ( _ ^ h U -.=.#.o.C.C.C.C.C.C.",
"C.C.C.C.C.C.1.-.>.;.B _  .X.[ E ' / W / k U &.#.#.< C.C.C.C.C.C.",
"C.C.C.C.C.C.>.-.-.&.N g ^ X.{ j ( ^ _ ) g Y @.< O.< C.C.C.C.C.C.",
"C.C.C.C.C.C.-.&.&.*.m i H ( { Q ^ ^ ! ! f R O.5 #.5 C.C.C.C.C.C.",
"C.C.C.C.:.V.V.V.B.B.n.c.x.h.d.s.a.5.4.4.4.3.8.2.8.-.1.C.C.C.C.C.",
"C.C.C.C.C.C.C.C.C.C.C.C.C.C.C.C.C.C.C.C.C.C.C.C.C.C.C.C.C.C.C.C.",
"C.C.C.C.C.C.C.C.C.C.C.C.C.C.C.C.C.C.C.C.C.C.C.C.C.C.C.C.C.C.C.C.",
"C.C.C.C.C.C.C.C.C.C.C.C.C.C.C.C.C.C.C.C.C.C.C.C.C.C.C.C.C.C.C.C.",
"C.C.C.C.C.C.C.C.C.C.C.C.C.C.C.C.C.C.C.C.C.C.C.C.C.C.C.C.C.C.C.C.",
"C.C.C.C.C.C.C.C.C.C.C.C.C.C.C.C.C.C.C.C.C.C.C.C.C.C.C.C.C.C.C.C."
};
