/* XPM */
static char *result[] = {
/* columns rows colors chars-per-pixel */
"32 32 56 1 ",
"  c #020101",
". c #090606",
"X c #0E0A09",
"o c #120D0C",
"O c #1B130F",
"+ c #1C1512",
"@ c #1F1813",
"# c #201713",
"$ c #231B15",
"% c #281C17",
"& c #271E1A",
"* c #281E19",
"= c #292017",
"- c #2D221C",
"; c #32251E",
": c #39281F",
"> c #2F2520",
", c #342621",
"< c #352A23",
"1 c #3C2C25",
"2 c #3D2F28",
"3 c #3E3027",
"4 c #3E3128",
"5 c #402F27",
"6 c #412F28",
"7 c #423127",
"8 c #44332A",
"9 c #49362C",
"0 c #4C392E",
"q c #503D2F",
"w c #4C3B32",
"e c #533E33",
"r c #544134",
"t c #5B4436",
"y c #5B463C",
"u c #634B3C",
"i c #5E4A41",
"p c #624C42",
"a c #694F41",
"s c #675146",
"d c #6C5344",
"f c #6C5449",
"g c #725645",
"h c #705846",
"j c #71574A",
"k c #745A4A",
"l c #7A5C4B",
"z c #7D6150",
"x c #826652",
"c c #876855",
"v c #866959",
"b c #92705A",
"n c #9D755C",
"m c #A0775E",
"M c #A17B61",
"N c None",
/* pixels */
"NNNNNNNNNNNNNNNNNNNNNNNNNNNNNNNN",
"NNNNNNNNNNNNNNNNNNNNNNNNNNNNNNNN",
"NNNNNNNNNNNNNNNN4NNNNNNNNNNNNNNN",
"NNNNNNNNNNNNNNNN9NNNNNNNNNNNNNNN",
"NNNNNNNNNNNNNNNNwNNNNNNNNNNNNNNN",
"NNNNNNNNNNNNNNNNwNNNNNNNNNNNNNNN",
"NNNNNNNNNNNNNNNNrNNNNNNNNNNNNNNN",
"NNNNNNNNNNNNNNNNyNNNNNNNNNNNNNNN",
"NNNNNNNNNNNNNNNNuNNNNNNNNNNNNNNN",
"NNNNNNNNNNNNNNNNsNNNNNNNNNNNNNNN",
"NNNNNN;NNNNNNNNNdNNNNNNNN:NNNNNN",
"NNNNNNNNNNNNNNNNdNNNNNNNN7NNNNNN",
"NNNNNNNeNNNNNNNadNNNNNNNeNNNNNNN",
"NNNNNNNN0NNNNNNdhNNNNNNNrNNNNNNN",
"NNNNNNNNeNNNNNNkdNNNNNNeNNNNNNNN",
"NNNNNNNNr9NNNNNzyNNNNN1rNNNNNNNN",
"NNNNNNNNNuNNNNNctNNNNNtNNNNNNNNN",
"NN8NNNNNNd0NNkect8kNN7dNNNNNN9NN",
"NNN0tNNNNu9+0r7bu1rw%:uNNNNNeNNN",
"NNNNtuNNNe%#+N:mu<NN+%0NNNNuNNNN",
"NNNNNurNtNN-NN0ne1NN%NNy78aNNNNN",
"NNNNNNdqNNNNNNgm85NNNNNN8dNNNNNN",
"NNNNNN9ht$%=*$ed;*#**%$9l0NNNNNN",
"NNNNNw90s8-NNN><;;NNN,1sy7rNNNNN",
"NNwvfppiiyiyyiissspyyyyiippjvwNN",
"N7hzr81<-->>>,289981<<<<128txj2N",
"N2p9o.o    XONX.ooNoX    o.o9p1N",
"NN-76$&$3$@N&N&w$@N+N+&1#-$67-NN",
"NN>&ee>NN4;%$<N;$>4&#,2NN2we&-NN",
"NN2+9wNNNN8NO-rerw;$28NNNNw4+6NN",
"NN2+w<NNNNNtr:-qq;<rrNNNNN19#7NN",
"NN2+e@NNNNNNN=ueuu;NNNNNNN$e@1NN"
};
