/* XPM */
static char *result[] = {
/* columns rows colors chars-per-pixel */
"32 32 122 2 ",
"   c black",
".  c #000001",
"X  c #010001",
"o  c #010101",
"O  c #020202",
"+  c #040304",
"@  c #040305",
"#  c #050305",
"$  c #050307",
"%  c #040406",
"&  c #040407",
"*  c #050407",
"=  c #050507",
"-  c #060507",
";  c #060508",
":  c #090909",
">  c #08080A",
",  c #0B0B0B",
"<  c #09080D",
"1  c #0A080D",
"2  c #0A090F",
"3  c #0B090F",
"4  c #0E0E0E",
"5  c gray6",
"6  c #0B0911",
"7  c #0C0911",
"8  c #0C0A10",
"9  c #0C0912",
"0  c #0D0C11",
"q  c #0F0D15",
"w  c #100D15",
"e  c #100D16",
"r  c #100E16",
"t  c #110E18",
"y  c #101010",
"u  c #111111",
"i  c #121211",
"p  c gray7",
"a  c #131313",
"s  c #121117",
"d  c #141316",
"f  c #151515",
"g  c #151517",
"h  c #161616",
"j  c gray9",
"k  c #13101B",
"l  c #14111B",
"z  c #161418",
"x  c #161518",
"c  c #14121C",
"v  c #15121C",
"b  c #15131D",
"n  c #16131E",
"m  c gray12",
"M  c #211F25",
"N  c #222222",
"B  c #232323",
"V  c gray14",
"C  c #252525",
"Z  c gray15",
"A  c #272729",
"S  c #2D253F",
"D  c gray20",
"F  c #3E3E3E",
"G  c #2D2640",
"H  c #2E2640",
"J  c #2F2842",
"K  c #322A44",
"L  c #332A45",
"P  c #322B45",
"I  c #332B46",
"U  c #332C46",
"Y  c #342C47",
"T  c #342C48",
"R  c #352D49",
"E  c #362E49",
"W  c #372F4B",
"Q  c #372F4C",
"!  c #382F4C",
"~  c #38304D",
"^  c #39304E",
"/  c #39314E",
"(  c #3A304F",
")  c #3A314F",
"_  c #3B3150",
"`  c #3F3656",
"'  c #544D68",
"]  c #564E6A",
"[  c #CBCBCB",
"{  c #CDCDCD",
"}  c gray81",
"|  c #D8D8D8",
" . c gray86",
".. c gainsboro",
"X. c #DDDDDC",
"o. c #DDDDDD",
"O. c #DEDEDD",
"+. c gray87",
"@. c #DFDFDF",
"#. c gray88",
"$. c #E2E2E1",
"%. c #E2E2E2",
"&. c #E4E4E4",
"*. c #EAEAEA",
"=. c gray92",
"-. c #ECECEB",
";. c #ECECEC",
":. c gray93",
">. c #EEEEEE",
",. c #EFEFEF",
"<. c #F0F0EF",
"1. c #F1F1F0",
"2. c #F0F0F1",
"3. c #F1F1F1",
"4. c gray95",
"5. c #F4F3F4",
"6. c #F4F4F4",
"7. c gray96",
"8. c #FDFDFD",
"9. c #FEFEFE",
"0. c white",
"q. c None",
/* pixels */
"q.q.q.q.q.q.q.q.q.q.q.q.q.q.q.q.q.q.q.q.q.q.q.q.q.q.q.q.q.q.q.q.",
"q.q.q.q.q.q.q.q.q.q.q.q.q.  q.q.q.q.  q.q.q.q.q.q.q.q.q.q.q.q.q.",
"q.q.q.q.q.q.q.q.q.q.q.q.5 O   q.q.  O 5 q.q.q.q.q.q.q.q.q.q.q.q.",
"q.q.q.q.q.q.q.q.q.q.q.f { h q.q.q.q.h { f q.q.q.q.q.q.q.q.q.q.q.",
"q.q.q.q.q.q.q.q.q.q.q.h #.h q.q.q.q.h #.h q.q.q.q.q.q.q.q.q.q.q.",
"q.q.q.q.q.q.q.q.q.q.q.h  .h q.q.q.q.j  .h q.q.q.q.q.q.q.q.q.q.q.",
"q.q.q.q.q.q.q.q.q.q.q.j ..j q.q.q.q.p ..h q.q.q.q.q.q.q.q.q.q.q.",
"q.q.q.q.q.q.q.q.q.q.q.p  .p q.q.q.q.C o.h q.q.q.q.q.q.q.q.q.q.q.",
"q.q.q.q.q.q.q.q.q.q.q.C +.Z u a u m &.6.5 4 q.q.q.q.q.q.q.q.q.q.",
"q.q.q.q.q.q.q.q.q.q.y @.8.>.>.>.>.>.0.| D [ f q.q.q.q.q.q.q.q.q.",
"q.q.q.q.q.q.q.q.q.q.u 3.0.0.0.0.0.0.*.F %.7.u q.q.q.q.q.q.q.q.q.",
"q.q.q.q.q.q.q.q.q.q.u 3.0.8.9.9.0.0.0.;.0.>.u q.q.q.q.q.q.q.q.q.",
"q.q.q.q.q.q.q.q.q.q.y +.,.8.0.9.,.>.,.0.9.>.u q.q.q.q.q.q.q.q.q.",
"q.q.q.q.q.q.q.q.q.q.O u N :.0.:.V a V ;.0.;.u q.q.q.q.q.q.q.q.q.",
"q.q.q.q.q.q.q.q.q.q.    : =.0.=.,   , =.0.=.u q.q.q.q.q.q.q.q.q.",
"q.q.q.q.q.q.q.q.q.q.O f N ;.9.;.B u B ;.9.2.u q.q.q.q.q.q.q.q.q.",
"q.q.q.q.q.q.q.q.q.q.5 } 4.0.0.0.6.4.5.0.0.X.y q.q.q.q.q.q.q.q.q.",
"q.q.q.q.q.q.q.q.q.q.q.B $.>.-.>.1.4.<.>.O.A q.q.q.q.q.q.q.q.q.q.",
"q.q.q.q.q.q.q.q.q.q.q.q.d u x u g y z i M ] > q.q.q.q.q.q.q.q.q.",
"q.q.q.q.q.q.q.q.q.q.q.; J 6 G 7 H 9 S w ' s q.q.q.q.q.q.q.q.q.q.",
"q.q.q.q.q.q.q.q.q.q.q.o q W b Y n T n E 0 q.q.q.q.q.q.q.q.q.q.q.",
"q.q.q.q.q.q.q.q.q.q.q.; ~ r P v K c U e & q.q.q.q.q.q.q.q.q.q.q.",
"q.q.q.q.q.q.q.q.q.q.q.- _ @ < Y c L l Q ( # q.q.q.q.q.q.q.q.q.q.",
"q.q.q.q.q.q.q.q.q.q.q.. % .   2 Y k I t 8 o q.q.q.q.q.q.q.q.q.q.",
"q.q.q.q.q.q.q.q.q.q.q.          3 / l W ! @ q.q.q.q.q.q.q.q.q.q.",
"q.q.q.q.q.q.q.q.q.q.q.X ; X     + ` ) w 8 o q.q.q.q.q.q.q.q.q.q.",
"q.q.q.q.q.q.q.q.q.q.q.$ R *     X % 1 ^ ~ @ q.q.q.q.q.q.q.q.q.q.",
"q.q.q.q.q.q.q.q.q.q.q.q.= X           - - . q.q.q.q.q.q.q.q.q.q.",
"q.q.q.q.q.q.q.q.q.q.q.q.q.    q.q.    q.q.  q.q.q.q.q.q.q.q.q.q.",
"q.q.q.q.q.q.q.q.q.q.q.q.q.q.  q.q.  q.q.q.q.q.q.q.q.q.q.q.q.q.q.",
"q.q.q.q.q.q.q.q.q.q.q.q.q.q.q.q.q.q.q.q.q.q.q.q.q.q.q.q.q.q.q.q.",
"q.q.q.q.q.q.q.q.q.q.q.q.q.q.q.q.q.q.q.q.q.q.q.q.q.q.q.q.q.q.q.q."
};
