/* XPM */
static char *result[] = {
/* columns rows colors chars-per-pixel */
"32 32 175 2 ",
"   c #000101",
".  c #03060A",
"X  c #05090C",
"o  c #090B0A",
"O  c #0E100E",
"+  c #040A11",
"@  c #0B0F14",
"#  c #0D1215",
"$  c #04101E",
"%  c #0C131A",
"&  c #12161A",
"*  c #11191D",
"=  c #1A1C1C",
"-  c #131615",
";  c #061220",
":  c #0B1722",
">  c #131C23",
",  c #131D2C",
"<  c #1E2222",
"1  c #172429",
"2  c #1A242C",
"3  c #1E2A2F",
"4  c #1A2430",
"5  c #1C2A34",
"6  c #162232",
"7  c #232624",
"8  c #242825",
"9  c #2E322E",
"0  c #232E35",
"q  c #222F38",
"w  c #24333E",
"e  c #29353B",
"r  c #2C393D",
"t  c #323534",
"y  c #353A36",
"u  c #3D403D",
"i  c #1B2940",
"p  c #273440",
"a  c #2A3642",
"s  c #263844",
"d  c #2D3C44",
"f  c #2C3E4A",
"g  c #343D42",
"h  c #303E4D",
"j  c #374547",
"k  c #3C4443",
"l  c #34444D",
"z  c #3B454A",
"x  c #3A494D",
"c  c #344652",
"v  c #364A56",
"b  c #3D4B53",
"n  c #364C58",
"m  c #3C4E5C",
"M  c #3D5362",
"N  c #454947",
"B  c #444B4C",
"V  c #494E48",
"C  c #49514E",
"Z  c #4D5353",
"A  c #455359",
"S  c #515B5B",
"D  c #58625D",
"F  c #435562",
"G  c #405866",
"H  c #455D6D",
"J  c #485D6F",
"K  c #505F60",
"L  c #465E71",
"P  c #495F73",
"I  c #4C616D",
"U  c #5E6364",
"Y  c #55646A",
"T  c #476171",
"R  c #4C6473",
"E  c #4E6779",
"W  c #4F6878",
"Q  c #526673",
"!  c #536975",
"~  c #596C73",
"^  c #546B7A",
"/  c #586D7B",
"(  c #5A727F",
")  c #666D6B",
"_  c #6A7066",
"`  c #6E7370",
"'  c #64787E",
"]  c #6E7978",
"[  c #66767C",
"{  c #737972",
"}  c #7C857D",
"|  c #5C6C81",
" . c #5D7481",
".. c #607681",
"X. c #637984",
"o. c #697E86",
"O. c #657D8B",
"+. c #6B828B",
"@. c #718084",
"#. c #72858C",
"$. c #6C8595",
"%. c #6F899B",
"&. c #678292",
"*. c #748B93",
"=. c #7A8F94",
"-. c #738E9C",
";. c #788F9B",
":. c #7D9195",
">. c #858C83",
",. c #848D89",
"<. c #849394",
"1. c #83969A",
"2. c #8C9A98",
"3. c #929E99",
"4. c #929A93",
"5. c #91A19F",
"6. c #99A19A",
"7. c #8096A1",
"8. c #8D9FA2",
"9. c #859CA6",
"0. c #8EA1A3",
"q. c #91A3A3",
"w. c #99A7A6",
"e. c #9FA9A2",
"r. c #99AAAD",
"t. c #92A6A9",
"y. c #99ACB1",
"u. c #9CB0B3",
"i. c #AAB0A4",
"p. c #B5BCAF",
"a. c #A3B6B4",
"s. c #A8B7B0",
"d. c #ADBAB3",
"f. c #ACBCB9",
"g. c #A3B7BA",
"h. c #B4BFB7",
"j. c #AFC0BB",
"k. c #B4C2BD",
"l. c #BBC3BB",
"z. c #C3C7B9",
"x. c #B6C6C2",
"c. c #BBCAC6",
"v. c #BDCECA",
"b. c #BED0CB",
"n. c #C4CEC3",
"m. c #C1CFC9",
"M. c #C3D3CB",
"N. c #CBD7CC",
"B. c #CCDACE",
"V. c #C6D1C4",
"C. c #CAD6D1",
"Z. c #CDDBD2",
"A. c #CEDED8",
"S. c #D2DED4",
"D. c #D4DFD9",
"F. c #D5E1D6",
"G. c #DCE5D5",
"H. c #D5E3DB",
"J. c #DBE4DA",
"K. c #DFEBDF",
"L. c #E1EADD",
"P. c #DDE7E0",
"I. c #DEECE2",
"U. c #E3EEE5",
"Y. c #E8EEE6",
"T. c #E9EFE8",
"R. c #E6F2E6",
"E. c #EDF4E4",
"W. c #E6F2E8",
"Q. c #ECF4E9",
"!. c #F5FAEC",
"~. c #FCFEED",
"^. c #ECFBF1",
"/. c #FDFFF3",
"(. c None",
/* pixels */
"(.(.(.(.(.(.(.(.(.(.(.(.(.(.(.(.(.(.(.(.(.(.(.(.(.(.(.(.(.(.(.(.",
"(.(.(.(.(.(.(.(.(.(.(.(.(.(.(.(.(.(.(.(.(.(.(.(.(.(.(.(.(.(.(.(.",
"(.(.(.(.(.(.(.(.(.(.(.(.(.(.(.(.(.(.(.(.(.(.(.(.(.(.(.(.(.(.(.(.",
"(.(.(.(.(.(.(.(.(.(.(.(.(.(.(.          (.(.(.(.(.(.(.(.(.(.(.(.",
"(.(.(.(.(.(.(.(.(.(.            t ` ) =     (.(.(.(.(.(.(.(.(.(.",
"(.(.(.(.(.(.(.(.  o 8 =     # >.J.Y.U.l.u     (.(.(.(.(.(.(.(.(.",
"(.(.(.(.(.(.(.  N i.L.z.V   N U.Q.T.Q.!.z.=   (.(.(.(.(.(.(.(.(.",
"(.(.(.(.(.(.o } E.~.~.~.V.y C D.C.C.D.J.U.K         (.(.(.(.(.(.",
"(.(.(.(.(.  { /.~.E.G.Z.m.Y K v.g.y.y.x.m.g . A S =   (.(.(.(.(.",
"(.(.(.(.  - n.~.G.N.x.k.g.^ F 9.;.O.%.y.o.+ ) A.J.r.,   (.(.(.(.",
"(.(.(.(.  < j.F.x.u.;.;.9.R 4 T | L H F , A C.I.T.^.o.  (.(.(.(.",
"(.(.(.(.  o <.M.t.$.$.-.O.5   & $ + > .   | x.k.C.W.m.2 (.(.(.(.",
"(.(.(.(.    e 1.-.$.-.L :       o _ p.>.& i O.+.f.H.H.j   (.(.(.",
"(.(.(.  O y & > I O.h 2 ) ,.Z . V U./.E.4., L O.;.c.M.j   (.(.(.",
"(.(.(.  } S.d.D % % % 6.!.~.N.e B L.E.E.F.C 4 O.*.g.t.2   (.(.(.",
"(.(.(.7 n.K.L.Z.B   k B.!.L.N.z p m.l.N.F.U   f J Q p     (.(.(.",
"(.(.(.< k.S.B.I.<.. r k.s.2.s.x w k.=.0.a.z   % A p       (.(.(.",
"(.(.(.% 2.j.f.l.j.j ; :.:.+.:.n 0 w.+.+.~ # . ] Z.k.y   (.(.(.(.",
"(.(.(.X ~ 0.0.8.r.I $ ~ +.~  .c * ' ( l .   & 5.E.E.2.. (.(.(.(.",
"(.(.(.  s ..X.o.:.+.5 r ! R R d . r 1 O t > X F 0.B.6.o (.(.(.(.",
"(.(.(.  . c ^ ^ ( ( 3 . l I T 5     y e.F.3.6 f ! #.z   (.(.(.(.",
"(.(.(.(.  X f T M *       2 1 .   A m.R.I.j.b n ! M :   (.(.(.(.",
"(.(.(.(.(.  . 1 o 9 ,.,.z .     3 a.Z.m.k.0.b n W s .   (.(.(.(.",
"(.(.(.(.(.      7 j.H.J.k.Q w   2 #.0.q.0.*.d 1 0 .   (.(.(.(.(.",
"(.(.(.(.(.(.    k n.M.k.f.0.o.0 . m ^ ! E E 5       (.(.(.(.(.(.",
"(.(.(.(.(.(.(.  # [ 1.1.:.*.o.I @ 4 T T T M @     (.(.(.(.(.(.(.",
"(.(.(.(.(.(.(.(.  2 Q ..( / / / 5   , w 5 %     (.(.(.(.(.(.(.(.",
"(.(.(.(.(.(.(.(.(.  > v I ! Q m %             (.(.(.(.(.(.(.(.(.",
"(.(.(.(.(.(.(.(.(.(.    @ > * X         (.(.(.(.(.(.(.(.(.(.(.(.",
"(.(.(.(.(.(.(.(.(.(.(.(.(.      (.(.(.(.(.(.(.(.(.(.(.(.(.(.(.(.",
"(.(.(.(.(.(.(.(.(.(.(.(.(.(.(.(.(.(.(.(.(.(.(.(.(.(.(.(.(.(.(.(.",
"(.(.(.(.(.(.(.(.(.(.(.(.(.(.(.(.(.(.(.(.(.(.(.(.(.(.(.(.(.(.(.(."
};
