/* XPM */
static char *_5842104d25e473fa166284562581618HgeGRn3KRRLD8eJr[] = {
/* columns rows colors chars-per-pixel */
"32 32 63 1 ",
"  c #09151F",
". c #091621",
"X c #0B1925",
"o c #0C1D2A",
"O c #0E202E",
"+ c #0E2333",
"@ c #0F2638",
"# c #0F293D",
"$ c #112535",
"% c #112738",
"& c #142A3B",
"* c #182D3E",
"= c #152E41",
"- c #182F41",
"; c #173044",
": c #1A3245",
"> c #1C354A",
", c #1D374C",
"< c #1C374D",
"1 c #1D384C",
"2 c #1F384C",
"3 c #1F394E",
"4 c #1F3A4F",
"5 c #1F3A51",
"6 c #21394C",
"7 c #20394D",
"8 c #203A4E",
"9 c #213A4F",
"0 c #213B50",
"q c #223C52",
"w c #243C51",
"e c #233E54",
"r c #253F54",
"t c #244056",
"y c #244057",
"u c #254057",
"i c #264156",
"p c #274157",
"a c #254259",
"s c #27435B",
"d c #27445B",
"f c #27445C",
"g c #28435A",
"h c #28445A",
"j c #2A465C",
"k c #29475F",
"l c #2B465E",
"z c #2B475E",
"x c #2A485F",
"c c #2B485F",
"v c #2A4760",
"b c #2B4961",
"n c #2C4A63",
"m c #2D4B63",
"M c #2E4B64",
"N c #2F4C66",
"B c #2F4E68",
"V c #304E67",
"C c #314F69",
"Z c #305069",
"A c #32516C",
"S c #32526C",
"D c #355570",
/* pixels */
"$$$$%$$&&+&&+:tn&2334c:=83m:&$$&",
"NrqnllMNbNNN&*uZ&2434c>%3qN>dhhV",
"fr%5q75q3qqm;:tN%;485c3&3tZ&;q7q",
"&*O+$++%+@+&++@;%>3q3f3;q3b*@$&$",
":nl>o$XX ..  .:q%;3>>c:&>3l>adbd",
"$uuNce::*::*o +:&%%++=*$$&&$2aaZ",
"+>7bNe03>:23:X3NZhqbbNdnZbwo$77C",
"O;0nla77>:>>>o@thi7taaqqnnn:$=3l",
"o&;5ncdlcccla&+<5q;2533337N:@o3Z",
"%:>;qdNuqZbNb6$>35333q333qa:#@qS",
"&qd75Mgz;qqedd@>3:<3333:23q3##&m",
"O%&&%55z@@&&&&+&&++&&&&%%%&==&$*",
"cdl>&3qm2hhw6lcu>dccuddbd>fllNcl",
"cal3+;:q%unh%uuc&3cuqdhcn+qf8aue",
"3>l3&:=:+:uu+3ub+:33333tN&<<3533",
"%+=&:>>7&2qu&3qm+>33333qc$=++&%&",
"7q>$XXoXO2ul$:3cO@=;%::;q:lq2uud",
"mcca::>OX%%:o#&:Oo.  oo o$tcbuql",
"2lalq33O*udhdaliq;&$$*%%XX>33377",
"+:tmdnn>o2lduhdZNdtfa26q:o@+@%;;",
":>wl5dbdo*78q33muZbqudqcN7$::2q2",
"ZzcN34bb$$6873qc;cNb;dNcdZq>cNtc",
"=:;3:&:u&+$*33qc$:tdO>q43u7+>:;:",
"XoXXXXOo&#+O2qqc$;td+2342u:XXooX",
"+o#$$o$.%*+=2;7l$>ql&3737bb3$O$O",
"3332>>>o%;+O$+$*%>uu+<733dNNq>7>",
">>>3262o*&$o&duq@:uc+>335dab33>7",
"Nalmlcu$9uq>+3nZ@=>u@>&;>3lmanll",
"7n7ddmmdtuduO;7d&&%***$&%&>qbbnZ",
"ZZ:uNmZZNbnn&=un:aVncN:qnln-dSSC",
"an;=u7qq3q7b*;tb@;wq7Z>&rqM%=euq",
"wZ&*37q7q7qM&:ql$>777l>%3qZ&=377"
};
