/* XPM */
static char *result[] = {
/* columns rows colors chars-per-pixel */
"32 32 239 2 ",
"   c #F6F6F6",
".  c gray96",
"X  c #F4F4F4",
"o  c gray97",
"O  c white",
"+  c gray98",
"@  c #F8F8F8",
"#  c #FDFDFD",
"$  c #B4B4B4",
"%  c #E6E6E6",
"&  c gray94",
"*  c gray93",
"=  c gray81",
"-  c #939393",
";  c #B2B2B2",
":  c #D0D0D0",
">  c #F9F9F9",
",  c LightGray",
"<  c #C3C3C3",
"1  c #A9A9A9",
"2  c #DFDFDF",
"3  c #EAEAEA",
"4  c #A5A5A5",
"5  c gray85",
"6  c #C8C8C8",
"7  c gray83",
"8  c #C6C6C6",
"9  c #F1F1F1",
"0  c gray88",
"q  c gray75",
"w  c #C5C5C5",
"e  c gray77",
"r  c gray90",
"t  c #CACACA",
"y  c gainsboro",
"u  c gray82",
"i  c #D7D7D7",
"p  c gray99",
"a  c gray79",
"s  c gray91",
"d  c gray86",
"f  c #BBBBBB",
"g  c #E7E7E7",
"h  c #CECECE",
"j  c gray",
"k  c gray92",
"l  c #A7A7A7",
"z  c #E4E4E4",
"x  c #DDDDDD",
"c  c gray78",
"v  c #EEEEEE",
"b  c #EFEFEF",
"n  c #FBFBFB",
"m  c #B7B6B6",
"M  c #E9E4E6",
"N  c #EDE7EA",
"B  c #FCF8FA",
"V  c #F7F6F6",
"C  c gray95",
"Z  c #B3B0B1",
"A  c #EBDFE6",
"S  c #E9DDE3",
"D  c #DFD7DB",
"F  c #EFECED",
"G  c gray76",
"H  c gray89",
"J  c #838283",
"K  c #827A7E",
"L  c #AFA5AA",
"P  c #1B1A1A",
"I  c #9E9C9D",
"U  c #F3F3F3",
"Y  c #AFAFAF",
"T  c #5A5359",
"R  c #726A70",
"E  c #3F3C3F",
"W  c #E1E2E1",
"Q  c #E4E5E4",
"!  c #554757",
"~  c #381D39",
"^  c #726974",
"/  c #EEEFEE",
"(  c #F7F6F7",
")  c #F5F4F5",
"_  c #FBFDFC",
"`  c #6A5963",
"'  c #2E1124",
"]  c #A4A2A3",
"[  c #EFEEEE",
"{  c #B1A8AA",
"}  c #3D1B27",
"|  c #3E2436",
" . c #462B35",
".. c #DEDEDD",
"X. c #EFEEEF",
"o. c #4E2C37",
"O. c #4A2A3C",
"+. c #482E42",
"@. c #5D2C3E",
"#. c #80686E",
"$. c #FAFFFE",
"%. c #F9F8F8",
"&. c #EEEDED",
"*. c #FCFDFD",
"=. c #DFDDDE",
"-. c #5D3F48",
";. c #532A3C",
":. c #3A283C",
">. c #4F2F46",
",. c #4F2B40",
"<. c #6E3748",
"1. c #A39094",
"2. c #E9EBEB",
"3. c #E0DFE0",
"4. c #C7C6C6",
"5. c #F8F7F8",
"6. c #EEF0EF",
"7. c #6B4C58",
"8. c #4E2233",
"9. c #4E3047",
"0. c #28192D",
"q. c #4F324C",
"w. c #5B4051",
"e. c #8C687A",
"r. c #744352",
"t. c #62454F",
"y. c #B3ADAE",
"u. c #EEF0F0",
"i. c #CDCDCD",
"p. c #6C686A",
"a. c #524D4F",
"s. c #CBCACB",
"d. c #FDFEFE",
"f. c #F4F3F3",
"g. c #9F9096",
"h. c #4F2536",
"j. c #634253",
"k. c #564058",
"l. c #594B5B",
"z. c #6B5B6E",
"x. c #654F62",
"c. c #4C2E42",
"v. c #6E3D57",
"b. c #633245",
"n. c #5A2E40",
"m. c #583843",
"M. c #736F70",
"N. c #C0BFC0",
"B. c #ECECEC",
"V. c #78606C",
"C. c #7D5B68",
"Z. c #755C6F",
"A. c #635266",
"S. c #463648",
"D. c #4A324D",
"F. c #462D49",
"G. c #4B2E42",
"H. c #5E3851",
"J. c #6B3A53",
"K. c #482134",
"L. c #4A2C3C",
"P. c #CFCDCD",
"I. c #F0F2F1",
"U. c #5A4E55",
"Y. c #22101A",
"T. c #170C1C",
"R. c #15071A",
"E. c #352038",
"W. c #351E38",
"Q. c #2B182E",
"!. c #1A0B1D",
"~. c #3B2132",
"^. c #5F4A59",
"/. c #4D4B50",
"(. c #C7C8C9",
"). c #FDFEFD",
"_. c #F1F2F1",
"`. c #D8D7D7",
"'. c #BAB5B8",
"]. c #B4ACB0",
"[. c #6C6972",
"{. c #888A8D",
"}. c #828184",
"|. c #342B35",
" X c #A29FA3",
".X c #939395",
"XX c #7C7C82",
"oX c #2B2B2D",
"OX c #9D9F9E",
"+X c #FEFEFE",
"@X c #C7C5C6",
"#X c #A9A2A6",
"$X c #A3999E",
"%X c #ABA2A7",
"&X c #B4AEB1",
"*X c #CDCBCC",
"=X c #FDFDFC",
"-X c #5C5D5B",
";X c #D4D5D4",
":X c #D2D2D1",
">X c #343434",
",X c #F5F6F5",
"<X c #D7D6D6",
"1X c #ACA9AB",
"2X c #9A9497",
"3X c #9D969A",
"4X c #B7B2B5",
"5X c #CDCCCD",
"6X c #F6F7F7",
"7X c #666566",
"8X c gray70",
"9X c #7B7B7B",
"0X c #6A6A6A",
"qX c #B5B4B5",
"wX c #928F91",
"eX c #949092",
"rX c #AFACAD",
"tX c #D3D2D2",
"yX c #ECEDEC",
"uX c #F9FAF9",
"iX c #9B9B9B",
"pX c gray73",
"aX c #4B4B4B",
"sX c gray56",
"dX c #8A898A",
"fX c #A5A4A5",
"gX c #D5D4D4",
"hX c #F9F8F9",
"jX c #989898",
"kX c gray72",
"lX c #AAAAAA",
"zX c #868686",
"xX c #A2A2A2",
"cX c gray61",
"vX c gray46",
"bX c #B6B6B6",
"nX c #C1C1C1",
"mX c #DADADA",
"MX c #E2E2E2",
/* pixels */
"    .     .         .     .     .     .       . X o O o + o . . ",
"                                            X @ # X $ % % & o   ",
"                                        . . # * = - ; : - @ .   ",
"                                      . o > , < 1 2 3 4 5 # X   ",
"                                    . o o 6 7 8 9 0 q w @ .     ",
"                                  .   o e r t 9 y 7 u i p X     ",
"                                  X p w r a s d = > f + .       ",
"                                X # = d g : h h O j s + .       ",
"                              . @ k j O l j z O x t # X         ",
"                              X O c 5 O , v O b f n .           ",
"                              . @ m M N B O + j v @ .           ",
"                              V C Z A S D F G H p X             ",
"                              X O J K L P I k + X               ",
"                              U O Y T R E W # U                 ",
"                              . @ Q ! ~ ^ / ( .                 ",
"                      .         ) _ ` ' ] O 9   .       . X .   ",
"                        . . X [ O { } |  ...p U     U b & C U X ",
"                    X U 9 C X.O < o.O.+.@.#.$.%.&.C 9 > O o C U ",
"                  C 9 X   X *.=.-.;.:.>.,.<.1.2.O V O 3.4.  C   ",
"                U C o   . 5.6.7.8.9.0.q.w.e.r.t.y.u.i.p.a.s.d.X ",
"                X 9 .   f.O g.h.j.k.l.z.x.c.v.b.n.m.M.= N.B.o . ",
"                  X 9 C U z V.C.Z.A.S.D.F.G.H.J.K.L.P.O # @ .   ",
"                  . X   # I.U.Y.T.R.E.W.Q.!.~.^./.(.O 9 X .     ",
"            . X X > )._.`.'.].[.{.}.|. X.XXXoXOXO + U           ",
"        . U   p +Xs @X#X$X%X&X*X=XO -X;XO O :X>Xs o .           ",
"    X U + O ,X<X1X2X3X4X5Xr 6X# & O 7X8XO k O 9X0XO C           ",
".   O O z qXwXeXrXtXyXuX).+ . X C O iXpXO U . + aXi # X         ",
"@   G sXdXfXgXC ).# hX. X .     C O jXkXO U C O lXzXO C         ",
"k xXiXi.. O # o X X .           C O cXf O U   .   vX* @ .       ",
"C C O O   U X .                 U O bXx n .   U O 4 nXO X       ",
"o o U X .                       . + mX* @ .   . + MX5 n X     . ",
".     .     .     .     .     .   . > o .       . > + .         "
};
