/* XPM */
static char *cafb0f008f7248c5cb871711c37c941bViWSBxlud3sjXQ2b[] = {
/* columns rows colors chars-per-pixel */
"32 32 10 1 ",
"  c #050B09",
". c #030E0A",
"X c #040D0A",
"o c #060C0A",
"O c #070D0B",
"+ c #050E0B",
"@ c #040F0B",
"# c #060F0C",
"$ c #080E0C",
"% c #07100D",
/* pixels */
".XXXXoooooooooooooooooOOXX.O@%%.",
".XXXXXooooooooooooo ooOOOX.@OOO@",
".XXXXoooooooooooooo ooOOO.XO@O%@",
".XXXXoooooooooooooo ooOOO.XO@@O@",
"XXXXXoooooooooooooo ooOOOXXXO%%@",
"XXXXXoooooooooooooo ooOO@XX@@OO@",
".XXXXoooooooooooooo oooOOXX@@%@@",
".XXXXoooooooooooooo oooo@XX@@%OO",
"%.XX oo     oooooo  o$$$@XXX##%#",
"..XX.oooo   oooo$o  $$$oXXX@##%#",
"XXXX.oo o   oooOoo  o$$$OXX@#%%#",
"%XXX oo oo  ooOO$o  $$$$@XXO#%%#",
"..XXXoo ooooooOOoo  $$$$@X@@#%%#",
"X.XXXoo ooooooOO$o  $$$XXXXO#%%#",
"%.XXXooooooooOOOoo  $$$$OXXO#%%#",
"..XXXoooXooooXO$$o  X$$X@XX##%%#",
"ooooooooooo ooo$o  o$$$$ooo$o$o$",
"ooooooooooo oo$oo  oo$$oo$$o$o$$",
"ooooooooooo ooo$o  o$$$$o$o$o$o$",
"ooooooooooo oo$oo  oo$$ooo$o$o$$",
"ooooooooooo ooo$o  oo$$$o$o$o$o$",
"ooooooooooo oo$oo  o$$$ooo$o$o$$",
"ooooooooooo ooo$o  oo$$$ooo$o$o$",
"ooooooooooo oo$oo  o$$$oo$$o$o$$",
"ooooo$o $o  oo$oo  oo$$$ooo$o$o$",
"oooo$oo oo  o$ooo  o$$$oo$$o$o$$",
"ooooo$o $o  o$ooo  oo$$$o$o$o$o$",
"oooo$oo oo  oo$oo  o$$$ooo$o$o$$",
"ooooo$o $o  o$ooo  o$$$$o$o$o$o$",
"oooo$oo oo  oo$oo  oo$$ooo$o$o$$",
"ooooo$o $o  oo$oo  o$$$$ooo$o$o$",
"oooo$oo oo  o$ooo  oo$$oo$$o$o$$"
};
