/* XPM */
static char *result[] = {
/* columns rows colors chars-per-pixel */
"32 32 118 2 ",
"   c #271D1B",
".  c #281E1C",
"X  c #2B211E",
"o  c #39251E",
"O  c #2E2423",
"+  c #312625",
"@  c #322927",
"#  c #3D2A23",
"$  c #352C2B",
"%  c #392F2D",
"&  c #39312F",
"*  c #373132",
"=  c #3C3332",
"-  c #3F3837",
";  c #3F3938",
":  c #532F1C",
">  c #56311D",
",  c #5A331D",
"<  c #61371F",
"1  c #62391F",
"2  c #402F2D",
"3  c #41302C",
"4  c #533424",
"5  c #5D3720",
"6  c #5E3A23",
"7  c #563C2E",
"8  c #593C2C",
"9  c #413634",
"0  c #413937",
"q  c #443D3B",
"w  c #4A3F3E",
"e  c #543E34",
"r  c #5B3F31",
"t  c #653D23",
"y  c #693F22",
"u  c #633F2B",
"i  c #46413E",
"p  c #49413F",
"a  c #5C4131",
"s  c #544139",
"d  c #5B463F",
"f  c #674027",
"g  c #6D4223",
"h  c #63422C",
"j  c #6C472F",
"k  c #724525",
"l  c #764926",
"z  c #7B4B27",
"x  c #714628",
"c  c #754929",
"v  c #7C4D29",
"b  c #7E512B",
"n  c #654530",
"m  c #6C4C35",
"M  c #654D3D",
"N  c #74533A",
"B  c #79563B",
"V  c #7B583C",
"C  c #443F40",
"Z  c #464142",
"A  c #4A4443",
"S  c #4E4946",
"D  c #4D4748",
"F  c #4E4A4A",
"G  c #514A46",
"H  c #5A4841",
"J  c #534C4B",
"K  c #56514E",
"L  c #5C514E",
"P  c #534F50",
"I  c #555252",
"U  c #5A5453",
"Y  c #5D5956",
"T  c #5B5759",
"R  c #5D5A5A",
"E  c #624E45",
"W  c #604D48",
"Q  c #645044",
"!  c #63524A",
"~  c #625551",
"^  c #655955",
"/  c #6B5C55",
"(  c #625D5D",
")  c #6B5F5A",
"_  c #705F55",
"`  c #64615F",
"'  c #6D625D",
"]  c #726156",
"[  c #5F5D61",
"{  c #645E60",
"}  c #626063",
"|  c #6B6563",
" . c #676669",
".. c #6A6669",
"X. c #6C6A6D",
"o. c #736762",
"O. c #736963",
"+. c #786B66",
"@. c #716C6C",
"#. c #6E6D70",
"$. c #706F73",
"%. c #6F7073",
"&. c #727276",
"*. c #7A7475",
"=. c #75767A",
"-. c #797678",
";. c #76797C",
":. c #7A7A7E",
">. c #83522B",
",. c #89562D",
"<. c #7C7D82",
"1. c #7D8084",
"2. c #818184",
"3. c #858689",
"4. c #898A8E",
"5. c #8B8E92",
"6. c #919295",
"7. c None",
/* pixels */
"7.7.7.7.7.7.7.7.7.7.7.7.7.& = 9 9 = 9 & % 7.7.7.7.7.7.7.7.7.7.7.",
"7.7.7.7.7.7.7.7.w J p q L K I U K K K G I p w 9 7.7.7.7.7.7.7.7.",
"7.7.7.7.7.7.= Y L ( G G K G J J K U G A Y J Y ^ A 9 7.7.7.7.7.7.",
"7.7.7.7.7.K J K G I A I S Z D G J A A A P G Y U K U w % 7.7.7.7.",
"7.7.7.0 p A U S J q * = $ $ * @ + + $ @ % - w Z Y J Y - & 7.7.7.",
"7.7.7.0 ( A A A $   . + $ = & $ $ % & % @     + A J J D U + 7.7.",
"7.7.S K - F - O O G *.3.4.5.3.-. .3.4.4.4.:.( $   - 0 Y A w 7.7.",
"7.7.; Y S & X % :.6.1.O.( ~ X.:.X.:.^ ^ | -.5.4.S   - p Y } = 7.",
"7.A Y - ; $ + <.3.W 4 : t : E <.#.@.: t > 4 e *.6.Z X G U w $ 7.",
"7.; R Y q O Y 5.H 1 l l >.k Q :.#.@.t ,.k v , 4 *.:.+ = A U F @ ",
"+ 0 q = - + :.@.5 >.>.l >.k ! ;.#.@.f ,.k b k k H 4.q & D Z % 7.",
"$ R } I q $ 2.! g >.>.z >.g ! <.#.@.t ,.k >.k v a 2.G * F I D @ ",
"O 0 A i % * 1.E z >.>.z >.y ! ;.#.$.t ,.k >.k v h ;.I % i J i O ",
"@ F ` I % * <.M l v v z >.y ! <.#.@.t ,.l >.g v 6 =.Y = I | U % ",
"O = Z S = * 1.` / _ _ _ ] ^ ..;.#.=.~ ] _ ] / ] ^ <.Y + 0 i i + ",
"O Z I F - = 1.} { { ( { { ( #.-. .;.R ( { ( ( } R <.I = K R I % ",
"O - q A $ * <.H , t t 5 t 5 U ;. .%.4 f , t , t 7 *.P @ q - = @ ",
"+ F R X.S * ;.Q l b >.l b g / %.{ $.h >.k >.l >.h =.J q ( R I $ ",
"+ = q q $ $ ;.Q l v >.l v k / %.[ &.h >.k >.g ,.n -.J @ q q = O ",
"% Y ` Y Z % ;.~ m N B N B m | #.[ -.M V m V m B Q :.F % J I K $ ",
"+ Z Z q * $ ;.X.%.X.X.X.X.X.-.#.T ;...#.#.X.X.$.X.<.F + q i i + ",
"$ J ( I - @ =.K 8 a a a r 7 ( #.T &.e r r r 7 r s =.F 0 ` R R & ",
"+ D I D * @ =.Q g z z k z g ) X.T &.h v y z g z h -.S $ i i ; + ",
"O 0 F U q @ &.E k v b l >.l ' X.P &.j >.g ,.k >.n ;.A 9 Y ` Y & ",
"$ D P P 0 + =.E x z v l >.c ' ..I $.j >.g >.k b n -.Z & D I I $ ",
"@ q C J q O =. .o.o.O...O...&...P =.| O.@.o.| o.} <.p + p S G = ",
"* F I F w + &.R ~ L L L L L X...P =.K L L W K ~ Y ;.Z % T T J = ",
"@ q ; C & + =.W 1 y y t g t ^ ..J $.u k t k y g 8 -.Z + w G C @ ",
"; R U I Z + &.E k l l k v x ) ..J $.u >.g >.c v a &.w % I ( P * ",
"$ Z w i = + =...' +.+.O.+.) $...J <.' o.O.+.O.O.) <.w + C Z G $ ",
"- I Y K 0 X | -.:.:.:.:.;.;.-.^ w *.-.<.:.:.:.:.;.=.- $ T I J $ ",
". O + O X . 7.7.7.7.7.7.7.7.7.2 o 2 2 2 7.7.7.7.7.7.7.O O O O X "
};
