/* XPM */
static char *result[] = {
/* columns rows colors chars-per-pixel */
"32 32 238 2 ",
"   c #14050A",
".  c #15050A",
"X  c #15060A",
"o  c #16060B",
"O  c #18080D",
"+  c #18090E",
"@  c #1B090E",
"#  c #1C090F",
"$  c #1D0A0F",
"%  c #1E0A10",
"&  c #1F1117",
"*  c #270F16",
"=  c #280F16",
"-  c #211116",
";  c #2A1218",
":  c #2C1319",
">  c #2E141A",
",  c #2F141B",
"<  c #31151C",
"1  c #271D24",
"2  c #2B1C21",
"3  c #311B22",
"4  c #371920",
"5  c #3B1B22",
"6  c #3B1B23",
"7  c #3C1C23",
"8  c #3D1C23",
"9  c #3F1F26",
"0  c #312227",
"q  c #352128",
"w  c #3A2128",
"e  c #2E2A31",
"r  c #302B33",
"t  c #312C33",
"y  c #38333B",
"u  c #38343C",
"i  c #3B363E",
"p  c #3C373F",
"a  c #401E26",
"s  c #401F26",
"d  c #432028",
"f  c #452129",
"g  c #46222A",
"h  c #47222A",
"j  c #48232B",
"k  c #4A242C",
"l  c #4C252D",
"z  c #4C252E",
"x  c #4D262E",
"c  c #4E262F",
"v  c #4F262F",
"b  c #4B2830",
"n  c #502730",
"m  c #512730",
"M  c #512831",
"N  c #522831",
"B  c #522932",
"V  c #532932",
"C  c #542932",
"Z  c #552B33",
"A  c #562A33",
"S  c #572B34",
"D  c #562C34",
"F  c #592B35",
"G  c #592D36",
"H  c #592D37",
"J  c #5B2F38",
"K  c #5D2F39",
"L  c #5E2F39",
"P  c #46383C",
"I  c #5F303A",
"U  c #61313B",
"Y  c #62323C",
"T  c #62333C",
"R  c #62333D",
"E  c #63333D",
"W  c #64333D",
"Q  c #64343E",
"!  c #66343E",
"~  c #66353F",
"^  c #3D3740",
"/  c #3C3840",
"(  c #3D3941",
")  c #3F3A42",
"_  c #413C44",
"`  c #423D45",
"'  c #453E45",
"]  c #443F47",
"[  c #463F46",
"{  c #683540",
"}  c #683640",
"|  c #6A3741",
" . c #6B3742",
".. c #693842",
"X. c #6F3A44",
"o. c #703944",
"O. c #703B45",
"+. c #713B46",
"@. c #723B46",
"#. c #713C46",
"$. c #733C47",
"%. c #753D48",
"&. c #773E49",
"*. c #773F4A",
"=. c #783F4A",
"-. c #464149",
";. c #4B434A",
":. c #48434C",
">. c #49444D",
",. c #4A454E",
"<. c #4D484E",
"1. c #4F4A52",
"2. c #524A51",
"3. c #504B53",
"4. c #524D56",
"5. c #534E57",
"6. c #544E57",
"7. c #564F56",
"8. c #554F58",
"9. c #565059",
"0. c #56515A",
"q. c #57515A",
"w. c #5D535A",
"e. c #59545D",
"r. c #79404B",
"t. c #7A414C",
"y. c #7B414C",
"u. c #62545A",
"i. c #65555A",
"p. c #60575E",
"a. c #665C62",
"s. c #665C63",
"d. c #605A64",
"f. c #615C65",
"g. c #635D66",
"h. c #695A60",
"j. c #6A5E61",
"k. c #685D64",
"l. c #705F64",
"z. c #6B6168",
"x. c #726066",
"c. c #756369",
"v. c #70646B",
"b. c #79666C",
"n. c #73696F",
"m. c #726D72",
"M. c #776C73",
"N. c #786D74",
"B. c #7B6F76",
"V. c #7C777C",
"C. c #7D787D",
"Z. c #81747B",
"A. c #83777B",
"S. c #82757C",
"D. c #83787E",
"F. c #877980",
"G. c #897D84",
"H. c #8A7D84",
"J. c #8E8188",
"K. c #92848B",
"L. c #968A90",
"P. c #938D92",
"I. c #9E8E95",
"U. c #9F9197",
"Y. c #9E9298",
"T. c #9C969A",
"R. c #A4989E",
"E. c #A69EA2",
"W. c #A89CA0",
"Q. c #A99CA2",
"!. c #AA9DA3",
"~. c #AC9EA5",
"^. c #ABA1A4",
"/. c #B0A1A7",
"(. c #B2A4AA",
"). c #B3A7AD",
"_. c #B4A7AC",
"`. c #B6A9AF",
"'. c #B5ABAE",
"]. c #B9ADB1",
"[. c #B9ACB2",
"{. c #B9B0B3",
"}. c #BFB6B9",
"|. c #BFB9BC",
" X c #C1B3B9",
".X c #C0B5B9",
"XX c #C4B8BD",
"oX c #C6B8BE",
"OX c #C7BABF",
"+X c #C9B9BF",
"@X c #CCB9C0",
"#X c #CCC0C5",
"$X c #CEC7CA",
"%X c #D2C0C7",
"&X c #D3C6CB",
"*X c #D0C8CB",
"=X c #D6C9CE",
"-X c #DACDD2",
";X c #D6D0D2",
":X c #DAD2D4",
">X c #DAD2D5",
",X c #DED1D6",
"<X c #DED2D6",
"1X c #E1D0D6",
"2X c #E2D6DA",
"3X c #E4D8DC",
"4X c #E7DBDF",
"5X c #E4DCDE",
"6X c #E6DFE2",
"7X c #E9DFE3",
"8X c #EADEE2",
"9X c #EDE0E5",
"0X c #ECE1E5",
"qX c #EEE7E9",
"wX c #EEE8EA",
"eX c #F1E4E8",
"rX c #F2E6EA",
"tX c #F0E9EB",
"yX c #F6ECEF",
"uX c #F8EDF1",
"iX c #F9F0F2",
"pX c #F8F0F3",
"aX c #FDF2F5",
"sX c #FCF3F6",
"dX c #FDF3F6",
"fX c #FBF5F7",
"gX c #FEF5F8",
"hX c #FFF5F8",
"jX c #FFF6F9",
"kX c #FFF7F9",
"lX c #FFF7FA",
"zX c #FFF8FA",
"xX c #FFF8FB",
"cX c #FFF9FB",
"vX c #FFFAFC",
"bX c #FFFCFE",
"nX c #FFFDFF",
"mX c None",
/* pixels */
"mXmXmXmXmXmXmXmXmXmXmXmXmXmXmXmXmXmXmXmXmXmX7.F.2.mXmXmXmXmXmXmX",
"mXmXmXmXmXmXmXmXmXmXmXmXmXmXmXmXmXmXmXmXm.E.+XI.mXmXmXv.' mXmXmX",
"mXmXmXmXmXmXmXmXmXmXmXmXmXmXmXmXmXmXmX|.7X1XK.mXmXmXJ.@Xk.mXmXmX",
"mXmXmXmXmXmXmXmXmXmXmXmXmXmXmXmXmXC.;XaX%XB.mXmXmXR.eX/.mXmXmXmX",
"mXmXmXmXmXmXmXmXmXmXmXmXmXmXmXmXP.6XsX XmXmXmXmX[.iXrXD.mXmXmXmX",
"mXmXmXmXmXmXmXmXmXmXmXmXmXmXmXV.tXvXOX;.mXmXn.#XgXjX_.mXmXmXmXmX",
"mXmXmXmXmXmXmXmXmXmXmXmXmXmX<.$XvX9XM.mXmXG.<XxXvX,Xs.mXmXmXmXmX",
"mXmXmXmXmXmXmXmXmXmXmXmXmXmXT.fXlX~.mXmXY.0XcXcXuXL.mXmXmXmXmXmX",
"mXmXmXmXmXmXmXmXmXmXmXmXmXa.2XvXkXU.[ `.yXcXzXzXoXmXmXmXmXmXmXmX",
"mXmXmXmXmXmXmXmXmXmXmXmXmX(.hXzXzX4X=XsXcXzXcX8XN.mXmXmXmXmXmXmX",
"mXmXmXmXmXmXmXmXmXmXmXmXp.-XbXzXcXnXnXcXzXzXdXQ.mXmXmXmXmXmXmXmX",
"mXmXmXmXmXmXmXmXmXmXmXmXH.3X>XzXqX'.}.pXcXlX&Xw.mXmXmXmXmXmXmXmX",
"mXmXmXmXmXmXmXmXmXmXmXmXS.i.P 5XA.+ - ^.jXXXz.mXmXmXmXmXmXmXmXmX",
"mXmXmXmXmXmXmXmXmXmXmXmXZ.l.0 :Xj.O 2 W.).mXmXmXmXmXmXmXmXmXmXmX",
"mXmXmXmXmXmXmXmXmXmXmXmXmX!..XwX*X{.].L.mXmXmXmXmXmXmXmXmXmXmXmX",
"mXmXmXmXmXmXmXmXmXmXmXmXmXmXh.x.c.b.u.mXmXmXmXmXmXmXmXmXmXmXmXmX",
"mXmXmXmXmXmXmXmXmXmXmXmXmXmX= F o.C mXmXmXmXmXmXmXmXmXmXmXmX:.mX",
"mXmXmXmXmXmXmXmXmXmXmXmXmXmX, W y.H mXmXmXmXmXmXmXmXmXmX1.d.e.` ",
"mXmXmXmXmXmXmXmXmXmXmXmXmX6 Y r.r.=.J mXmXmXmXmXmXmX( 3.g.0./ mX",
"mXmXmXmXmXmXmXmXmXmXmXmXd M T ..*.O.Q a > mXmXmXy >.9.,.mXmXmXmX",
"mXmXmXmXmXmXmXmXmXmXmXk n S } 9 +.B V E d h q t ) i mXmXmXmXmXmX",
"mXmXmXmXmXmXmXmXmXmXc G k %.D N &.} f  .I l R w mXmXmXmXmXmXmXmX",
"mXmXmXmXmXmXmXmXmX5 L g { | f ! r.r.Z v @.x L X.s mXmXmXmXmXmXmX",
"mXmXmXmXmXmXmXmXmX< 8 l $.z A $.t.y.#.h U K : 7 4 mXmXmXmXmXmXmX",
"mXmXmXmXmXmXmXmXmXmX& 3 b 4 m I ~ Q j ; > * X mXmXmXmXmXmXmXmXmX",
"mXmXmXmXmXmXmXmXu ` ^ r 1 @ # # $ % o .   mXmXmXmXmXmXmXmXmXmXmX",
"mXmXmXmXmXmX] 4.8._ mXmXmXmXmXo o mXo o mXmXmXmXmXmXmXmXmXmXmXmX",
"mXmXmXmX0.q.4.-.mXmXmXmXmXmXmXo o mXmXo mXmXmXmXmXmXmXmXmXmXmXmX",
"mXe 6.f.5.p mXmXmXmXmXmXmXmXmXmXo mXmXo mXmXmXmXmXmXmXmXmXmXmXmX",
"mXmXmXmXmXmXmXmXmXmXmXmXmXmXmXmXo mXmXo mXmXmXmXmXmXmXmXmXmXmXmX",
"mXmXmXmXmXmXmXmXmXmXmXmXmXmXmXmXo mXmXo mXmXmXmXmXmXmXmXmXmXmXmX",
"mXmXmXmXmXmXmXmXmXmXmXmXmXmXmXmXo mXmXo mXmXmXmXmXmXmXmXmXmXmXmX"
};
