/* XPM */
static char *result[] = {
/* columns rows colors chars-per-pixel */
"32 32 85 1 ",
"  c #171617",
". c #191717",
"X c #171618",
"o c #181618",
"O c #171819",
"+ c #1A1A1C",
"@ c #231D1E",
"# c #2B211F",
"$ c #1D1D20",
"% c #261F21",
"& c #262021",
"* c #2D2424",
"= c #2F2827",
"- c #262629",
"; c #2C2B2C",
": c #312625",
"> c #332927",
", c #332C2C",
"< c #382E2D",
"1 c #3A302F",
"2 c #2F2F31",
"3 c #322F32",
"4 c #2F3032",
"5 c #343133",
"6 c #3B3434",
"7 c #3E3939",
"8 c #563B2E",
"9 c #433735",
"0 c #423937",
"q c #4C3C37",
"w c #443C3B",
"e c #493F3D",
"r c #543D31",
"t c #503F3A",
"y c #653E24",
"u c #613F2A",
"i c #5F402F",
"p c #49413F",
"a c #534136",
"s c #5D4434",
"d c #55433B",
"f c #5B463A",
"g c #5E493D",
"h c #674025",
"j c #684125",
"k c #63402A",
"l c #6A452D",
"z c #6D4A33",
"x c #634B3D",
"c c #69503F",
"v c #464241",
"b c #4C4543",
"n c #4E4846",
"m c #4E4B4B",
"M c #524744",
"N c #514947",
"B c #5F4C42",
"V c #524C4B",
"C c #5B4E4B",
"Z c #56504F",
"A c #5B524E",
"S c #544F52",
"D c #555253",
"F c #5A5453",
"G c #5D5857",
"H c #56565C",
"J c #595558",
"K c #5E5A5A",
"L c #644E41",
"P c #6D5343",
"I c #645650",
"U c #615957",
"Y c #6E5F56",
"T c #615C5B",
"R c #6F6055",
"E c #63605F",
"W c #656060",
"Q c #6C6565",
"! c #6E6768",
"~ c #6E6A6B",
"^ c #757374",
"/ c #767679",
"( c #7A777A",
") c #8C8C8E",
"_ c None",
/* pixels */
"__________1,1wpppp709<__________",
"_______9bUnbZAAZmFZZGnNp6_______",
"_____00TVKnDZbmZAZnpJVGTNb<_____",
"____:FDNVNpVppvpv7pwbnAZAFp1____",
"___;,KKnn6:*&&*@#+&&&;60FNU5,___",
"__6,3^(w%+  +O+++$+O  .@6!(5<>__",
"__bw2CQ5O+-_2_2__4_;_;+O*QC56D6_",
"_6033xsn________________ngg57F6_",
"_pQ73LkV_3252_;4_2_;__;_nuL53w0,",
"_<w65LjM________________byP36Gb>",
">DD52Lyq_2552_2552_245;_9yc3,66*",
">bV53Ljt________________eyc35GS>",
"=vF65xjb_2552_2552_;22;_bkP56VN,",
":7b65ALD________________VBA56FV<",
":0Z74DDS________________VHD53VV<",
"*1735d8D________________Drd5,bp>",
">nJ03xuF________________Glg55NN<",
":6v33xzF________________Fzx55nv<",
",NS63LzF________________FzB5,bb>",
">mS53SUH________________JGF55bb,",
">eN33NNS________________SnV56DF6",
";ST73duA________________Fsf55bv<",
"*6b33gzF________________Fzx56FZ<",
">mD63xzF________________Fzx46KG6",
":9e52ARG________________JYI33en<",
"5mD54DHS________________SHJ56GD6",
">09,3MaS________________StM53bw=",
"6TD5;gzV________________Szs56KD6",
",pw33BPG________________KPL3,eb<",
"6DG6,E)/________________/)Q55DS6",
"%::=5!~N_________________Q~5;**&",
"___;;9____________________9,;___"
};
