/* XPM */
static char *d653072c2d1448c1d42713fe5542b112yZdrT2ULBvuKE8hu[] = {
/* columns rows colors chars-per-pixel */
"32 32 164 2 ",
"   c None",
".  c #171619",
"X  c #18171A",
"o  c #19181A",
"O  c #241F1F",
"+  c #2C201D",
"@  c #272223",
"#  c #2D2525",
"$  c #2E2B2C",
"%  c #332927",
"&  c #332C2C",
"*  c #382D2B",
"=  c #3D312F",
"-  c #2F2E31",
";  c #312E30",
":  c #333133",
">  c #3C3434",
",  c #3B3638",
"<  c #3E3A3C",
"1  c #57331E",
"2  c #643A1E",
"3  c #513121",
"4  c #5D3B26",
"5  c #573C2C",
"6  c #5B3C2B",
"7  c #403633",
"8  c #423936",
"9  c #443C3C",
"0  c #4B3E3B",
"q  c #553C30",
"w  c #5A3F31",
"e  c #553F38",
"r  c #643B22",
"t  c #693F22",
"y  c #46403F",
"u  c #4A413F",
"i  c #5D4132",
"p  c #54413B",
"a  c #5D453A",
"s  c #6E4425",
"d  c #65422A",
"f  c #6C452C",
"g  c #6E482F",
"h  c #744524",
"j  c #764926",
"k  c #7A4A26",
"l  c #714729",
"z  c #744B2C",
"x  c #7C4D29",
"c  c #7E512C",
"v  c #624533",
"b  c #694A34",
"n  c #744D32",
"m  c #6E513E",
"M  c #765135",
"N  c #7D5334",
"B  c #74543C",
"V  c #785338",
"C  c #7D593F",
"Z  c #474141",
"A  c #4B4443",
"S  c #4E4946",
"D  c #4F4748",
"F  c #4E4A4A",
"G  c #524745",
"H  c #594740",
"J  c #524A46",
"K  c #5A4942",
"L  c #524D4B",
"P  c #5A4D4C",
"I  c #56514F",
"U  c #5C524E",
"Y  c #524E51",
"T  c #565252",
"R  c #5B5453",
"E  c #5C5957",
"W  c #5C5758",
"Q  c #5D5A5A",
"!  c #654E42",
"~  c #6E5443",
"^  c #65544B",
"/  c #6A5448",
"(  c #725542",
")  c #755946",
"_  c #7A5940",
"`  c #735A4A",
"'  c #7A5F4B",
"]  c #635551",
"[  c #635955",
"{  c #625E5B",
"}  c #625D5E",
"|  c #635E5D",
" . c #625C5C",
".. c #695E5B",
"X. c #725E52",
"o. c #62605F",
"O. c #65615F",
"+. c #6E605A",
"@. c #776051",
"#. c #74655E",
"$. c #5F5E61",
"%. c #635E61",
"&. c #625F61",
"*. c #636161",
"=. c #666263",
"-. c #666663",
";. c #676365",
":. c #636264",
">. c #6B6766",
",. c #6D6665",
"<. c #6C6665",
"1. c #676867",
"2. c #6D6866",
"3. c #656569",
"4. c #6C6768",
"5. c #686669",
"6. c #67686C",
"7. c #6F6A69",
"8. c #6B696E",
"9. c #6C6A6E",
"0. c #6A696D",
"q. c #706666",
"w. c #716764",
"e. c #736E6E",
"r. c #716D6D",
"t. c #73706E",
"y. c #7D706B",
"u. c #6E6E71",
"i. c #706E70",
"p. c #757272",
"a. c #777676",
"s. c #747475",
"d. c #787573",
"f. c #797673",
"g. c #787476",
"h. c #787473",
"j. c #737579",
"k. c #777A7C",
"l. c #7F7C7E",
"z. c #7B7A7C",
"x. c #804E27",
"c. c #814F29",
"v. c #804F28",
"b. c #82512B",
"n. c #84512A",
"m. c #81502A",
"M. c #835838",
"N. c #837873",
"B. c #7F7F82",
"V. c #827F80",
"C. c #7F8084",
"Z. c #848283",
"A. c #808385",
"S. c #838287",
"D. c #8A8482",
"F. c #868689",
"G. c #85878C",
"H. c #87898C",
"J. c #8B8A8F",
"K. c #8B8B8D",
"L. c #898D90",
"P. c #8A8D91",
"I. c #8B8E92",
"U. c #8D8E91",
/* pixels */
"                      * * > 8 > A 7 9 8 > =                     ",
"              > G R A A A R R L Q G R I G E S D 8 8             ",
"          > 9 | J o.A R L I F S { L U F A Q G Q [ R y =         ",
"        > | S I S I 9 T 0 u A 9 F 9 9 A 8 G A R R G | S S %     ",
"      L u A R A L L Q :.> % $ @ @ O @ # $ T *.E A L W R T > >   ",
"    > J Q y A E N.P.P.C.< @ X X o . X + $ u.P.P.F.4.9 W 8 | L # ",
"  8 *.A > A U P.g.U H a.< $     $   $ & - 9.[ K ,.J.i.8 A I u L ",
"  > Z F A 8 Z.] 3 r d g.9 $           $ : 9.~ 2 1 e N.R > S >.E ",
"9 -.R > > W q.1 j x n d.< $ - : :   $ $ $ 9.) c.k r K p.> D A 8 ",
"% A L F > =.a j x x z d.< $           & - 9.) x x c.4 7.> 8 R Q ",
"A I y > & %.6 n.c.x g h.< $ : : -   $ $ $ u.) k k n.t [ 9 , 8 > ",
"A R I F > { 4 n.x x g p.< $           $ $ 8.) x x n.s R A Z T %.",
"< I I 9 & *.6 x.c.k g p.< $ ; : -   $ $ & 9.` x x v.h R A & A L ",
", L F 9 & -.a B B ( / a.< $           $ ; u.+.~ B B b Q F < T | ",
"> L T I > 6.:.5.8.5.3.k.9 $     -   $ $ , u.u.9.6.6.3.9.Z > u F ",
"= 9 9 > & 3.p 5 5 6 q p.< $           < < u.^ v w a a =.F A I I ",
"Z T | W > 3.6 k j h f t.< $           : , u.` N z N n %.Y S R L ",
"> Z T L > =.v c.k x g r.< $         < > , u.@.b.c M.V %.L F $.T ",
"A L F Z & :.i k z k g r.< $           : , 6.` x x N n | F 8 L L ",
"F Q T F > 3. .....#...s.< $     -   $ ; & 5.w...+.+.O.-.Z > S S ",
"8 D y 8 & 3.T R R [ } s.< #           & $ 6.3.W E R P *.Z 9 T I ",
"F -.Q F > :.5 t 2 t 6 r.< $ - - -   $ $ $ -.! r r t 4 Q Z 9 T F ",
"& 9 A y & :.v x.x x z 9.< $           $ - :.~ k k x l Q y > L L ",
"A W Q W > *.v c k x z r.< $ $ - $   $ $ $ :.~ k k k l Q 9 A Q 6.",
"> 9 y y & %.[ ' ) _ ( r., $           $ $ %.X.C _ ` ` &.< $ , 9 ",
"L T T T > 3.3.8.u.i.i.a., $     $   $ & $ %.j.i.u.u.3.8.9 Z %.%.",
", , 8 8 & %.p w e K U u., -           $ $ $.} G a w w W < % 9 u ",
"Q Q T T > Q v x.j j d ,.> $         $ $ $ } m h h j t  .8 9 Q ;.",
"9 Z 8 9 & %.^ V M x g ,.> $           ; $  .m j z M m %.8 ; 9 9 ",
"R | R L * i.H.J.D.N.#.r.> $           ; $ Q q.y.D.J.J.V.8 9 %.W ",
"# & * # + G [ q.g.V.F.z.; $             % %.H.S.z.r...R % # & & ",
"                  8 G G * &             % 0 P 0                 "
};
