/* XPM */
static char *_60e857d65d24780a88ea7b0725516c4b8D0ueBbspmiBRZ6[] = {
/* columns rows colors chars-per-pixel */
"32 32 147 2 ",
"   c None",
".  c #171616",
"X  c #171619",
"o  c #191618",
"O  c #1A191C",
"+  c #261F20",
"@  c #272323",
"#  c #2B2424",
"$  c #2C2827",
"%  c #262528",
"&  c #2C2728",
"*  c #2D2C2E",
"=  c #312727",
"-  c #342926",
";  c #342C2C",
":  c #392D2C",
">  c #36302F",
",  c #3A312F",
"<  c #2E2E31",
"1  c #312E32",
"2  c #392F30",
"3  c #2F3031",
"4  c #333234",
"5  c #3C3434",
"6  c #3E3837",
"7  c #373638",
"8  c #3A3739",
"9  c #3D3A3A",
"0  c #5D3C29",
"q  c #403736",
"w  c #423937",
"e  c #4C3C36",
"r  c #443C3C",
"t  c #4A3E3B",
"y  c #563C30",
"u  c #643D25",
"i  c #47403E",
"p  c #4B413E",
"a  c #5C4335",
"s  c #54443D",
"d  c #59463C",
"f  c #5C483E",
"g  c #644027",
"h  c #6C4125",
"j  c #63412B",
"k  c #6C442A",
"l  c #6E492E",
"z  c #70492F",
"x  c #634634",
"c  c #6A4A35",
"v  c #644B39",
"b  c #6A4E3C",
"n  c #704E3B",
"m  c #6D503D",
"M  c #3F3D40",
"N  c #423F41",
"B  c #464243",
"V  c #4B4543",
"C  c #4F4846",
"Z  c #4B4649",
"A  c #4E4A4B",
"S  c #544640",
"D  c #524845",
"F  c #5D4B42",
"G  c #534E4C",
"H  c #534E4E",
"J  c #524C4D",
"K  c #554F4C",
"L  c #554E4D",
"P  c #544F4D",
"I  c #524C4B",
"U  c #5A4E49",
"Y  c #57504F",
"T  c #57514F",
"R  c #55514F",
"E  c #58504D",
"W  c #5A504F",
"Q  c #5C514D",
"!  c #504C50",
"~  c #524E50",
"^  c #535052",
"/  c #565150",
"(  c #565151",
")  c #555251",
"_  c #575355",
"`  c #565253",
"'  c #595151",
"]  c #585350",
"[  c #595350",
"{  c #585351",
"}  c #595351",
"|  c #5A5350",
" . c #595450",
".. c #595451",
"X. c #5B5452",
"o. c #5B5453",
"O. c #5F5551",
"+. c #5B5454",
"@. c #595655",
"#. c #5B5755",
"$. c #5A5757",
"%. c #5C5655",
"&. c #5B5655",
"*. c #5B5957",
"=. c #5C5854",
"-. c #5E5856",
";. c #5E5957",
":. c #555458",
">. c #585559",
",. c #5F5958",
"<. c #5C5A59",
"1. c #5D5A5A",
"2. c #5B5A5C",
"3. c #604C40",
"4. c #604C41",
"5. c #614D42",
"6. c #634F43",
"7. c #615047",
"8. c #6C5343",
"9. c #67564C",
"0. c #615A56",
"q. c #6D5C53",
"w. c #605B5A",
"e. c #605C59",
"r. c #605C5A",
"t. c #625D5B",
"y. c #605D5C",
"u. c #605D5C",
"i. c #725D51",
"p. c #66605E",
"a. c #62605E",
"s. c #5A5B61",
"d. c #646160",
"f. c #656362",
"g. c #6A6363",
"h. c #696768",
"j. c #69686A",
"k. c #726968",
"l. c #716A6A",
"z. c #706C6D",
"x. c #746E6E",
"c. c #716B6C",
"v. c #706E71",
"b. c #757274",
"n. c #7C7B7E",
"m. c #8A8687",
"M. c #8A888A",
/* pixels */
"                      : 5 q w r w w w q 5                       ",
"              , V X.V t E K } X.R Q K I =.V V e 5               ",
"          5 w r.K r.I I ` D I ` ] ] D V *.I =.r.V r             ",
"        - X.K G D K B R V i V B V r V r Z I O.R E } p :         ",
"      = 2 %.#.D D 5 ; = # $ $ @ @ + # @ & ; w i 0.D } ; =       ",
"    5 ; 7 n.z.r # O o o X o O O X O O O X . O @ q v.v.< ; -     ",
"    V 8 7 O.l.& . O % < *   4     <   < * % O X 7 k.W < 5 K 5   ",
"  5 5 ; 7 a f r                                 A a f < r <.,   ",
"  D p.4 7 b u A   7 7   4   4 4   4   3 4   3   D u 6.1 1 r 5   ",
"  4 V 4 7 b u D                                 S u 4.1 r ,.V - ",
"; G D ; 7 b u t 8 4 4 7 <   < <   *   4 4 7 < 9 e h 6.1 4 5 ;   ",
"; #.%.1 5 b u t                                 s h 4.1 5 u.I - ",
"q %.t.9 7 b u N   4 4   <   *     *   < 4   <   V k F < 5 K i - ",
"r ` y.9 7 7.v ~                                 E v U 3 w 1.G : ",
"2 J %.5 7 >._ A   4     <   4     <   <     <   ~ :.^ 3 5 C V : ",
"2 r B 8 M U F ~                                 R y s 3 5 A Z = ",
"5 ^ #.N N 8.b `         4                       K k f 1 5 V B - ",
"5 B G r M 8.n `   B     4   4     4         4   K l S 1 8 G V : ",
"; K J 5 8 8.b `                                 K l F 1 > p i = ",
"; ` ` 7 4 %.0.A   3 3   <   < 4   <   < 4   <   ~ 0.` * 5 C C - ",
"- r V 1 7 ~ Z G                                 ~ J G < 5 R R , ",
": _ d.5 4 a a Z   3 4 4 <   4 3   <   < 4   *   D 0 S 3 7 A C - ",
"# 5 r 1 4 v c `                                 ~ z F 3 5 R V : ",
": G X.1 7 v c Z   < < 4 *   3 < 4 *   < 3 4 *   J z f 3 6 f.<., ",
"= 5 w * 4 9.q.G                                 ` i.U 1 ; r N : ",
", ` ` 4 7 2.>.Z   < <   *   < <   *   < 1   <   A s.:.< N 1.} q ",
"= 6 5 = 1 D V J                                 J s A 1 5 B q = ",
"w a.R 4 1 x x A         <   4     3         1   D k d < 6 d.+.2 ",
": N q 1 7 v 8.~                                 +.n S < ; r B - ",
"q #.,.1 1 g.M.j.                                b.m.w.< 9 >.` 5 ",
"= = - ; 8 b.c.J                                 K b.h.< ; = = & ",
"      ; 1 t                                         e 1 *       "
};
