/* XPM */
static char *result[] = {
/* columns rows colors chars-per-pixel */
"32 32 222 2 ",
"   c black",
".  c #000001",
"X  c #010102",
"o  c #010103",
"O  c #020304",
"+  c #020205",
"@  c #020305",
"#  c #030305",
"$  c #040507",
"%  c #050609",
"&  c #05060A",
"*  c #06070A",
"=  c #07090F",
"-  c #09090C",
";  c #090A0E",
":  c #0A0B0F",
">  c #090911",
",  c #0B0C11",
"<  c #0D0F16",
"1  c #121114",
"2  c #101016",
"3  c #101116",
"4  c #111218",
"5  c #101219",
"6  c #11131C",
"7  c #11131D",
"8  c #13141F",
"9  c #15151E",
"0  c #1B191C",
"q  c #101423",
"w  c #131622",
"e  c #141623",
"r  c #141723",
"t  c #131624",
"y  c #151824",
"u  c #161924",
"i  c #161A25",
"p  c #151926",
"a  c #1C1B22",
"s  c #1E1D23",
"d  c #1E1E22",
"f  c #1E1E23",
"g  c #1C1D26",
"h  c #1D1E27",
"j  c #181B28",
"k  c #1A1E29",
"l  c #1C1F29",
"z  c #1A1F2E",
"x  c #1C202B",
"c  c #1D212D",
"v  c #1F2331",
"b  c #202024",
"n  c #212124",
"m  c #212025",
"M  c #27272E",
"N  c #29282B",
"B  c #29282E",
"V  c #2C2A2E",
"C  c #262633",
"Z  c #202435",
"A  c #292930",
"S  c #2A2A33",
"D  c #2C2B31",
"F  c #2D2C31",
"G  c #2E2D32",
"H  c #2F2F37",
"J  c #22273B",
"K  c #242839",
"L  c #24293A",
"P  c #232A3F",
"I  c #242A3E",
"U  c #272C3C",
"Y  c #272D3F",
"T  c #282C3E",
"R  c #292E3F",
"E  c #312F35",
"W  c #302F37",
"Q  c #343337",
"!  c #353439",
"~  c #33333E",
"^  c #36343C",
"/  c #39383F",
"(  c #292F40",
")  c #282E41",
"_  c #292E41",
"`  c #282E42",
"'  c #2A3042",
"]  c #2B3144",
"[  c #2B3145",
"{  c #2C3244",
"}  c #2E3446",
"|  c #2F3549",
" . c #2F354A",
".. c #363641",
"X. c #3C3B42",
"o. c #3D3C43",
"O. c #3C3B44",
"+. c #3D3B45",
"@. c #3D3D45",
"#. c #303548",
"$. c #303649",
"%. c #31374B",
"&. c #32384C",
"*. c #3A4054",
"=. c #414047",
"-. c #454349",
";. c #464248",
":. c #47464B",
">. c #42424E",
",. c #44454C",
"<. c #47454E",
"1. c #454754",
"2. c #484850",
"3. c #484953",
"4. c #4E4C52",
"5. c #4C4A55",
"6. c #4D4C55",
"7. c #4C4D59",
"8. c #4D4D59",
"9. c #504C51",
"0. c #525156",
"q. c #50525E",
"w. c #56555C",
"e. c #535762",
"r. c #5D5B64",
"t. c #5E616A",
"y. c #5E616B",
"u. c #61636B",
"i. c #64636F",
"p. c #6C696F",
"a. c #656770",
"s. c #6A6971",
"d. c #6A6873",
"f. c #6C6B73",
"g. c #6F6C75",
"h. c #706F75",
"j. c #717077",
"k. c #737279",
"l. c #767379",
"z. c #76757B",
"x. c #72747D",
"c. c #76757C",
"v. c #78767E",
"b. c #7B777E",
"n. c #7C7A80",
"m. c #7D7982",
"M. c #7E7C83",
"N. c #827C80",
"B. c #858286",
"V. c #828188",
"C. c #82828A",
"Z. c #87858A",
"A. c #89878F",
"S. c #8E8D92",
"D. c #8F8D94",
"F. c #8E8F97",
"G. c #908A91",
"H. c #908E93",
"J. c #92929B",
"K. c #96949B",
"L. c #97949C",
"P. c #9C979E",
"I. c #9A999F",
"U. c #9B9BA1",
"Y. c #A39AA1",
"T. c #A7A4AB",
"R. c #A9A7AE",
"E. c #AEADB3",
"W. c #B2AFB4",
"Q. c #B3AFB6",
"!. c #C6C3C7",
"~. c #C5C3C8",
"^. c #C7C3C8",
"/. c #C9C6CB",
"(. c #CAC7CC",
"). c #CCC8CC",
"_. c #CDC9CD",
"`. c #CCCACD",
"'. c #CDCACD",
"]. c #CCCBCF",
"[. c #D6CED1",
"{. c #D5CFD2",
"}. c #D9D4D8",
"|. c #D9D7DA",
" X c #DBD9DB",
".X c #DED8DA",
"XX c #DBDADD",
"oX c #E2DCDE",
"OX c #E0DDE1",
"+X c #E1DFE0",
"@X c #E1DEE1",
"#X c #E3DEE1",
"$X c #E2DFE1",
"%X c #E1DFE2",
"&X c #E4DEE2",
"*X c #E2E0E2",
"=X c #E6E1E4",
"-X c #E6E4E7",
";X c #EAE7EA",
":X c #EAE8EA",
">X c #EBE8EA",
",X c #ECEBEC",
"<X c #EEEBEE",
"1X c #F0EDEF",
"2X c #F3F3F5",
"3X c #F4F4F5",
"4X c #F6F4F6",
"5X c #F8F8F9",
"6X c #FAFAFB",
"7X c #FBFAFB",
"8X c #FBFBFC",
"9X c #FDFCFD",
"0X c #FDFDFD",
"qX c #FEFDFD",
"wX c #FDFDFE",
"eX c #FEFDFE",
"rX c #FFFDFE",
"tX c #FEFEFE",
"yX c #FFFEFE",
"uX c #FFFEFF",
"iX c white",
"pX c None",
/* pixels */
"pXpXpXpXpXpXpX5.i.8 pXpXpXpXpXpXpXpXpX> ..F pXpXpXpXpXpXpXpXpXpX",
"pXpXpXpXpXpXO.^.J.> pXpXpXpXpXpXpXpXpXpX1.R.@.pXpXpXpXpXpXpXpXpX",
"pXpXpXpXpXpXA.yXK.: pXpXpXpXpXpXpXpXpXpX>.&XQ.a pXpXpXpXpXpXpXpX",
"pXpXpXpXpXg ~. X! pXpXpXpXpXpXpXpXpXpXpXC P.;X,.pXpXpXpXpXpXpXpX",
"pXpXpXpXpX/ @XU.pXpXpXpXpXpXpXpXpXpXpXpXpX<.@Xp.pXpXpXpXpXpXpXpX",
"pXpXpXpXpX+.#XF.pXpXpXpXpXpXpXpXpXpXpXpXpXW }.N.pXpXpXpXpXpXpXpX",
"pXpXpXpXpXh !.E.2 pXpXpXpXpXpXpXpXpXpXpXpX6.-Xl.pXpXpXpXpXpXpXpX",
"pXpXpXpXpX+ z.OXo.pXpXpXpXpXpXpXpXpXpXpXe L.<X2.pXpXpXpXpXpXpXpX",
"pXpXpXpXpXpXs W.(.k.a.c.n.j.u.e.3.-.M G Z.1XI.4 pXpXpXpXpXpXpXpX",
"pXpXpXpXpXpXpX=.=XrX6XwXtX9X6X5X3X,X].XX>XH.d pXpXpXpXpXpXpXpXpX",
"pXpXpXpXpXpXpXA ).iXiXiXiXiXiXiXiXiXiXuXv.- pXpXpXpXpXpXpXpXpXpX",
"pXpXpXpXpXpXpXB _.iXiXiXiXiXiXiXiXiXiX0Xy.pXpXpXpXpXpXpXpXpXpXpX",
"pXpXpXpXpXpXpXD {.iXiXiXiXiXiXiXiXiXiXwXt.pXpXpXpXpXpXpXpXpXpXpX",
"pXpXpXpXpXpXpXE .X8X|.*XqXyXiXiXiXeXiX0Xw.pXpXpXpXpXpXpXpXpXpXpX",
"pXpXpXpXpXpXpX^ [.B.f Q '.iXiXiX/.f.V.oX9.pXpXpXpXpXpXpXpXpXpXpX",
"pXpXpXpXpXpXpX~ Y.0     x.uXiX:XX.  o g.;.pXpXpXpXpXpXpXpXpXpXpX",
"pXpXpXpXpXpXpXpXM.N   . C.iXiX+Xn     7.S pXpXpXpXpXpXpXpXpXpXpX",
"pXpXpXpXpXpXpXpX:.D.0.h.%XiXiX7XS.b V r.7 O pXpXpXpXpXpXpXpXpXpX",
"pXpXpXpXpXpXpXpXpX4.T.$X2X7XiXiX4X`.G.m . pXpXpXpXpXpXpXpXpXpXpX",
"pXpXpXpXpXpXpXpXpXpX1 H q.s.b.m.d.8.h . pXpXpXpXpXpXpXpXpXpXpXpX",
"pXpXpXpXpXpXpXpXpXpX% U ` P q K J = @ pXpXpXpXpXpXpXpXpXpXpXpXpX",
"pXpXpXpXpXpXpXpXpXpXk _ $.I w ) *.< pXpXpXpXpXpXpXpXpXpXpXpXpXpX",
"pXpXpXpXpXpXpXpXpX. p | [ z j %.} c pXpXpXpXpXpXpXpXpXpXpXpXpXpX",
"pXpXpXpXpXpXpXpX9 ; T [ Y 6 {  .&.r pXpXpXpXpXpXpXpXpXpXpXpXpXpX",
"pXpXpXpXpXpXpX% 3 y ] ' 5 . x #.} v . pXpXpXpXpXpXpXpXpXpXpXpXpX",
"pXpXpXpXpXpX    $ ( R ,     X l L Z $ pXpXpXpXpXpXpXpXpXpXpXpXpX",
"pXpXpXpXpXpXpXpX* u *         X i t pXpXpXpXpXpXpXpXpXpXpXpXpXpX",
"pXpXpXpXpXpXpXpX  pXpX          # & pXpXpXpXpXpXpXpXpXpXpXpXpXpX",
"pXpXpXpXpXpXpXpXpXpXpX    pXpX    pXpXpXpXpXpXpXpXpXpXpXpXpXpXpX",
"pXpXpXpXpXpXpXpXpXpXpXpX  pXpX  pXpXpXpXpXpXpXpXpXpXpXpXpXpXpXpX",
"pXpXpXpXpXpXpXpXpXpXpXpXpXpXpXpXpXpXpXpXpXpXpXpXpXpXpXpXpXpXpXpX",
"pXpXpXpXpXpXpXpXpXpXpXpXpXpXpXpXpXpXpXpXpXpXpXpXpXpXpXpXpXpXpXpX"
};
