/* XPM */
static char *result[] = {
/* columns rows colors chars-per-pixel */
"32 32 174 2 ",
"   c black",
".  c #000001",
"X  c #010101",
"o  c #000002",
"O  c #010102",
"+  c #010203",
"@  c #020305",
"#  c #030307",
"$  c #040307",
"%  c #040406",
"&  c #040408",
"*  c #050609",
"=  c #07080A",
"-  c #07080C",
";  c #0A0A0E",
":  c #0A0B0F",
">  c #090A12",
",  c #0A0C12",
"<  c #0C0C10",
"1  c #0D0E14",
"2  c #0C0E15",
"3  c #0F1119",
"4  c #111115",
"5  c #111216",
"6  c #111318",
"7  c #131318",
"8  c #11131B",
"9  c #141418",
"0  c #15161B",
"q  c #16161A",
"w  c #12151F",
"e  c #17181F",
"r  c #1B1A1F",
"t  c #131620",
"y  c #131721",
"u  c #131623",
"i  c #141723",
"p  c #151822",
"a  c #141825",
"s  c #191A25",
"d  c #181A26",
"f  c #1B1D24",
"g  c #1C1C24",
"h  c #161B29",
"j  c #191D2B",
"k  c #1C1E28",
"l  c #1A1E2C",
"z  c #1B1E2D",
"x  c #1C2130",
"c  c #1D2230",
"v  c #212126",
"b  c #242429",
"n  c #26252A",
"m  c #26262B",
"M  c #28272C",
"N  c #28272D",
"B  c #28282D",
"V  c #2A292E",
"C  c #2B2B2F",
"Z  c #202533",
"A  c #222633",
"S  c #232733",
"D  c #242734",
"F  c #222837",
"G  c #292932",
"H  c #2E2D32",
"J  c #2E2E32",
"K  c #292B37",
"L  c #272C3D",
"P  c #2A2F3F",
"I  c #333338",
"U  c #31313A",
"Y  c #37373D",
"T  c #3C3B3F",
"R  c #2B3041",
"E  c #2F3340",
"W  c #2C3143",
"Q  c #2D3244",
"!  c #2D3345",
"~  c #303547",
"^  c #393940",
"/  c #34394B",
"(  c #3A3F53",
")  c #3A4155",
"_  c #3C4255",
"`  c #3C4256",
"'  c #3D4356",
"]  c #45444A",
"[  c #47474C",
"{  c #434251",
"}  c #41475B",
"|  c #515159",
" . c #53515A",
".. c #51505F",
"X. c #57565C",
"o. c #5B5A61",
"O. c #5B5B61",
"+. c #5B5A63",
"@. c #5D5C61",
"#. c #615F64",
"$. c #626067",
"%. c #67666B",
"&. c #69676D",
"*. c #6A686E",
"=. c #696870",
"-. c #6D6D71",
";. c #706F74",
":. c #77747B",
">. c #79787F",
",. c #818085",
"<. c #86858A",
"1. c #86858D",
"2. c #89868B",
"3. c #88878D",
"4. c #89888D",
"5. c #939196",
"6. c #949297",
"7. c #959297",
"8. c #94949A",
"9. c #96959C",
"0. c #9A989D",
"q. c #A3A2A7",
"w. c #A6A4A8",
"e. c #A6A4AA",
"r. c #A6A5AA",
"t. c #ABA9AE",
"y. c #ADABB0",
"u. c #B4B2B7",
"i. c #B5B3B7",
"p. c #B7B3B7",
"a. c #B4B3B8",
"s. c #B4B4B8",
"d. c #B6B4B8",
"f. c #B6B4B9",
"g. c #B8B6BA",
"h. c #B9B7BB",
"j. c #B8B7BC",
"k. c #BAB9BD",
"l. c #BFBEC2",
"z. c #C0BDC2",
"x. c #C4C1C5",
"c. c #CBC8CB",
"v. c #CECDD0",
"b. c #CFCDD1",
"n. c #D1CFD3",
"m. c #D1D0D3",
"M. c #D2D0D3",
"N. c #D3D2D5",
"B. c #D4D4D7",
"V. c #D6D4D7",
"C. c #D7D5D8",
"Z. c #D6D5D9",
"A. c #D7D5D9",
"S. c #D8D6D9",
"D. c #DCDBDE",
"F. c #DFDFE1",
"G. c #E5E3E6",
"H. c #E4E4E6",
"J. c #E5E4E6",
"K. c #EAE9EA",
"L. c #EEEDEF",
"P. c #EFEEF0",
"I. c #F0EEF0",
"U. c #F4F3F4",
"Y. c #F5F4F6",
"T. c #F6F5F6",
"R. c #F7F6F7",
"E. c #F9F9F9",
"W. c #FAF9FA",
"Q. c gray98",
"!. c #FEFDFE",
"~. c #FEFEFE",
"^. c white",
"/. c None",
/* pixels */
"/./././././././././././././././././././././././././././././././.",
"/./././././././././././././.0 /././././././././././././././././.",
"/././././././././././././.&.| /./.m :.T /./././././././././././.",
"/./././././././././././.[ A.%././.1 e.y.r /././././././././././.",
"/./././././././././././.7.z.N /././.*.G.$./././././././././././.",
"/./././././././././././.p.3./././././.d.g./././././././././././.",
"/./././././././././././.h.<./././././.5.C.H /./././././././././.",
"/./././././././././././.w.i.4 /././.7 u.b.V /./././././././././.",
"/./././././././././././.1.I.2.o.@.#.0.Y.6./././././././././././.",
"/././././././././././.X.F.^.!.Y.U.T.^.B.+.n /./././././././././.",
"/./././././././././.q s.^.^.^.^.^.^.W.9.l.4././././././././././.",
"/./././././././././.C Z.^.^.^.^.^.^.~.R.^.j.7 /././././././././.",
"/./././././././././.I n.^.^.L.S.E.^.^.^.^.V.B /././././././././.",
"/./././././././././.1  .L.P.O.v f.^.^.^.^.D.J /././././././././.",
"/./././././././././.o M J.v.9   ;.^.^.^.^.m.b /././././././././.",
"/./././././././././.. ] P.H.Y # ,.^.^.^.^.q.< /././././././././.",
"/././././././././././.>.W.^.N.t.K.^.^.Q.k.^ * /././././././././.",
"/././././././././././.v -.r.x.M.c.a.8.=.U g = /././././././././.",
"/././././././././././././.: e K E d u { ..; /./././././././././.",
"/././././././././././././.6 k z ) ( l s G /././././././././././.",
"/././././././././././././.5 D P W ~ ` p   /././././././././././.",
"/././././././././././././.f A c } / L ! 2 /././././././././././.",
"/././././././././././././.S t h F ' } W a /././././././././././.",
"/././././././././././././.> & % y x R _ Q - /./././././././././.",
"/././././././././././././.$ #   X , i j Z w /./././././././././.",
"/./././././././././././././.O       + , 8 3 @ /././././././././.",
"/././././././././././././././.. /.  /./././././././././././././.",
"/./././././././././././././././././././././././././././././././.",
"/./././././././././././././././././././././././././././././././.",
"/./././././././././././././././././././././././././././././././.",
"/./././././././././././././././././././././././././././././././.",
"/./././././././././././././././././././././././././././././././."
};
