/* XPM */
static char *result[] = {
/* columns rows colors chars-per-pixel */
"32 32 144 2 ",
"   c black",
".  c #000001",
"X  c #010001",
"o  c #010101",
"O  c #010102",
"+  c #020202",
"@  c #030305",
"#  c #040304",
"$  c #040305",
"%  c #040404",
"&  c gray2",
"*  c #050406",
"=  c #050407",
"-  c #050507",
";  c #060507",
":  c #070707",
">  c #050408",
",  c #060508",
"<  c #070508",
"1  c #060608",
"2  c gray3",
"3  c gray4",
"4  c #09080C",
"5  c #0A080D",
"6  c #0B0A0D",
"7  c #0B090F",
"8  c #0B0A0F",
"9  c #0D0B0E",
"0  c #0C0A0F",
"q  c #0C0C0C",
"w  c gray5",
"e  c #0E0E0E",
"r  c gray6",
"t  c #0B0811",
"y  c #0B0911",
"u  c #0C0A10",
"i  c #0C0912",
"p  c #0E0D10",
"a  c #0E0D11",
"s  c #0F0E10",
"d  c #0F0D15",
"f  c #0F0D16",
"g  c #100D15",
"h  c #100E15",
"j  c #100E16",
"k  c #120F18",
"l  c #101010",
"z  c #111111",
"x  c gray7",
"c  c #131313",
"v  c gray8",
"b  c #151515",
"n  c #151417",
"m  c #161517",
"M  c #161616",
"N  c gray9",
"B  c #13101A",
"V  c #14101B",
"C  c #14111B",
"Z  c #161518",
"A  c #15121C",
"S  c #15121D",
"D  c #16131D",
"F  c #16131E",
"G  c #17131F",
"H  c #181818",
"J  c #191919",
"K  c #19181B",
"L  c gray10",
"P  c #1A181E",
"I  c #1D1D1D",
"U  c #222222",
"Y  c #232323",
"T  c #212025",
"R  c #252525",
"E  c gray15",
"W  c #272727",
"Q  c #2A2A2A",
"!  c #2B2A2C",
"~  c #2C253F",
"^  c #2D263F",
"/  c #343434",
"(  c #3E3E3E",
")  c #2E2640",
"_  c #2E2741",
"`  c #322A44",
"'  c #332B45",
"]  c #332B46",
"[  c #332C46",
"{  c #342C46",
"}  c #342C47",
"|  c #352C47",
" . c #342D47",
".. c #352D47",
"X. c #372E4A",
"o. c #372F4A",
"O. c #372E4B",
"+. c #372E4C",
"@. c #382F4C",
"#. c #382F4D",
"$. c #3A304E",
"%. c #3A314F",
"&. c #3A3150",
"*. c #3B3250",
"=. c #403657",
"-. c #534C67",
";. c #554E69",
":. c gray78",
">. c #CACACA",
",. c #CBCBCB",
"<. c gray80",
"1. c gray83",
"2. c #D5D5D5",
"3. c gray84",
"4. c #D8D8D8",
"5. c #DADADA",
"6. c gray86",
"7. c gainsboro",
"8. c #DDDDDD",
"9. c gray87",
"0. c #DFDFDF",
"q. c gray88",
"w. c #E1E1E1",
"e. c #E2E2E2",
"r. c gray91",
"t. c #EAEAEA",
"y. c gray92",
"u. c #EBECEB",
"i. c #ECECEC",
"p. c gray93",
"a. c #EEEEEE",
"s. c #EFEFEF",
"d. c #F0F0EF",
"f. c gray94",
"g. c #F1F1F1",
"h. c gray95",
"j. c #F3F3F3",
"k. c #F4F3F4",
"l. c #F4F4F4",
"z. c gray99",
"x. c #FDFDFD",
"c. c #FEFEFE",
"v. c white",
"b. c None",
/* pixels */
"b.b.b.b.b.b.b.b.b.b.b.b.b.b.b.b.b.b.b.b.b.b.b.b.b.b.b.b.b.b.b.b.",
"b.b.b.b.b.b.b.b.b.b.b.b.b.: b.b.b.b.: b.b.b.b.b.b.b.b.b.b.b.b.b.",
"b.b.b.b.b.b.b.b.b.b.b.b.M o 2 b.b.2 o M b.b.b.b.b.b.b.b.b.b.b.b.",
"b.b.b.b.b.b.b.b.b.b.b.b ,.N b.b.b.b.N <.b b.b.b.b.b.b.b.b.b.b.b.",
"b.b.b.b.b.b.b.b.b.b.b.M 0.J b.b.b.b.L q.M b.b.b.b.b.b.b.b.b.b.b.",
"b.b.b.b.b.b.b.b.b.b.b.M 5.L b.b.b.b.M 3.N b.b.b.b.b.b.b.b.b.b.b.",
"b.b.b.b.b.b.b.b.b.b.b.M 6.M b.b.b.b.M 2.H b.b.b.b.b.b.b.b.b.b.b.",
"b.b.b.b.b.b.b.b.b.b.b.z 1.W b.b.b.b.M 7.c b.b.b.b.b.b.b.b.b.b.b.",
"b.b.b.b.b.b.b.b.b.b.r e l.w.I z c z E 9.R b.b.b.b.b.b.b.b.b.b.b.",
"b.b.b.b.b.b.b.b.b.I >./ 4.v.a.p.a.p.a.x.0.H b.b.b.b.b.b.b.b.b.b.",
"b.b.b.b.b.b.b.b.b.b j.e.( t.v.v.v.v.v.v.s.v b.b.b.b.b.b.b.b.b.b.",
"b.b.b.b.b.b.b.b.b.N i.v.i.v.v.v.c.c.x.v.h.M b.b.b.b.b.b.b.b.b.b.",
"b.b.b.b.b.b.b.b.b.M p.c.v.s.p.s.c.v.z.s.2.e b.b.b.b.b.b.b.b.b.b.",
"b.b.b.b.b.b.b.b.b.b r.v.i.Y x Y p.v.p.Y q % b.b.b.b.b.b.b.b.b.b.",
"b.b.b.b.b.b.b.b.b.r 6.v.y.3   3 y.v.y.3   & b.b.b.b.b.b.b.b.b.b.",
"b.b.b.b.b.b.b.b.b.M g.c.i.U z U i.c.i.U v & b.b.b.b.b.b.b.b.b.b.",
"b.b.b.b.b.b.b.b.b.J 6.v.v.k.h.l.v.v.v.h.:.z b.b.b.b.b.b.b.b.b.b.",
"b.b.b.b.b.b.b.b.b.b.! 8.a.d.h.f.a.u.a.e.Q b.b.b.b.b.b.b.b.b.b.b.",
"b.b.b.b.b.b.b.b.b.s ;.T z m l n z Z z K b.b.b.b.b.b.b.b.b.b.b.b.",
"b.b.b.b.b.b.b.b.b.b.P -.f ~ y ^ i ) t _ ; b.b.b.b.b.b.b.b.b.b.b.",
"b.b.b.b.b.b.b.b.b.b.b.a  .F ..G { D o.h O b.b.b.b.b.b.b.b.b.b.b.",
"b.b.b.b.b.b.b.b.b.b.b.> j [ C ` A ' d @.< b.b.b.b.b.b.b.b.b.b.b.",
"b.b.b.b.b.b.b.b.b.b.9 $.@.V ] S | 4 @ &., b.b.b.b.b.b.b.b.b.b.b.",
"b.b.b.b.b.b.b.b.b.b.# u k ' B ] 7   . * . b.b.b.b.b.b.b.b.b.b.b.",
"b.b.b.b.b.b.b.b.b.b.1 X.O.C %.0           b.b.b.b.b.b.b.b.b.b.b.",
"b.b.b.b.b.b.b.b.b.b.& 8 g *.=.$     X = . b.b.b.b.b.b.b.b.b.b.b.",
"b.b.b.b.b.b.b.b.b.b.1 +.#.5 *       = } - b.b.b.b.b.b.b.b.b.b.b.",
"b.b.b.b.b.b.b.b.b.b.% 6 6     & &   o p b.b.b.b.b.b.b.b.b.b.b.b.",
"b.b.b.b.b.b.b.b.b.b.+ b.b.o & b.b.& o b.b.b.b.b.b.b.b.b.b.b.b.b.",
"b.b.b.b.b.b.b.b.b.b.b.b.b.b.w b.b.w b.b.b.b.b.b.b.b.b.b.b.b.b.b.",
"b.b.b.b.b.b.b.b.b.b.b.b.b.b.b.b.b.b.b.b.b.b.b.b.b.b.b.b.b.b.b.b.",
"b.b.b.b.b.b.b.b.b.b.b.b.b.b.b.b.b.b.b.b.b.b.b.b.b.b.b.b.b.b.b.b."
};
