/* XPM */
static char *result[] = {
/* columns rows colors chars-per-pixel */
"32 32 170 2 ",
"   c black",
".  c #000001",
"X  c #010102",
"o  c #040408",
"O  c #040508",
"+  c #050609",
"@  c #05050A",
"#  c #0D0E16",
"$  c #0C0F17",
"%  c #0E1117",
"&  c #0F111C",
"*  c #11141C",
"=  c #13161E",
"-  c #15161D",
";  c #17171D",
":  c #19191D",
">  c #18181F",
",  c #1B1A1E",
"<  c #101321",
"1  c #121524",
"2  c #141826",
"3  c #151926",
"4  c #181A25",
"5  c #1D1C25",
"6  c #161928",
"7  c #171C29",
"8  c #181C2C",
"9  c #1F202A",
"0  c #1B2233",
"q  c #1D2031",
"w  c #1D2231",
"e  c #1E2231",
"r  c #1E2332",
"t  c #1F2537",
"y  c #212028",
"u  c #26272B",
"i  c #27292F",
"p  c #29292C",
"a  c #2B2B2E",
"s  c #2C2B2E",
"d  c #252834",
"f  c #2A2A30",
"g  c #2D2A35",
"h  c #2E2E36",
"j  c #202638",
"k  c #222739",
"l  c #22283B",
"z  c #252838",
"x  c #272B3B",
"c  c #21283D",
"v  c #2E2F3B",
"b  c #302E30",
"n  c #2F303D",
"m  c #323034",
"M  c #343237",
"N  c #35353A",
"B  c #37373B",
"V  c #32353D",
"C  c #33363D",
"Z  c #34353D",
"A  c #38373C",
"S  c #3C3B3F",
"D  c #2B3146",
"F  c #2A3247",
"G  c #293148",
"H  c #2C3348",
"J  c #333340",
"K  c #353641",
"L  c #363643",
"P  c #323646",
"I  c #3B3B41",
"U  c #383845",
"Y  c #3C3F46",
"T  c #383C4B",
"R  c #3D3C48",
"E  c #3D3D49",
"W  c #3F3E49",
"Q  c #403F4A",
"!  c #444347",
"~  c #41424A",
"^  c #45444B",
"/  c #45464D",
"(  c #48484A",
")  c #48484C",
"_  c #4C4C4F",
"`  c #494950",
"'  c #4E4E51",
"]  c #4E4E53",
"[  c #504E54",
"{  c #515154",
"}  c #515056",
"|  c #57565A",
" . c #56515C",
".. c #5C5A5D",
"X. c #5C5B5E",
"o. c #5C5B60",
"O. c #5F5E62",
"+. c #5D5865",
"@. c #636166",
"#. c #62606B",
"$. c #656469",
"%. c #69626E",
"&. c #6B696D",
"*. c #6A6870",
"=. c #726B77",
"-. c #746D7A",
";. c #767377",
":. c #77767A",
">. c #78767B",
",. c #7A787C",
"<. c #848387",
"1. c #8F8593",
"2. c #8B8990",
"3. c #908F93",
"4. c #9A8F9B",
"5. c #99979C",
"6. c #9F9B9D",
"7. c #A09CA3",
"8. c #9FA0A5",
"9. c #A7A5A9",
"0. c #A6A7AC",
"q. c #A8A6AB",
"w. c #AAA8AB",
"e. c #B0AFB4",
"r. c #B4B2B5",
"t. c #B7B5BB",
"y. c #BFBDC0",
"u. c #C0BFC4",
"i. c #C0C0C4",
"p. c #C3C1C5",
"a. c #C3C3C6",
"s. c #C6C5C8",
"d. c #CBC6C9",
"f. c #CBC9CC",
"g. c #D1CFD2",
"h. c #D5D3D6",
"j. c #D4D4D6",
"k. c #D6D4D6",
"l. c #D8D6D9",
"z. c #D9D7DA",
"x. c #DAD8DA",
"c. c #DADADC",
"v. c #DFDCDE",
"b. c #DEDDDF",
"n. c #DFDDE0",
"m. c #DFDEE0",
"M. c #DEDFE1",
"N. c #E0DFE1",
"B. c #E1DFE1",
"V. c #E2E1E2",
"C. c #E2E1E3",
"Z. c #E3E1E3",
"A. c #E4E2E4",
"S. c #E5E6E8",
"D. c #E5E6E9",
"F. c #E8E8EB",
"G. c #E8E9EB",
"H. c #EAE9EA",
"J. c #EAEAEC",
"K. c #EDEDEE",
"L. c #EEEDEF",
"P. c #EFEFF0",
"I. c #F3F2F3",
"U. c #F3F3F4",
"Y. c #F4F4F4",
"T. c #F5F4F5",
"R. c #FAF9FA",
"E. c gray98",
"W. c white",
"Q. c None",
/* pixels */
"Q.Q.Q.Q.Q.Q.Q.Q.Q.Q.Q.Q.Q.Q.Q.Q.Q.Q.Q.Q.Q.Q.Q.Q.Q.Q.Q.Q.Q.Q.Q.Q.",
"Q.Q.Q.Q.Q.Q.Q.Q.Q.Q.Q.Q.Q.Q.Q.Q.Q.Q.Q.Q.Q.Q.Q.Q.Q.Q.Q.Q.Q.Q.Q.Q.",
"Q.Q.Q.Q.Q.Q.Q.^ ; Q.Q.Q.Q.Q.Q.Q.Q.Q.- h Q.Q.Q.Q.Q.Q.Q.Q.Q.Q.Q.Q.",
"Q.Q.Q.Q.Q.Q.>.t.f Q.Q.Q.Q.Q.Q.Q.Q.Q.y 7.$.Q.Q.Q.Q.Q.Q.Q.Q.Q.Q.Q.",
"Q.Q.Q.Q.Q.I z.q.: Q.Q.Q.Q.Q.Q.Q.Q.Q.m d.l.M Q.Q.Q.Q.Q.Q.Q.Q.Q.Q.",
"Q.Q.Q.Q.Q.,.x.S Q.Q.Q.Q.Q.Q.Q.Q.Q.Q.Q.&.I.:.Q.Q.Q.Q.Q.Q.Q.Q.Q.Q.",
"Q.Q.Q.Q.Q.5.0.Q.Q.Q.Q.Q.Q.Q.Q.Q.Q.Q.Q.B B.6.Q.Q.Q.Q.Q.Q.Q.Q.Q.Q.",
"Q.Q.Q.Q.Q.8.e.Q.Q.Q.Q.Q.Q.Q.Q.Q.Q.Q.Q.b k.<.Q.Q.Q.Q.Q.Q.Q.Q.Q.Q.",
"Q.Q.Q.Q.Q.;.v...Q.Q.Q.Q.Q.Q.Q.Q.Q.Q.Q.) Z.X.Q.Q.Q.Q.Q.Q.Q.Q.Q.Q.",
"Q.Q.Q.Q.Q.Q.9.h.O.p N } | ] Y C s A @.y.p.u Q.Q.Q.Q.Q.Q.Q.Q.Q.Q.",
"Q.Q.Q.Q.Q.Q.a 3.C.j.N.L.P.K.G.S.V.A.I.g.[ Q.Q.Q.Q.Q.Q.Q.Q.Q.Q.Q.",
"Q.Q.Q.Q.Q.Q.Q.i c.W.W.W.W.W.W.W.W.W.E.*.Q.Q.Q.Q.Q.Q.Q.Q.Q.Q.Q.Q.",
"Q.Q.Q.Q.Q.Q.Q.~ D.W.W.W.W.W.W.W.W.W.T.o.Q.Q.Q.Q.Q.Q.Q.Q.Q.Q.Q.Q.",
"Q.Q.Q.Q.Q.Q.Q.` J.W.W.W.W.W.W.W.W.W.Y.{ Q.Q.Q.Q.Q.Q.Q.Q.Q.Q.Q.Q.",
"Q.Q.Q.Q.Q.Q.Q./ F.W.W.W.W.W.W.W.W.W.Y.' Q.Q.Q.Q.Q.Q.Q.Q.Q.Q.Q.Q.",
"Q.Q.Q.Q.Q.Q.Q.V M.W.W.W.W.W.W.W.W.W.U._ Q.Q.Q.Q.Q.Q.Q.Q.Q.Q.Q.Q.",
"Q.Q.Q.Q.Q.Q.Q., s.W.W.W.W.W.W.W.W.W.H.( Q.Q.Q.Q.Q.Q.Q.Q.Q.Q.Q.Q.",
"Q.Q.Q.Q.Q.Q.Q.5 #.u.n.R.W.W.W.W.W.W.w.Q.Q.Q.Q.Q.Q.Q.Q.Q.Q.Q.Q.Q.",
"Q.Q.Q.Q.Q.Q.Q.> v K Q 2.a.i.f.b.m.r.! Q.Q.Q.Q.Q.Q.Q.Q.Q.Q.Q.Q.Q.",
"Q.Q.Q.Q.Q.Q.Q.Q.Q.W 1. .9 z P T Z Q.Q.Q.Q.Q.Q.Q.Q.Q.Q.Q.Q.Q.Q.Q.",
"Q.Q.Q.Q.Q.Q.Q.Q.Q.g -.4.%.d F G 0 Q.Q.Q.Q.Q.Q.Q.Q.Q.Q.Q.Q.Q.Q.Q.",
"Q.Q.Q.Q.Q.Q.Q.Q.Q.Q.# U -.=.n j l Q.Q.Q.Q.Q.Q.Q.Q.Q.Q.Q.Q.Q.Q.Q.",
"Q.Q.Q.Q.Q.Q.Q.Q.Q.Q.& t x E +.R e Q.Q.Q.Q.Q.Q.Q.Q.Q.Q.Q.Q.Q.Q.Q.",
"Q.Q.Q.Q.Q.Q.Q.Q.Q.Q.< D H r 4 J L = Q.Q.Q.Q.Q.Q.Q.Q.Q.Q.Q.Q.Q.Q.",
"Q.Q.Q.Q.Q.Q.Q.Q.Q.Q.1 c 7 + * k q 3 o Q.Q.Q.Q.Q.Q.Q.Q.Q.Q.Q.Q.Q.",
"Q.Q.Q.Q.Q.Q.Q.Q.Q.Q.2 $ X   . % w 8 @ Q.Q.Q.Q.Q.Q.Q.Q.Q.Q.Q.Q.Q.",
"Q.Q.Q.Q.Q.Q.Q.Q.Q.Q.O           + 6 Q.Q.Q.Q.Q.Q.Q.Q.Q.Q.Q.Q.Q.Q.",
"Q.Q.Q.Q.Q.Q.Q.Q.Q.Q.Q.Q.  Q.    Q.Q.Q.Q.Q.Q.Q.Q.Q.Q.Q.Q.Q.Q.Q.Q.",
"Q.Q.Q.Q.Q.Q.Q.Q.Q.Q.Q.Q.  Q.Q.Q.Q.Q.Q.Q.Q.Q.Q.Q.Q.Q.Q.Q.Q.Q.Q.Q.",
"Q.Q.Q.Q.Q.Q.Q.Q.Q.Q.Q.Q.Q.Q.Q.Q.Q.Q.Q.Q.Q.Q.Q.Q.Q.Q.Q.Q.Q.Q.Q.Q.",
"Q.Q.Q.Q.Q.Q.Q.Q.Q.Q.Q.Q.Q.Q.Q.Q.Q.Q.Q.Q.Q.Q.Q.Q.Q.Q.Q.Q.Q.Q.Q.Q.",
"Q.Q.Q.Q.Q.Q.Q.Q.Q.Q.Q.Q.Q.Q.Q.Q.Q.Q.Q.Q.Q.Q.Q.Q.Q.Q.Q.Q.Q.Q.Q.Q."
};
