/* XPM */
static char *d4983c178662409dc45eddfc16950118YrmyxoiYquJiTvDp[] = {
/* columns rows colors chars-per-pixel */
"32 32 194 2 ",
"   c #481907",
".  c #4F150D",
"X  c #4B190C",
"o  c #53170D",
"O  c #471514",
"+  c #441917",
"@  c #4D1D14",
"#  c #4D1E19",
"$  c #541D15",
"%  c #591E13",
"&  c #511F1B",
"*  c #4F200E",
"=  c #4E2217",
"-  c #46201B",
";  c #4D241B",
":  c #552215",
">  c #5A2316",
",  c #522814",
"<  c #5B2916",
"1  c #54231B",
"2  c #5B241B",
"3  c #54291D",
"4  c #5C2A1C",
"5  c #602313",
"6  c #602A16",
"7  c #61251A",
"8  c #642B1E",
"9  c #6C2E1F",
"0  c #66311D",
"q  c #6B311D",
"w  c #462121",
"e  c #4E2523",
"r  c #4A272A",
"t  c #542423",
"y  c #5B2421",
"u  c #522925",
"i  c #5C2B24",
"p  c #572429",
"a  c #562C29",
"s  c #5B2D2A",
"d  c #5A3126",
"f  c #5D312B",
"g  c #523030",
"h  c #5E3030",
"j  c #5F3931",
"k  c #5D3538",
"l  c #622723",
"z  c #622D23",
"x  c #6A2C22",
"c  c #642D2A",
"v  c #6C2F2D",
"b  c #643324",
"n  c #6C3424",
"m  c #6C3925",
"M  c #65332A",
"N  c #6A342B",
"B  c #663B28",
"V  c #6C3C2E",
"C  c #753A25",
"Z  c #783C25",
"A  c #71312B",
"S  c #733C2B",
"D  c #783D2B",
"F  c #6B3333",
"G  c #663B33",
"H  c #6D3B33",
"J  c #6A3E39",
"K  c #643434",
"L  c #723533",
"P  c #733C34",
"I  c #7A3E34",
"U  c #753D3C",
"Y  c #7A3E3A",
"T  c #6E422F",
"R  c #77412F",
"E  c #79402F",
"W  c #6F423D",
"Q  c #754133",
"!  c #7C4333",
"~  c #774836",
"^  c #75433A",
"/  c #7B443A",
"(  c #724B3F",
")  c #7D493D",
"_  c #6D4642",
"`  c #744740",
"'  c #7C4442",
"]  c #744C47",
"[  c #7A4E43",
"{  c #7F5145",
"}  c #7B5451",
"|  c #844434",
" . c #814A36",
".. c #8C4934",
"X. c #814339",
"o. c #824B3C",
"O. c #8A4D3D",
"+. c #904C3A",
"@. c #8D5237",
"#. c #84513D",
"$. c #8D523C",
"%. c #8F583D",
"&. c #93533D",
"*. c #99553E",
"=. c #94583B",
"-. c #814643",
";. c #834C43",
":. c #8A4D44",
">. c #864E4A",
",. c #884B4B",
"<. c #954D46",
"1. c #964E4B",
"2. c #855243",
"3. c #8D5444",
"4. c #875846",
"5. c #8C5945",
"6. c #84544B",
"7. c #8C544B",
"8. c #8B594C",
"9. c #945444",
"0. c #995643",
"q. c #945A44",
"w. c #9B5A43",
"e. c #92554A",
"r. c #9B564C",
"t. c #945B4B",
"y. c #9A5D4B",
"u. c #845652",
"i. c #8C5450",
"p. c #8E5B51",
"a. c #875C59",
"s. c #845D55",
"d. c #945652",
"f. c #9A5652",
"g. c #945C53",
"h. c #9A5D53",
"j. c #975D5B",
"k. c #9C5D59",
"l. c #A35D47",
"z. c #A05D48",
"x. c #A05D52",
"c. c #976045",
"v. c #9D6347",
"b. c #92614F",
"n. c #9C624C",
"m. c #976152",
"M. c #9A6354",
"N. c #9E6853",
"B. c #966259",
"V. c #9A6359",
"C. c #9E6C5A",
"Z. c #9B735E",
"A. c #A1634C",
"S. c #AA654E",
"D. c #A5684A",
"F. c #AB684F",
"G. c #A46553",
"H. c #A96455",
"J. c #A46954",
"K. c #AB6C55",
"L. c #A1655B",
"P. c #A9655B",
"I. c #A36B5A",
"U. c #AA6D5E",
"Y. c #A77057",
"T. c #AD7256",
"R. c #AB715D",
"E. c #9F6761",
"W. c #A16761",
"Q. c #A36B63",
"!. c #AB6E64",
"~. c #B06F65",
"^. c #A67462",
"/. c #AC7564",
"(. c #AF7862",
"). c #AD796D",
"_. c #B17662",
"`. c #B77D63",
"'. c #B97B62",
"]. c #B47E6C",
"[. c #BB7C6C",
"{. c #AF7972",
"}. c #B17C72",
"|. c #BD7D72",
" X c #C07F6C",
".X c #B5816C",
"XX c #BA816C",
"oX c #B38172",
"OX c #BC8372",
"+X c #BD8679",
"@X c #C4896B",
"#X c #C38C7A",
"$X c #BE8881",
"%X c #C69281",
/* pixels */
"*.&.3.:.p._ _ a.k.1.<.r.r.z.r.f.j.' U 3.t.E ! y.4.7.g.g.7.P ! g.",
"*.0.y.g.u.J s G / / :.<.r.r.r.e.' s z 3.9.m 0 ~ g.V.8.P N 1 N 8.",
"X.:.t.V.>.J t ; b z m o.X.o.o.o.c 2 v r.9.R 4 3 H ^ F $ @ i ^ 7.",
"N S ;.7.M M M 2 4 : * b b b b B t v :.H.9.m.[ - : : 2 8 % ;.g.7.",
"t M H H $ p.).M.oX4.4     * : > M L.[.x.<.r.` T XXH.H. XH.0.&.0.",
"f t # $ 4 :.M.t././.C.#.) ;.4.8.Q.~.H.0.y.;.j d XXS.l.K.l.w.w.w.",
"k p i ^ o.$.3.q.y.I.U.L.y.M.L.!.|.P.r.O.4.H u i !.l.0.w.w.0.+...",
"s f 8.%X/.t.0.J.0.:.9.L.e.g.h.L.f.f.e.3.N 3 u G g.e.e.y.9.9.| q ",
"4.R./.M.3.q.9.9.D S ! t.h.h.B.B.F F F F # i i 1 L ,.d.j.H V 4 , ",
".X^.M.8.M.t.t.M.8 7 N / g.4./ P p p t t 3 u.8.i l v c i 2 @ B Z.",
"L.V.g.7.k.:.:.j.;.H z N / V b 2 c v B M S C.^.2.I A x x R 0 #.OX",
"y -.j.d.i.L P i.+XB.Q z > 1 : 1 g.p.p.p.3.4.I.+X!.k.f.f.9.5.c.v.",
"% v L v L 2 v E.B.{.}.V.B.g./ 8 N o.7.g.F v ' W.h.g.g.e.C | @.0.",
"W.X.8 7 o % / C.B.Q.g.P ^ ^ M > o.3.t.t.!.Y l -.L / L x $.9.0.9.",
"|.9.n D X.X.3.t.g.V.2.4 z 4 2 b J.v.w.t. XX.% l s s i 1 g.g.t.3.",
"M.5.y.U.@X~.M.O.3.M.4.B 4 $ 4 R `.D.=.*.y...x % 3 + t J } 6.t.e.",
"^ u.g.d.P.x.9.e.n.| z > X ,  ..XK.v.0.$.w.y.y.y.XXo.e w k u.B.y.",
"p K U ' f.h.e.I x 2 > 4 b.%.c.N.t.t.t.t.t.t.t.t.Y./.s.g r g z > ",
"p p a h ^ ' L c O # z R .XT.v.%.t.) ~ ;.4.8.7.8.9.L.u.u ; = 6 Z ",
"U s 1 1 = & % 2 t s o.n.=.=.c.b.8.i # b 8.u.7.6.7.I i 1 1 b &.@X",
"H.'.C.8 < C.OXh.d.t.I.'.A. .T 8.4.^ i @ $ b ) 7.% o X % 4 b.XXD.",
"*.F.D.0.Y.8.2.y.e.e.G./. .m T 5.4.2.o./ M : > b > 9.N.o. .J.Y.=.",
"&.q.n.I.OX~ d { ) | :.p.b R %.=.q.9.t.q.C C S C Z K.'.A.&.9.9.9.",
"@.%.=.$.M.V 3 M c i f H < q.'.&.=.9.3.O.x I.|.L.9.@.@.=.0.*.3.9.",
"=.=.=.%.b.~ 4 , s y @ X ].(.A...+.0.9.<.7 l -.g.M.m q q.0.w.0.*.",
"q.q.q.t.R 6 B B.# 1 ^ V./.A.r.r.<.9.<.e.,.F y U z 8 Q t.t.=.=.*.",
"{ { [ o.8 % ! .X^ M ^ Q.V.t.e.q.9.9.e.1.d.Y y & + u V ) 2.9.9.w.",
"M M N N % 8 | y.#X/ & c ,.t.t.3.3.e.7.e.:.L F H a e ; = N ~ 2.9.",
"; 1 # X 2 M.[.y.R.S % z P N Q 4.g.B.;.M Q > / #Xm.M.o.3 3 t a a ",
"^ ) 7.m.t.y.y.$.v.D % . z M H W J ` ^ M 3 : S J.w.w.y.M.8.[ ] } ",
"q.n.Y.(.N.5.2.t.9.O.| E 1 i i s e a f f : R 5.q.w.w.J.[.R.B.4.6.",
"=.=.@.@.%.4.4.b.9.y.T.#XS 3 t r - - ; 1 b C..Xn.=.w.l.J.t.n.o.q "
};
