/* XPM */
static char *_b215f69d95845a5830aa8d2c060299frYuJwd58gTubF52f[] = {
/* columns rows colors chars-per-pixel */
"32 32 118 2 ",
"   c #2E0E00",
".  c #300B00",
"X  c #341400",
"o  c #3A1501",
"O  c #371800",
"+  c #3C1B02",
"@  c #341208",
"#  c #3D1108",
"$  c #3D1C09",
"%  c #3F2003",
"&  c #401E03",
"*  c #421D09",
"=  c #421E12",
"-  c #4B1F12",
";  c #422205",
":  c #44240B",
">  c #49250B",
",  c #47280B",
"<  c #4A290D",
"1  c #462610",
"2  c #4A2613",
"3  c #4C2B13",
"4  c #48261C",
"5  c #4E2C1B",
"6  c #502713",
"7  c #512D15",
"8  c #582F13",
"9  c #522D1B",
"0  c #582F1B",
"q  c #4F3013",
"w  c #533216",
"e  c #563814",
"r  c #583A16",
"t  c #54331B",
"y  c #59361B",
"u  c #57381B",
"i  c #5B3A1D",
"p  c #5A2E22",
"a  c #573621",
"s  c #593620",
"d  c #5C3C23",
"f  c #5E3D29",
"g  c #623E22",
"h  c #623E2C",
"j  c #674716",
"k  c #63441E",
"l  c #764D1F",
"z  c #71521B",
"x  c #78501D",
"c  c #5F4024",
"v  c #634226",
"b  c #6C4726",
"n  c #6B4A25",
"m  c #65442B",
"M  c #69462B",
"N  c #67482B",
"B  c #6B4A2D",
"V  c #734D25",
"C  c #704F2C",
"Z  c #755525",
"A  c #73532D",
"S  c #7B5329",
"D  c #664631",
"F  c #6B4633",
"G  c #6D4C33",
"H  c #67453B",
"J  c #6E4D39",
"K  c #714E33",
"L  c #784C31",
"P  c #724F39",
"I  c #7A4D3C",
"U  c #6F5033",
"Y  c #735236",
"T  c #7A5435",
"R  c #7A5A36",
"E  c #75543B",
"W  c #7A553B",
"Q  c #77583C",
"!  c #7B5A3E",
"~  c #6F4D41",
"^  c #745342",
"/  c #7D5C42",
"(  c #7F6042",
")  c #805934",
"_  c #835B3E",
"`  c #88693D",
"'  c #815E43",
"]  c #836145",
"[  c #8C6347",
"{  c #876945",
"}  c #85654A",
"|  c #8A664C",
" . c #87684C",
".. c #8B6A4D",
"X. c #946E49",
"o. c #8D6D53",
"O. c #8E6C58",
"+. c #966E54",
"@. c #937357",
"#. c #94745A",
"$. c #98725D",
"%. c #97785B",
"&. c #9B7B5D",
"*. c #986C61",
"=. c #977660",
"-. c #9D7C63",
";. c #A17C64",
":. c #A87F69",
">. c #9F815F",
",. c #A38367",
"<. c #A3836A",
"1. c #AA856C",
"2. c #AD8C6F",
"3. c #A78771",
"4. c #AE8D72",
"5. c #B08E73",
"6. c #B19178",
"7. c #BB9B84",
/* pixels */
"t E J a 3 D G G ( 3 % % U D U U u ^ c   $ c c J ^ E D c 4 D H ~ ",
"D F c : + D / m Q 3 q  .( ( U E Q D c 3 % % c H D G D 5 % $ f ~ ",
"c t 3 $ c J E c Q 1 c 3.Q E E Q ^ D $ % c 5 % c N D c % 5 % 5 H ",
"$ a 3 3 =./ D } c < c Q N c E D c $ % 3 <.c % q U c u 3 $ 3 5 $ ",
"6.u X % O t G q t % 3 1 c c D c ( t O O Q >.( % U e %   6.( ( ( ",
"( U U  .% , 3 3 $ % % $ $ 3 $ a E $ t #.D ( D % q % u @.( Q U ( ",
"c U ( %.N 1 X % c a 4 ~ 3 c f $ t 5 c o.D Q u % % r Q >.Q U G ! ",
"/ c c c <.d % d =.c c -.( 3.O.% % $ a / U Q c % % o.#.r Q u c ( ",
"a E E r q O c 3.( t $ t ^ E E ( $ % c D J ^ a 5 <.( E ( c E U U ",
"c N c q   E #.( / J a $ 5 J D $ $ O O 5 D $ % $ c J J D c D Q c ",
"u u % % % ( o.G J / U a O a c $ ^ H $ 5 a $ 5 c $ a D a D t q c ",
"% 3 % , c E U ^ D E ( ( c % % q <.o.J X 5 @ J 3.$ $ 5 c % 3 $ % ",
"%   X % $ 5 f c Q G N ( Q u c 3.( Q u % O >.=.t t   D 7.^ q % % ",
"o.a % 5 % 1 t t c D G Q U < e ( E % % O ( ( J D % U O.( c q q $ ",
"<.( a $ t c a % 5 a c D , % t ! r % r U >.Q c t % ( >.c Q 3 % ( ",
"/ @.( $ D @.o.% q % % m % % < i % % k >.U c c % $ c ( U Q % N 6.",
"j ` W o F F P Y &.i o 9 ; ; ; ; % % % , ; 8 w ; g E K i < + i o.",
"z Z b & 2 d ! E | | E 3 X Y { B A N N n v v i > > B ! v < [ ] T ",
"Z Z Y y * 5 F B m ' W : d / #.( Q ! ( { Y Y K w ; v ' v X ..' Y ",
"l A ' 4.* * * v W i : + 4.o.E U Q B U B g M K i ; > M b > ] Y W ",
"T B B R 5.g o 7 B t : ; ..U J / Y v C ' / C i > < g b 7 X < v ] ",
"Q m m ` ! ..G $ 3 % + ; , N ^ H U U K i < > < ; + ; X < ' ] Y v ",
"P P B B B %./ X O u n k + 3 H ~ m E Y w ; ; w M v g > w W K b y ",
"h P G A E Y d 1 3 { >.C r + 4 H / v , w y 7 M 1.B Y g & X + ; + ",
"2 * 8 T i v s 2 *.@.R n { w @ 4 2 ; + & 2.} ] Y K B w + ; . ' -.",
"O.h o > k i * > } ' C n T N 9 = 3 & y @...+.! y 7 + > ; & K } @.",
"$.I w o M - * 9 / M b b v y 3 2 9 < Y -.[ m i v > 7 y ; u ;.[ / ",
"g ;.+.> > & & 9 b K T y B i 6 : * } <.i Y B t + ; @.@.+ 5.Y B W ",
") g [ :.* * h ;.W W L g > . y 1.> o < y B 7 & d &.@.y 3 E B W / ",
"L ) I ' - * p +.L _ M 9 & T ..` W > + i y ; t [ ] W m & d y K ! ",
"l l L h p p ) ' _ V 0 6 g [ X.A T m w + $ t o.;.' G m 7 o m Y G ",
"l ) L I * *.:.h _ 8 - 6 1.[ ) V K ' M 3 o ] 1.Y / P M ' 7 m P Y "
};
