/* XPM */
static char *ca92e531430f44c9bb1fc63a0f331745iwgEXjkiixVJ8CuM[] = {
/* columns rows colors chars-per-pixel */
"32 32 32 1 ",
"  c #AF6C34",
". c #B6733A",
"X c #B9763C",
"o c #BF7B41",
"O c #C17E43",
"+ c #C58146",
"@ c #C98447",
"# c #CA8947",
"$ c #C68349",
"% c #CA864A",
"& c #CD8A4D",
"* c #D08D4E",
"= c #D3924E",
"- c #DA9B4F",
"; c #CE8C50",
": c #D28E52",
"> c #D59354",
", c #D89656",
"< c #D69A52",
"1 c #DA9B55",
"2 c #D69358",
"3 c #D99659",
"4 c #DC9C5A",
"5 c #E09F5C",
"6 c #DCA157",
"7 c #DDA25A",
"8 c #E1A25D",
"9 c #E6A95F",
"0 c #E8AB5F",
"q c #E3A461",
"w c #E5A962",
"e c #E8AA63",
/* pixels */
":222;22;OqOqOOOO2O2OOOOOO3OO3O33",
"&&;$ooooOOOOqOOOOOOqqqqq3q3q33O3",
"oO%;;%;;OqqOqOO23q3qqOqOOOqOO333",
";22q4222eOqeq3eq3O23qOqqqq33q33O",
"222243225OqO5e352OqOq3Oq333OO3O3",
"2;;2;;;2qOOqOOO52OO3OOqOOOO32OOO",
";O;$$$%;OqqOOOOOOO3OOOqOOO3O3O3O",
"ooo$o$o$OOOO5OOO2OO3qOOO3OOOO3O3",
"OoO;:O:::O::3OO5qOO3OOOOO3O3OOq3",
";;O;:O:::::OOO3OOO3Oqqq3Oq33qq33",
"2O;;*::>333:O3O3q3OqOqOqO3Oq33OO",
"22;::23>:3335O,3333qOOqOOOOOOOOO",
";O*%%**&OO,O333OOq3OOOqOOOOOOOO3",
"OOOOO&&O:OOOOOOOOO33OOOqq33q3333",
"2&&:*&&&:O:OOOOO3OO3OqOqq3qO3OO3",
"3333535555535,,*qqq3OqqOq3OqO3qO",
"14761,-,454454,1qq3qqeqeeqeqOq33",
"77441<>188858555qqqqqqqOqqOqee35",
"q44,>14541454155qqqqqqeeOqqq3533",
"443,4454,,453>,,3q33qqOOqqOeqq55",
"222233>:>,44,,*1OqOeqOq5,,5,3535",
"$o.oOO+%%&::****OOqOOqO5,5553O*,",
"o.  XO%&@@***#*=qOqeqOqq55555-*-",
"$;;23:34,*:5,=45qOOOOqO5,055e0,,",
"22>2;;<3,:<75454;##;;2<<5588981-",
"72>>>>21,<444441<==;;<775555e8,1",
"4>>747761447888877w777w75599w958",
"1><7wwwq88q788747w7777w75999w999",
"7616w0971611161<7q71677777776777",
"<67678661<<<<<<<7772<67777767777",
"&<4<==-<---1761-<6<<666<666<<676",
"$%;:**--==-811666<6<66<<66976007"
};
