/* XPM */
static char *eac54e4900644a0aa88f5d9310b14fdfkjAITUfCxuFhAxFQ[] = {
/* columns rows colors chars-per-pixel */
"32 32 55 1 ",
"  c #7C7B75",
". c #817D73",
"X c #868276",
"o c #888376",
"O c #87837A",
"+ c #8A867A",
"@ c #8E897D",
"# c #938D7D",
"$ c #97907D",
"% c #878582",
"& c #8B8A87",
"* c #8D8C8B",
"= c #928E81",
"- c #908F8E",
"; c #969185",
": c #9A9485",
"> c #92918F",
", c #9A968A",
"< c #9E998C",
"1 c #959493",
"2 c #989794",
"3 c #9D9A95",
"4 c #9C9B9B",
"5 c #A09C8F",
"6 c #A29D91",
"7 c #A09F9F",
"8 c #A3A19D",
"9 c #A4A4A3",
"0 c #A9A8A7",
"q c #ACACAB",
"w c #B0AFAD",
"e c #B2B1AE",
"r c #ADAEB3",
"t c #AFB0B7",
"y c #B4B3B2",
"u c #B8B6B3",
"i c #B6B6B9",
"p c #BBBBBD",
"a c #C0BFBF",
"s c #BDBDC2",
"d c #BFC0C5",
"f c #C2C3C4",
"g c #C9C8C7",
"h c #C5C6CA",
"j c #C7C8CC",
"k c #CACACD",
"l c #CDCDD2",
"z c #CFD0D4",
"x c #D1D2D6",
"c c #D5D6DA",
"v c #D7D8DC",
"b c #D9DADE",
"n c #DDDDE1",
"m c #DFE0E3",
"M c #E0E0E4",
/* pixels */
"qkkqiisshq+pggkdkkgh9<hgsgfhpds>",
"ennxxnnlcpXfvnbjvxcvq,bblcxvshh&",
"elvxnnnccd+ivlcxzdkj9,lcvlcczcz&",
"ulvlclbncs+gncccdlbj9,scjjxcbbc&",
"yxnxxlbxcyXscnvcxvnc03ljslxjncl1",
"unbcccxnnpXfnnxsjlnl4<vczxlllzl1",
"ymcccxnbch@fxxcljjjcw<jvnxjxxlk*",
"ubncccldlf@dclcjhcxnw,xbnnllhsk1",
"ucbvcbztlh+iccmccbcMy,lllnclcjz1",
"9iyfppqrpqowiiuyiqip4=r70iyqtiu%",
"#==##@###@##+@@+@+++o$@X%@@@@&=@",
"9kkfggjjgp+yhglkakgfq<fipklkgap&",
"ubbMnxbbbf+jnbclsbnnw<lllvnnmbf.",
"ebvxxxnbxiXafcvchxcnw<lbnnccbbz-",
"wbzjvmbxvi+ajxxxlxnc03zxxlnjxnc1",
"ecxvbxvxnfXgnxnzkkcl4,llxdllxlj2",
"ylxnbxcjxf+azjccssnvw,cbclvlvlz-",
"yllcccnhhsXslhllssxxq<cblcchxcx2",
"ynclhfccbp.gnzjhjhth1>sfcxlkccc*",
"yvxsxlbccpXsccjvnnhc0;ssccbvbbv*",
"4yq0yqeq04X90q0q9qyu2;w899yweyqO",
"#=,<<,;,,=$,<;<<63<6::5:,:,,<<<=",
"4ixcklslli#psjxxcbcce5xkjzxxlxf*",
"ebcnlccccf@gcbbvlshnw<xbcnncxcl*",
"ybbnnljjls@gxhxnshlb05cbvcxsjcv2",
"0hbnbbljxh@gchjvlkbnq5kxvxncjxn2",
"qxnncnnxlf+glsscchcb05cxccljxnv2",
"ebxcxxnblpXfxcvllccgw5vcllhdnnx-",
"0nccncbncsOgzjlhcllle<bvclxllxc&",
"rjcxMbbcxiOfdhtlljzc05vlcccxcjh&",
"exzcncnnzs+hxhcnxjlct3ccznnncdl1",
"&41*42447-X271444114%;777777444 "
};
