/* XPM */
static char *_7652_4c718c858388f37f845e39dcbbef3f5b7742f8327525a2720b74c65c74f2da59[] = {
/* columns rows colors chars-per-pixel */
"32 32 233 2 ",
"   c #0C393F",
".  c #003449",
"X  c #003E5C",
"o  c #003A56",
"O  c #003C64",
"+  c #003968",
"@  c #00455C",
"#  c #004563",
"$  c #004A63",
"%  c #004469",
"&  c #034C6B",
"*  c #0A4D6A",
"=  c #115D6D",
"-  c #1F576E",
";  c #004474",
":  c #024D73",
">  c #034C7B",
",  c #084C73",
"<  c #045374",
"1  c #0B5473",
"2  c #05547B",
"3  c #0B537B",
"4  c #0C5C7B",
"5  c #095A7A",
"6  c #175A79",
"7  c #05576D",
"8  c #225D7F",
"9  c #16607D",
"0  c #1A657C",
"q  c #0F6775",
"w  c #2A6A76",
"e  c #306B7B",
"r  c #45767A",
"t  c #014B81",
"y  c #015384",
"u  c #035A84",
"i  c #0B5C83",
"p  c #0F5D8B",
"a  c #145C89",
"s  c #115983",
"d  c #0E6685",
"f  c #146482",
"g  c #1B6384",
"h  c #1C638A",
"j  c #1B6C8C",
"k  c #1B6985",
"l  c #1D7D8D",
"z  c #1E6593",
"x  c #1C6D93",
"c  c #186595",
"v  c #1D729B",
"b  c #0F6693",
"n  c #236B8B",
"m  c #2D7B8E",
"M  c #28748A",
"N  c #33758A",
"B  c #236C93",
"V  c #276793",
"C  c #2B7594",
"Z  c #2D7C9D",
"A  c #277697",
"S  c #35779C",
"D  c #347B9C",
"F  c #367A9B",
"G  c #226EA2",
"H  c #2979A4",
"J  c #327DA4",
"K  c #347DAA",
"L  c #3A849E",
"P  c #3B8794",
"I  c #3482A4",
"U  c #3B8CAB",
"Y  c #3986A8",
"T  c #3D85B2",
"R  c #3B8BB4",
"E  c #3C8CBC",
"W  c #3588B8",
"Q  c #3F90BB",
"!  c #3088AB",
"~  c #478B9C",
"^  c #4C8A90",
"/  c #448BAA",
"(  c #4792A7",
")  c #5493AC",
"_  c #569AAE",
"`  c #458CB8",
"'  c #4493B3",
"]  c #4A93B4",
"[  c #4C93BB",
"{  c #4C9BBB",
"}  c #4798B6",
"|  c #569CBB",
" . c #6A9DA1",
".. c #729FA4",
"X. c #5AA2BE",
"o. c #61A3BA",
"O. c #3D92C7",
"+. c #4B9DC2",
"@. c #4898C4",
"#. c #529BC4",
"$. c #5B9DC1",
"%. c #569DC8",
"&. c #529BD2",
"*. c #629ED0",
"=. c #5AA3C5",
"-. c #5DAAC5",
";. c #57A8C9",
":. c #55A2D3",
">. c #5DADD6",
",. c #5BA7DA",
"<. c #5AB1DB",
"1. c #62ADCA",
"2. c #62AAC3",
"3. c #70ADC9",
"4. c #69B5C9",
"5. c #64ACD3",
"6. c #65ADDB",
"7. c #64B3D2",
"8. c #6BB4D3",
"9. c #6DBCD5",
"0. c #64B5DC",
"q. c #6BB6DC",
"w. c #66BADC",
"e. c #6CBBDC",
"r. c #63B8D5",
"t. c #71B4DA",
"y. c #74BBDD",
"u. c #78BFD3",
"i. c #78BAC8",
"p. c #5DB6E8",
"a. c #65ADE2",
"s. c #63B5E3",
"d. c #6BBBE3",
"f. c #6DBEEA",
"g. c #68B7E7",
"h. c #73BEE4",
"j. c #73BCEB",
"k. c #7ABFEA",
"l. c #69C2CE",
"z. c #74C2D3",
"x. c #7BC6D7",
"c. c #74C1DC",
"v. c #7AC2D9",
"b. c #7CCBDF",
"n. c #7BCBD2",
"m. c #7DD0DE",
"M. c #6CC3E5",
"N. c #6DC3EB",
"B. c #6DCFEE",
"V. c #67C5E6",
"C. c #75C3E4",
"Z. c #7CC5E2",
"A. c #77CAE3",
"S. c #7CCAE3",
"D. c #73C4EB",
"F. c #7BC4EC",
"G. c #75C9EC",
"H. c #7CCCEB",
"J. c #7DD1ED",
"K. c #7AD2E8",
"L. c #68C6F5",
"P. c #73C4F2",
"I. c #7DC4F3",
"U. c #7CCDF3",
"Y. c #74CCFC",
"T. c #7ACDFF",
"R. c #78C7F6",
"E. c #7CD4F5",
"W. c #7DD4FD",
"Q. c #7CDAFB",
"!. c #75D5FB",
"~. c #90BFC7",
"^. c #84BDD8",
"/. c #83C5DC",
"(. c #88C8DA",
"). c #83D2DF",
"_. c #92CFD6",
"`. c #83CCE5",
"'. c #84C3EB",
"]. c #83CCEA",
"[. c #88CCE7",
"{. c #91CBE1",
"}. c #8EDAE5",
"|. c #86D4EC",
" X c #8BD4ED",
".X c #87D5E6",
"XX c #92D9E6",
"oX c #96D6EB",
"OX c #82CCF4",
"+X c #84CDFB",
"@X c #89C9F6",
"#X c #84D2F4",
"$X c #8BD4F5",
"%X c #89DCF3",
"&X c #83D4FE",
"*X c #8CD4FE",
"=X c #84DBFD",
"-X c #8DDBFB",
";X c #85DAF3",
":X c #91DCF4",
">X c #99DAF1",
",X c #93DCFD",
"<X c #9ADEFD",
"1X c #93D7F3",
"2X c #A0DEF3",
"3X c #98E5EE",
"4X c #8AE1FF",
"5X c #87E3F8",
"6X c #93E1F6",
"7X c #9DE4F3",
"8X c #95E3FD",
"9X c #9BE5FE",
"0X c #97EBFF",
"qX c #9CEAFF",
"wX c #9BE8F5",
"eX c #A5EEEE",
"rX c #ACEDED",
"tX c #A5E6FE",
"yX c #AAE4FD",
"uX c #A3ECFF",
"iX c #AAECFF",
"pX c #A4E9F6",
"aX c #B7ECFD",
"sX c #A4F2FF",
"dX c #ACF4FF",
"fX c #ACFBFF",
"gX c #AFF5F5",
"hX c #B3F5FF",
"jX c #BCF3FE",
"kX c #B4FCFF",
"lX c #BBFDFF",
"zX c #C1FEFE",
"xX c #CAFFFF",
/* pixels */
"8XZ.g.k.a.K ; # _ z.8XOXf.P.s.d 0.$Xo.@ `.sX|.;XU.U.,.; &X&X0.G.",
"c.*X+X6.j.@.1 v.~ ( `.q.+X&X<.u e.7.Y 8.9X:XA.h.y.:.J D.! d.8XG.",
"#XF.j.&.,.K C hX~ ~ _ ` j.Y.Y.y e.[ 1 <XOXa.T #.1.f 5 fXU U C.#X",
"OX0.g.T.a./ g hXlX3.& > &.f.p.u e.%.a 6.+X` O i & $ m c.kX-.% -X",
"d.:.; t > [ xXaX2X>XyXF.b O.L.<.B s h : + K uXOXh | uXkXsX$X0.z ",
"J T g.T a @.yX<XtXtX'.*Xp.O.H 4Xk $ 1 #Xq.,XdX$Xh { 9X*XF.@X` > ",
"/ $.dX5.3 J ,Xk.,XtXk.I.*XE u R H M A 8XuXlX8X,Xj ` <X+X` #.#.z ",
"hXyX) & & A y.h.F.Z.*X#.s.R : i 8XqXH.@ 9.|.A.fXA B :.j.p O I dX",
"_.~.i.. S.e.% p.N.P.0.q.B 1 9 9XqXW.>.d >.;X1.c.s.' 2 # H.sX6X8X",
"~.^ w i.}.A.+.v <.Y.>.B # P .XhXU.=X>.d ;.} d j I x 7 >.qXfX0X.X",
"..r r jXfX4XN.2 K O.E < D z.zXqX0XH.>.4 } v 2 I A q I fX0X-X;XG.",
"   .zXlXkXsXN.b y > 2 % :XkXiXx.qXqXK.4 < < A fX0X} 7 0XJ.G.=XN.",
"aXjXrXrXeX).H.OXc G OXkX,X:XkXx.o.n.4.$ |.9X7.5 c.qX;X7 >.&X:.t ",
"yXjXlXgXeXwX$X@Xj.K V '.|.,X0X9.n.( = l.qXkX9X-.} 8.-X>.H x T R.",
"hXiXzX_.eXeX1X'.2X*.V [ y.A.V.d.] N ~ zXhXiXdXuX0 B ,X@XI 4 x fX",
"`.uXkX}.}.}.1X'.@X@Xk.+ #.d.<.d.: =.kXgXuX.Xx.$Xg h OXOXt.S m fX",
"m..X;XH.J.J.U.#Xh.Z.2.* , J >.; <.-XA.uXuXtXuX8.5.H V j.> [ tXuX",
"l.;X=XE.Q.=XN.R.J k m 4.5.[ B F.U +.M.fX%X`.b.8.'.[ + V s %.uX/.",
"m.b.E.U.M.e.f.>.h s ( kX,XJ 1 sXI x ' |.H.1.8.Y / J [ J & L |.|.",
"K.C.D.W.r.r.w.0.A =.lXhX6 * 0 9X-X' < 7.-.-.1.6 , | aXzX0 M z.S.",
"].F.h.OX& $ 2 i h.kXuXdX6 | dX7X].$X7.# ;.U @ uXdXdXoX7XfXP q l.",
"t.t.a f -.4.{ 7.9X9X1X'.n n ( M y.9X8.e.x } G.uXhXtXhXpXdX.X! l ",
"$.J 6 C qXuXuX-X+XOXt.] n & P w ) o.] e.x %.fX4.lXzXkXXXfX5XQ.q ",
"8 o S lXwXwXdXU.@Xk.%., % 8.sXsXN @ & 5 { G.G.-.[.lXkXXX).5XQ.!.",
"- ) yXhXkXwX6XOX,X@., + @XhX%XdXdXjXuXZ.U < : 5 X.oXtXdX9XG.!.L.",
"- ) xXhXfX3X|.OX+XK 3 '.%.F.9XwXpXkXdX].B J e.=.F / `.|.,X=XY.!.",
"e ^ 2XiX6X}.K.F.g.T h kXa #.tX/./.9XuX`.g | kXtX/ A ] I N.W.Y.W.",
"e N '.oXsXqXH.=Xf.J & dXV B 8.%XqX`.v.7.* Y <XkX8X-.3 j +.P.T.W.",
"lXo.X y.8.r.U.>.i } lX,XuX' k kXH.%Xc.X oXjXhX1XC.;XV.W.u ! :.p ",
"oXoXy.> 7.G.D.N.d ' 9XkX8X( 0 sX4X=Xe.* 3.zXyX XH.=XV.W.Y.! J D.",
"(.tXtXz ! } E s.x U 3XsX%XY 0 sXE.=XC.* ^.jXyX`.H.J.B.V.V.Y =.dX",
"(. X*X,XG u t p.4 { lXl.:X_ = 8X=X=Xq.# yXoX{./.H.E.B.Q.$ ;.dX|."
};
