/* XPM */
static char *_5294_56b0dd0c6bb77613210c28d42b487395c788028b6d795d4cf9a381df56f6d3e3[] = {
/* columns rows colors chars-per-pixel */
"32 32 237 2 ",
"   c #8D1E00",
".  c #9E1100",
"X  c #A70200",
"o  c #BB0C00",
"O  c #B40400",
"+  c #A41100",
"@  c #AA1C00",
"#  c #B91A00",
"$  c #A32200",
"%  c #AE2B00",
"&  c #AC2000",
"*  c #B42300",
"=  c #B32C00",
"-  c #BD2800",
";  c #AD3800",
":  c #B33400",
">  c #BD3300",
",  c #BD3C00",
"<  c #B63B05",
"1  c #C50D00",
"2  c #CF0600",
"3  c #C31C00",
"4  c #CC1700",
"5  c #D41A00",
"6  c #D51300",
"7  c #E21900",
"8  c #CB2300",
"9  c #C22C00",
"0  c #CB2C00",
"q  c #D52600",
"w  c #D32C01",
"e  c #DC2C00",
"r  c #DC2505",
"t  c #C33400",
"y  c #C93403",
"u  c #C43D00",
"i  c #CC3B00",
"p  c #D43301",
"a  c #DC3301",
"s  c #D23B00",
"d  c #DA3C01",
"f  c #D6390A",
"g  c #D93F15",
"h  c #E42600",
"j  c #EB2303",
"k  c #E22A01",
"l  c #E92D05",
"z  c #EE2D0B",
"x  c #EA2709",
"c  c #F62B0A",
"v  c #E33303",
"b  c #EB3204",
"n  c #E23C04",
"m  c #E23E0B",
"M  c #EB3A0A",
"N  c #E93807",
"B  c #F3340C",
"V  c #FB350B",
"C  c #FB2F12",
"Z  c #EC3D14",
"A  c #EA3416",
"S  c #F23C15",
"D  c #FA3613",
"F  c #B74C00",
"G  c #B94400",
"H  c #B85500",
"J  c #C44300",
"K  c #CC4301",
"L  c #C44A01",
"P  c #CE4D03",
"I  c #D34301",
"U  c #DD4303",
"Y  c #D34C02",
"T  c #DB4B03",
"R  c #DA4A0C",
"E  c #C25400",
"W  c #CB5605",
"Q  c #D45302",
"!  c #D55B02",
"~  c #D95A01",
"^  c #D85509",
"/  c #D94F11",
"(  c #D75A15",
")  c #E44302",
"_  c #E34B02",
"`  c #ED430B",
"'  c #E34B0D",
"]  c #E74506",
"[  c #F34A09",
"{  c #F2440B",
"}  c #ED550C",
"|  c #EB5B0C",
" . c #E45807",
".. c #FF5300",
"X. c #EB4B13",
"o. c #FE421B",
"O. c #FA4716",
"+. c #E35411",
"@. c #E25B13",
"#. c #EC5913",
"$. c #F55214",
"%. c #F4531A",
"&. c #F95918",
"*. c #CA6A04",
"=. c #D56503",
"-. c #D46208",
";. c #DD660D",
":. c #D26900",
">. c #CC7B03",
",. c #CD7204",
"<. c #D27900",
"1. c #D77708",
"2. c #DD6A17",
"3. c #DC7B10",
"4. c #E36600",
"5. c #E7690A",
"6. c #E57104",
"7. c #EB740E",
"8. c #EC7B0F",
"9. c #E5780C",
"0. c #EC6312",
"q. c #E56818",
"w. c #F0631C",
"e. c #FA6A1B",
"r. c #F56916",
"t. c #E4731B",
"y. c #EB761C",
"u. c #E97916",
"i. c #F37B1B",
"p. c #FB791C",
"a. c #FA721C",
"s. c #F77507",
"d. c #D95D21",
"f. c #FF4821",
"g. c #FF5B21",
"h. c #FB5827",
"j. c #E55822",
"k. c #ED6221",
"l. c #F06421",
"z. c #F26D22",
"x. c #FC6B2D",
"c. c #FB6827",
"v. c #EB7923",
"b. c #FB7323",
"n. c #F27529",
"m. c #F9742A",
"M. c #FE7C2B",
"N. c #F77B26",
"B. c #FF6D34",
"V. c #FF6C3C",
"C. c #FE7333",
"Z. c #FF7C34",
"A. c #FF7838",
"S. c #FA6744",
"D. c #FF7B4A",
"F. c #CE8200",
"G. c #D28010",
"H. c #D6830D",
"J. c #E3840A",
"K. c #E98707",
"L. c #F2830F",
"P. c #E89507",
"I. c #E88417",
"U. c #FC8A1B",
"Y. c #F68818",
"T. c #EB9514",
"R. c #F89919",
"E. c #F6B30A",
"W. c #EEA61A",
"Q. c #FCA51C",
"!. c #FDAC1D",
"~. c #F4A714",
"^. c #FFB31E",
"/. c #FFBB1C",
"(. c #FFB916",
"). c #EFBA14",
"_. c #FD8325",
"`. c #FF8C23",
"'. c #F4852C",
"]. c #FE852B",
"[. c #FD8D2B",
"{. c #F48927",
"}. c #EF922B",
"|. c #F59524",
" X c #FE9123",
".X c #FD9B24",
"XX c #FE942B",
"oX c #FE9C2B",
"OX c #F39D2B",
"+X c #FE8434",
"@X c #FD8D34",
"#X c #FE843C",
"$X c #FF8C3A",
"%X c #FF9332",
"&X c #FE9C34",
"*X c #FE943D",
"=X c #FF9A3C",
"-X c #F69F38",
";X c #EB9A31",
":X c #FEA427",
">X c #FEAB24",
",X c #FEA32C",
"<X c #FEAB2C",
"1X c #F3A926",
"2X c #FFB424",
"3X c #FEB22B",
"4X c #FCB823",
"5X c #FEA434",
"6X c #FFAD34",
"7X c #FEA33C",
"8X c #FFAC3C",
"9X c #FEB334",
"0X c #FFBA33",
"qX c #FFB43D",
"wX c #FFBB3C",
"eX c #FFC428",
"rX c #FFC139",
"tX c #FF8D44",
"yX c #FF8F4B",
"uX c #FC8443",
"iX c #FE9443",
"pX c #FF9D44",
"aX c #FF9C4C",
"sX c #FF9551",
"dX c #FFA443",
"fX c #FFAB43",
"gX c #FFAB4A",
"hX c #FFA64B",
"jX c #FFB342",
"kX c #FFBB44",
"lX c #FFB04C",
"zX c #FFA652",
"xX c #FFAE51",
"cX c #FFA95C",
"vX c #FFAB61",
"bX c #FFC144",
"nX c #FFC35A",
/* pixels */
"Q.0X0X.XjXwX0X3X!.^.P.6.6.W > < :.Q.3X1X0X0X4X3X0X3X3X2X/.eXeX).",
"U.8.9.XXXXH.>.R.!.4X!.R.Y.p.c.b. X<X9X6XkX.Xu.9.7.8.8.K.K.>XeX4X",
"P / u ( L -.:.J.Q.4X^.R.L.%XtXZ.`.Y.Y._.*Xx.' e a a d I ~ 8..X,X",
"W L . $ : @XfX,X!.!.~.<.E L T @.~ ! Y K &.h.f.x 7 z S ` I Q _.hX",
";X7XdXhX].XX5X<XrX2XW.:X5X;.= & i y > - i n B z c B q # & % : : ",
"kXqX5X Xy.i.Y.7.I.6XwXqXgX'.k.B.Z.x.n.n.m.I 0 a e g.C.l.2.q.t.t.",
"<X<X X~ i U ] i Y ].*X].*XaXyXZ.+X*XfXjXqX1.E W 4.`.7X8XqXwXqX9X",
"!.K.W L t s p U d +.^ J J / ( K @.@XdX5XbXwX<X.XU.XXXX5X6X9X3XrX",
"E.(.^.<X&X! = . - - 9 y R @ + * U y ! hXnX1.E r.] ) [ b.| ~ 5.8X",
"(./.~.3XjX}.2.2.C.B.V.V.V.S.S.V.x.e.].dXfX}.v.K ] b l b &.) _ a.",
"T.T.:XOX5XfXxX'.*XM.+X$X+XZ.yXsXZ.@X%X|.qXqX-X=.#.n l D S { ` ' ",
"u.=.E F =XhX*X! Y i _ &.&.I R ( i L H 1.9XbXbX8X< t e S z S M n ",
"$XJ < T #.#.$.N O.{ V h B l S h.j.J G E ,.T.wXwXdXiXB.8 5 O # # ",
"vXz.t ' %.Z 5 V D C c z o.z r 8 @ d.$X_.`.R.3X<X6XgXsXx.V.c.x.m.",
"xX*Xv./ p k j C c C h v d R Y W ; uXyXM.%XU.L.R.jXgX=X]._.XX,X6X",
"pXaX@X% 9 8 l C j D M U : '.pXaXcX#X#.[ &.) i P 7X7Xp.u 5.! J.,X",
"I M.aX@XaX( 8 5 5 o i pXdXfX7XdXaXk.d N D V l v e.e._ ] ) U Y y.",
"[ | ;.I.dXpXA.x.B.x.iXgX,.1.{.n.k.I 9 0 5 B V q e M { l h N I i ",
"..) !  X|.7X$XM.Z.#XxXhX*.H P I 0 9 s r. .e.&.w w A A x x k d / ",
"_ I 4.8X&X[.@.K t Q 2.pXxXv.< > . % ;.dX,X5Xp.Y y 0 4 1 k q } aX",
"[.5XgXgXN.R f S Z ` T y.gXfX@X=XdXdXhXgX5X,XoX,XY.XX*X@X*X[. X.X",
"y.N.y.q.z.X.q 1 4 q s Y :.|.6X,X>.3.H.u.7.8.U.R.kXoX&X_.r.p. Xs.",
"%.%._ s T i 9 f R R ^ =.H P.4XW.*.1.v.q.s U } | +Xb.e.| y t u < ",
"A e a _ T u ^ sXsXyX+XdXoX9X1X:XOX&X*X$XI i i s t w.#.Y > = & < ",
"X # i =X`.oX5XxXm.' X.&.$.} | Y 5.oXjXkX;X7X*.  ; n.aXpX*XaXaXiX",
"S.D.tX5X<X3X<X9.Q s n O.O.B a p _  .i.|.<X9X1XH.3.&XdXv.2.t.z.0.",
"D.tX=X:X2X!.T.<.;.T w e b k e Z g y i 0.L.>X(.E.4XQ.[.M.i n { v ",
"J G *.<X2XF.F.fX=Xq.y # w a w p + * 9 T ~ R.^./.2X<X&X$Xt m N 5 ",
"F K.3X4X>X<X<XfX&X7X7X&X`.oX5X&XzXiX%X[.,X5X[. .s K q.zXiX( > p ",
"Y..X6XY.Y.6.q.t.'.-XjXqX9XjXXX5.0.4.7._.i.q.#.O.k o.k.( xXtXn.x.",
"N.M.M.T U f 0 9 / n.}.u.i.a.c.O.d n d $.a M k l z z w t uXuXA.C.",
"I  .%.g 5 r 1 o f q.( G u i v O.N [ O.h 5 k l 6 C 2 1 0 K W ^ K "
};
