/* XPM */
static char *result[] = {
/* columns rows colors chars-per-pixel */
"32 32 94 2 ",
"   c #3D2F1A",
".  c #493820",
"X  c #59472C",
"o  c #5E4C2E",
"O  c #614E2C",
"+  c #6A542F",
"@  c #614E30",
"#  c #655232",
"$  c #6A5634",
"%  c #6D5936",
"&  c #6E5A38",
"*  c #735B36",
"=  c #725D39",
"-  c #785D38",
";  c #76613B",
":  c #7A643D",
">  c #7F693E",
",  c #7E6640",
"<  c #7F6840",
"1  c #816A3F",
"2  c #8A713D",
"3  c #937635",
"4  c #957A3D",
"5  c #987D3F",
"6  c #826B41",
"7  c #896F44",
"8  c #877043",
"9  c #8B7245",
"0  c #8F7449",
"q  c #907747",
"w  c #967A45",
"e  c #9A7F42",
"r  c #92774A",
"t  c #967A4B",
"y  c #9B7D4D",
"u  c #9B7F50",
"i  c #9C8144",
"p  c #9E844C",
"a  c #9E8250",
"s  c #A1864D",
"d  c #A3894E",
"f  c #B28A4F",
"g  c #BA904F",
"h  c #A28352",
"j  c #A68A51",
"k  c #AB8D55",
"l  c #AE8D59",
"z  c #B38D53",
"x  c #B18E59",
"c  c #AF9157",
"v  c #AF9059",
"b  c #B59255",
"n  c #BC9457",
"m  c #B5925A",
"M  c #BA955D",
"N  c #BD995E",
"B  c #9A8D76",
"V  c #9A8E78",
"C  c #9F917A",
"Z  c #BB9760",
"A  c #BE9A61",
"S  c #A2947C",
"D  c #BAA77F",
"F  c #C39C5D",
"G  c #C29D63",
"H  c #C6A165",
"J  c #C9A366",
"K  c #AA9A80",
"L  c #B4A385",
"P  c #BDAC87",
"I  c #BAA788",
"U  c #BEAD88",
"Y  c #C1AE8A",
"T  c #C4B18C",
"R  c #CFB68D",
"E  c #CEB691",
"W  c #CEB892",
"Q  c #C8BA9C",
"!  c #D3BC96",
"~  c #CBBEA1",
"^  c #D3C3A6",
"/  c #D7C5A9",
"(  c #D9C7A9",
")  c #DAC8AB",
"_  c #C7C2BB",
"`  c #CAC5BD",
"'  c #CFC9BF",
"]  c #D0CABF",
"[  c #DAD1BF",
"{  c #CFC9C0",
"}  c #D2CCC1",
"|  c #DFDBD4",
" . c #E4D8C5",
".. c #FBFEFF",
/* pixels */
"................................................................",
" .( ^ ~ ~ ~ ~ ~ ~ ~ / ) ) ) ( ^ ~ ~ ) ) ) ) ( ( ) ( ) ) ) / Q [ ",
"R g s 4 5 5 i i e e b n n n f z 5 i n n M n n M M n n n n j 3 D ",
"! N M m m b r 1 k x M Z x l k j d s c l k x F m l b M Z H Z i U ",
"! M G G M N 6 $ k m m m h p p p s s p p p p m x p j m M G m i U ",
"! N G G l d i t j j k j m x b x M M M M N M N k & 9 A A G M i U ",
"! n A A j p h s s p p p m m m m A A A A A M M j # : A A A m i P ",
"C + = = % % ; ; ; ; ; ; : ; : : : ; : : = ; & & # % = ; : : % C ",
"V + * % % % ; ; : ; : : : : ; ; : : : = % % $ $ = = & = : , * S ",
"! M k p s s p p p p M A A A s s Z Z p p s t % < m m m m x Z M ! ",
"W b k p y y j j j j M A G A j s A M k j j p , 0 m b m m m m n E ",
"P i p s : $ h M b M m M A A s s m m m m N N M m p p p p i p e P ",
"T d k k t 8 k m Z m Z Z G Z s s x x l k u h M m k k k k k v s T ",
"! F H H J J A N H G G G G G j h s d d p % , H H H H H H H H G ! ",
"P r y y y t r r t t t t y t 9 9 8 8 9 8 & ; t t t t t t y u w P ",
"V O % $ @ o o o @ @ @ @ @ @ $ $ % % % % # @ @ o o @ o # # % O V ",
"Y p h j h h h h a h : & 8 0 h h s h p y y y y y h u h h j a 2 L ",
"! G H H G H H G H H < & p j G H H H N N N A N G H G H H G A i Y ",
"Y s j j j j j j j j l l m b b m j j j j j a : 0 G M j j j j e U ",
"Y e h p p s s p s p A G m b m m s p p p a i % < G M p p p s i Y ",
"! M N b b m m m Z A A A k j j p s s s s b m l x N m m m M x i U ",
"E z m x x x m x M Z M M a i p p p p p s x x m m x x x x x k e P ",
"S % & $ & ; = ; & # % # # % & ; = = = ; = = ; = $ $ $ $ $ % + C ",
"S ; , - < < < < , ; ; ; : : : : : : : : , , : : , = $ = : : : K ",
"! F H G H H G G G G j s A G j s s p s s s s s j G x $ 9 H A N ! ",
"! n M m j h Z A A A c j N A d p k k k k j j s j M l > q M M M ! ",
"R z j p = X k H A G G G G A s j N G m m m m p p p p s p i j b R ",
"E b x m q < j m m x Z G A A s s Z N N m x k k k l k l c k m b E ",
"! F H J c d d p s s G G G G j j G G H G s j F G J H H H H H A ! ",
"L 8 t t 9 6 8 0 6 6 9 9 y t 6 > r r r r 6 7 9 9 : , 0 9 0 0 9 L ",
"B O % + % * = ; @ O O O * * + O + $ $ $ % $ % O   . O o O # O V ",
"| ] } ] ] } } ] } { { } } } ] } } } ] ] } } } } _ ` } ] ] } ] | "
};
