/* XPM */
static char *_294dacf81a14eb18b24146867a9d3dduvbGwxQumlIsYxMl[] = {
/* columns rows colors chars-per-pixel */
"32 32 158 2 ",
"   c #652600",
".  c #6A2600",
"X  c #662B02",
"o  c #6C2C03",
"O  c #6D2C0A",
"+  c #712E01",
"@  c #6D3107",
"#  c #6F340B",
"$  c #743304",
"%  c #793505",
"&  c #72350B",
"*  c #783508",
"=  c #77390B",
"-  c #7B3A0B",
";  c #743411",
":  c #773C14",
">  c #7C3E14",
",  c #7F4110",
"<  c #7C4119",
"1  c #803704",
"2  c #843E0F",
"3  c #823E14",
"4  c #813F1C",
"5  c #82420E",
"6  c #8A410D",
"7  c #92460D",
"8  c #834414",
"9  c #8B4514",
"0  c #864817",
"q  c #8D4A16",
"w  c #84451A",
"e  c #8A471A",
"r  c #87491C",
"t  c #8C4A1B",
"y  c #914615",
"u  c #944A14",
"i  c #994E15",
"p  c #934C1B",
"a  c #9A4E1B",
"s  c #8C5014",
"d  c #95531D",
"f  c #9C521D",
"g  c #96591D",
"h  c #9B591F",
"j  c #A1551D",
"k  c #894725",
"l  c #874920",
"z  c #8B4D21",
"x  c #924E21",
"c  c #8D5024",
"v  c #945224",
"b  c #9B5523",
"n  c #975926",
"m  c #9D5A25",
"M  c #95542A",
"N  c #9B562A",
"B  c #975928",
"V  c #9D5A2B",
"C  c #985633",
"Z  c #9C5C32",
"A  c #A15722",
"S  c #A35B25",
"D  c #A95D25",
"F  c #A45D2B",
"G  c #A95D2A",
"H  c #A25F30",
"J  c #9D6027",
"K  c #9E612B",
"L  c #A36127",
"P  c #AB6027",
"I  c #A5622B",
"U  c #AA632C",
"Y  c #A4682C",
"T  c #AA692E",
"R  c #B1662D",
"E  c #B2692F",
"W  c #A16135",
"Q  c #A46332",
"!  c #A96330",
"~  c #A86530",
"^  c #AA6431",
"/  c #AC6730",
"(  c #AD6733",
")  c #AD6533",
"_  c #A76933",
"`  c #AF6830",
"'  c #AC6A30",
"]  c #AD6D30",
"[  c #AF6D33",
"{  c #AE6B36",
"}  c #AD6B36",
"|  c #AC6639",
" . c #AB683B",
".. c #AF6B3C",
"X. c #AE6D3C",
"o. c #B26730",
"O. c #B26B33",
"+. c #B36D32",
"@. c #B36E35",
"#. c #B56E36",
"$. c #B16A35",
"%. c #B36E3A",
"&. c #AE713B",
"*. c #B17134",
"=. c #B37135",
"-. c #B27235",
";. c #B37336",
":. c #B87237",
">. c #B77739",
",. c #B7773A",
"<. c #B3723C",
"1. c #B97338",
"2. c #BA723D",
"3. c #B8783B",
"4. c #B9793C",
"5. c #BB7B3E",
"6. c #BE783D",
"7. c #BF793E",
"8. c #C17B3F",
"9. c #C07C3F",
"0. c #AF7140",
"q. c #B37640",
"w. c #B87540",
"e. c #B97341",
"r. c #B67943",
"t. c #BF7D40",
"y. c #BE7E40",
"u. c #BF7F41",
"i. c #BE7946",
"p. c #BD7E49",
"a. c #C17B40",
"s. c #C27C41",
"d. c #C37D42",
"f. c #C57F43",
"g. c #C57F44",
"h. c #C07D48",
"j. c #C27D4C",
"k. c #BF804B",
"l. c #C38345",
"z. c #C28245",
"x. c #C68044",
"c. c #C78145",
"v. c #C68045",
"b. c #C78146",
"n. c #C88246",
"m. c #C78749",
"M. c #C3824E",
"N. c #C98348",
"B. c #CA8449",
"V. c #CB854A",
"C. c #C8884A",
"Z. c #CD8D4F",
"A. c #C58451",
"S. c #C98353",
"D. c #C78853",
"F. c #CA8954",
"G. c #CC8D59",
"H. c #DB955A",
/* pixels */
"b.d.B.H.b.b.B.B.b.x.n.n.n.f.d.9.t.5.l.Z.,.l.C.m.5.l.m.t.F.5.u.l.",
"g.B.:.+.6.d.1.7.9.9.8.8.7.8.7.8.=.=.T Y z.5.=.] ;.4.3.T 3.3.3.3.",
"` #.U h U D P T D U T T T ( O.@.T ` U h [ I I Y T Y T T ] h h T ",
"m u P P A d S b I G G G D S S b ' { 3.h.m d q 6 m b m L m q q I ",
"m p S S P L U d 9 9 u d S ! ! ! Q b d F p S F F 9 v a u 6 d F S ",
"h ' L q b m m b b b p 9 e p e e v v V V %.v e 8 e q z v v Q F v ",
"d U V p q q q V N b N x x x x x e x M x Z t e v v x v  .M v x M ",
"L t q L 9 6 8 q p v Z H F V N Z x w e M 8 l x M M Z W W 3 8 l Z ",
"v d d n g d d t N v t p v v v x 0 0 r t r r r r t r r r r 0 0 z ",
"% $ + o @ $ $ = $ % - = * $ $ $ = # , = & = = = * & = = = = = = ",
"0 w 8 8 8 8 8 , , , 5 5 , , 8 0 , , r q , 8 t 0 0 8 8 0 0 0 , 0 ",
"A.k.j.A.A.A.k.A.G.D.M.k.M.A.M.M.k.k.D.D.M.D.G.M.M.M.A.D.D.D.k.D.",
"0._ K B B _ &.r.<.<.&.&._ _ _ _ &.{ [ X.} X.<.' { { %.:.&.*.&.<.",
"0.W n c n V _ &.&._ K J g g Y ;.r.:.U P D D D I ` O.O.+.U S D I ",
"B B v B B n J J Y V g s s g K *.E E S j D j i I R R R P D i u u ",
"t z v B K Q Q _ B g q s g g g g f D j j D i 7 D D D D P j j 7 7 ",
"H v V V Q H F x q p d m L f q 9 u 6 i I G A b y y 9 b G y 1 y F ",
"b V $...N p t q q b F V d 5 9 m m 9 9 i p a F F A y y y y b F a ",
"H H V H p t e q v n b p q 8 9 N b 9 9 9 9 p b F a p y 2 3 b N x ",
"H N e e 8 x p e t e 8 0 t q q q q 9 e y p 9 e 9 9 9 z p 2 2 3 a ",
"> + * + $ + * + o + $ $ $ $ o * % $ + + + + + + % + + $ 2 + . + ",
"H H  .H Q M H V V F F V F V m V V Q V V V V N I H F N V G H V V ",
"j.j.S.j.j.j.S.j.S.S.i.i.S.M.j.e.e.j.j.j.S.j.j.S.j.F.S.j.j.S.j.S.",
"G ) ..i.! ) ) $.$.) I I $.$.G A A ) | $.%.%.$.%.$.%.$.$.e.%.$.$.",
"G G G b o.G G b b S U 2.G 6.2.^ %.| G o.G A F o.! $.2.6.A A A F ",
"G G G G a a A A A D R o.A G R G A G G ) ! a 9 a A A d j f S S j ",
"F N A G 2 a G G f A b D A G A a u F b y b b 2 a u a b b D A A S ",
"G F F | A b 9 % m b b b b A d u 2 x y 2 2 2 y A p S G b I f b D ",
"H x 8 8 v V H H v v d q 9 9 y t x y G H x 3 x | | F b e F V m A ",
"M v t r H x c x t t 0 0 M N z w 4 4 C C 8 k N e Z x e e M V n x ",
"w : : < w w k k r < < w W Z z w k k k 4 4 C C w 3 > 8 r w e w 3 ",
": X O < @ ; & X @ # & X # X O > O O O ; ; . O ; ; O O =   o o & "
};
