/* XPM */
static char *result[] = {
/* columns rows colors chars-per-pixel */
"32 32 30 1 ",
"  c #1B1F1F",
". c #1C221F",
"X c #1E2322",
"o c #222625",
"O c #242A26",
"+ c #242728",
"@ c #262B29",
"# c #292D2D",
"$ c #2B312D",
"% c #2C2E31",
"& c #2E3331",
"* c #313535",
"= c #333A35",
"- c #353639",
"; c #363B39",
": c #393D3C",
"> c #374039",
", c #3C423D",
"< c #3D3E41",
"1 c #3E4341",
"2 c #414544",
"3 c #434945",
"4 c #444748",
"5 c #464A49",
"6 c #494C4C",
"7 c #4D514E",
"8 c #4C4D50",
"9 c #515253",
"0 c #575658",
"q c #595859",
/* pixels */
"#o=,,>1&*56#;5;o.$>$#,4*12&@:::=",
":o+#&+oo26**62*@,$.$=:,%%**-7432",
"-o-:;,;@:=+,,:@$,>>$22@=*%%#<566",
"X%6826,o&X@23>.&113=:3#,4<1&@##@",
" *2,23$=O$@=;$$,,,3=,2$66,,:#<*X",
";#:2,$;;O3*@,*$333>O=;&6521-+604",
"5$=3O$,$$,$$22@&=$.=;&O>22*%*1q8",
"6&OOX$O$$>.$,:-2$O>32,=.*$%4::64",
"3$o;:,#&*+$==$,5$O>,>>,$$=53;=53",
"=o;51,#<<-#:$=3,.$>,,>,OO133,#1=",
"&#=14*&:;,$$*$3*.>,33,=O$,37=OO@",
"1,@26@*444;23*-@.>33,$O$O=52$$O,",
",3$=*#;-=*-55:*@$$O$$O:2:%%&#&X&",
"=3=OO12=**:69:@2,,>$#,5,::*-;2O.",
"O=@O1,3;@<--5**2>,,@-42:4<%-22$.",
"==$$333$,562%%-2,1>O-166<@%-53$@",
":3&&57:*325<#2*1,>=>;&1<##2561-@",
"$*OO;:O#,3,$O6*O$$5111@#:%7622,X",
",2%2*$:&&>#1:-&-*#5,41*&+*6129*@",
"27:*$O12$X#6:*-:7*&16-44#+*:5;+:",
"59%-1:#*o&%:#<7**&+51&75,$>2,2=&",
"-&-956-+262%X*1$,;+<#*57,>365,-+",
"O;6335%;763<Oo&&>$$=O&1;*=&&$:2#",
"&$*::&O<35<<2#,23*;3&;$*5--2*:;;",
"5,%OO%*-48484+-2:$$3:;=54:23;O=4",
"-,:#2:*@%---#%&#25,*$O>>552,#&=<",
":*##262#:8-X-6-%5332$$>=237*#2O$",
"2*;*%*-&-4<<-8%#351>=.=>>3:O*-&$",
"o$2O&262%<5:*2@&=$::$OO$&$O$255$",
"O:&O222:%2&-#*-$&472=$$OO>,O,61,",
"#%O:>::-%&24*16*4531>$$>,$=O$2,4",
" O=&=*22+<44#&=O=,>1=@&&71$.O@&$"
};
