/* XPM */
static char *e15b5901734447108cb0f46d86783bc26VmteJYG7kbQd03c[] = {
/* columns rows colors chars-per-pixel */
"32 32 215 2 ",
"   c #640000",
".  c #6A0200",
"X  c #690900",
"o  c #710500",
"O  c #7C0600",
"+  c #750A00",
"@  c #7B0D00",
"#  c #7E0E0B",
"$  c #701000",
"%  c #7C1101",
"&  c #7F1805",
"*  c #7E1C0F",
"=  c #7A130C",
"-  c #810D00",
";  c #880A00",
":  c #861401",
">  c #8A1501",
",  c #841901",
"<  c #8E1D02",
"1  c #8A1408",
"2  c #851B0B",
"3  c #951700",
"4  c #951D02",
"5  c #95140C",
"6  c #991C09",
"7  c #841411",
"8  c #8A1712",
"9  c #851A10",
"0  c #8B1A12",
"q  c #901F11",
"w  c #8C2104",
"e  c #8F220C",
"r  c #83280B",
"t  c #8A2C08",
"y  c #942301",
"u  c #9B2402",
"i  c #9C2B02",
"p  c #95240D",
"a  c #9C240B",
"s  c #94280B",
"d  c #9B2C0A",
"f  c #8E350B",
"g  c #953704",
"h  c #8D2312",
"j  c #972711",
"k  c #9F2414",
"l  c #9C2C11",
"z  c #9C2C1A",
"x  c #962C1E",
"c  c #9F3316",
"v  c #A32601",
"b  c #A42B03",
"n  c #AC2C03",
"m  c #A2250A",
"M  c #A92308",
"N  c #A42C0B",
"B  c #AB2C0B",
"V  c #B22F03",
"C  c #A63501",
"Z  c #AC3303",
"A  c #AE3B05",
"S  c #A3320C",
"D  c #AC340B",
"F  c #A5380D",
"G  c #AB3B0A",
"H  c #B33402",
"J  c #BA3601",
"K  c #B43B03",
"L  c #B93A07",
"P  c #B3340C",
"I  c #B43A0D",
"U  c #BA3C0C",
"Y  c #A02714",
"T  c #A42C12",
"R  c #A82D13",
"E  c #A8291A",
"W  c #B32B15",
"Q  c #A33414",
"!  c #AB3212",
"~  c #A63B17",
"^  c #AC3C14",
"/  c #A3331A",
"(  c #AA321D",
")  c #A43E18",
"_  c #AE3E19",
"`  c #B33414",
"'  c #B33B13",
"]  c #BC3D13",
"[  c #B5341B",
"{  c #BF3518",
"}  c #B63D1B",
"|  c #BB3D1B",
" . c #B63C25",
".. c #C13F0D",
"X. c #C43F1B",
"o. c #BC4205",
"O. c #BC4906",
"+. c #B3420B",
"@. c #BB430C",
"#. c #B74B0B",
"$. c #BD4A0D",
"%. c #B44206",
"&. c #AD4015",
"*. c #B34413",
"=. c #BC4313",
"-. c #B74A11",
";. c #BC4C14",
":. c #B6431A",
">. c #BC431B",
",. c #B5481F",
"<. c #BC4C1E",
"1. c #BF501A",
"2. c #B54424",
"3. c #BB4324",
"4. c #BC4A26",
"5. c #C54101",
"6. c #C74803",
"7. c #C2440C",
"8. c #C9470B",
"9. c #C34B0D",
"0. c #CC4D0B",
"q. c #D04F0E",
"w. c #CB5403",
"e. c #C5520B",
"r. c #CA520C",
"t. c #CE5D0B",
"y. c #C34514",
"u. c #C94715",
"i. c #C44B14",
"p. c #CA4C14",
"a. c #C4461B",
"s. c #CA471A",
"d. c #C54A1B",
"f. c #CA4C1C",
"g. c #D04F19",
"h. c #D14B16",
"j. c #C65613",
"k. c #CB5314",
"l. c #CD5A13",
"z. c #C5531B",
"x. c #CD551B",
"c. c #C5591C",
"v. c #CE5C1A",
"b. c #D35316",
"n. c #D25B13",
"m. c #D3531D",
"M. c #D35B1C",
"N. c #D95A18",
"B. c #DF6C0F",
"V. c #D1630E",
"C. c #D56114",
"Z. c #D86512",
"A. c #D5621B",
"S. c #DB651D",
"D. c #DA6B1C",
"F. c #E4691C",
"G. c #E3711C",
"H. c #C44522",
"J. c #CC4625",
"K. c #C34D22",
"L. c #CA4D24",
"P. c #C24D29",
"I. c #D04B2A",
"U. c #D84D2C",
"Y. c #C45322",
"T. c #CC5322",
"R. c #C15821",
"E. c #CE5B23",
"W. c #C2502E",
"Q. c #CE5528",
"!. c #CE5E2E",
"~. c #C45F2B",
"^. c #D35422",
"/. c #D85622",
"(. c #D35B23",
"). c #DA5C24",
"_. c #D1572A",
"`. c #D45A2A",
"'. c #DB5C2B",
"]. c #C95931",
"[. c #C25335",
"{. c #D15730",
"}. c #D45937",
"|. c #E45F32",
" X c #CC6129",
".X c #CF6B2D",
"XX c #D56322",
"oX c #DB6425",
"OX c #DC6A24",
"+X c #D5622C",
"@X c #DC632B",
"#X c #D6692E",
"$X c #DD6A2B",
"%X c #D16330",
"&X c #DD6A36",
"*X c #E06625",
"=X c #E16C23",
"-X c #E1662B",
";X c #E36B2C",
":X c #E47325",
">X c #EB7825",
",X c #E5772C",
"<X c #EA742D",
"1X c #EA7828",
"2X c #F17C2D",
"3X c #E46B31",
"4X c #E76F3D",
"5X c #E36534",
"6X c #ED7535",
"7X c #EE7C33",
"8X c #EA733B",
"9X c #F1812B",
"0X c #F58136",
"qX c #F88333",
"wX c #F68541",
/* pixels */
"*X).f.'.@.@Xn.o.H o.i._.'.U s.u.A <.[.h 2 . 0 % 7 : y *.-.E.j.c.",
"x.i.i.@.y.k.M.(.i.(.p.K H 5Xm.H +.+.&.% , : l w 1 Q *.I A &X$Xv.",
"k.i.$.$.x.i.(.4XXXM.@.Z n @Xy.J $.$.$X#.-.*.:.3.4 D E.).@.u.y.x.",
"(.v.t.OXV.A.z.Q.A.v.@Xz.E.x.M.$X%.;.0X,XOX;.H a.' Z k.;Xf.H b f.",
"OXOX1X9Xt.C.c.%.i x.$Xi.y.y.$XM.3.b x.A.OXk.v n ^.7.k.8.u.s.s.f.",
"n.A.0XZ.l.t.;Xk.o.4X@X`.$.m.*Xp.[ 3 Z i.$X+X=.>.s.p.oXp.y.f./.b.",
"o.x.(.A (.m.OXM.T.(.@.u.@.x.9.o.M v V =.z.E.x.x.] U '.m.J...h.b.",
"@._.n 3 J.`.o.9.f.H U v a./.m.9.J.I.] D A i.v.j.| H ..J g.)./.0.",
"H _.u y oXv.d.` v ' N P T.(.Z.C.d.U 7.7.6.F.<Xi.Q /  .` u.N.u.J.",
"p.y.L.z.OX9.4 X.v } ` D Z L XX7XT.=.s.m.N.F.;Xi.Q @ > 4.@Xk.v ` ",
"8.i.(.(.M.A.H Z P H.X.B b y.&XOX(.u.f.^.b.m.x.P S > - I d.(.D 2.",
").9.o.6XOXv.d.>.u.f.u.s.i.(.$Xe.M.x.a.U L y.>.v ^ } v I A Q.:.P.",
"(.j.e.,Xx.;.K.4.i.@.f.3XoX0.Z.D.A.i.U I I U ` R } K.@.`.=.D y _ ",
"' Z v.O.C W.s w b ' ;.x.l.n.G.:X:Xi.P a.f.P v N a D H '.L.^ u A ",
"/ w $.%.:.z   & , T S I x.S.:XG.=XM.=.=.K.=.B u ; B Z 7.a.s.f.i.",
"e 2.#Xz.2.2 + * 7 @ : P.&Xi.e.:XC.XXy.B =._.a.d 5 [ U 7.s.X.m.l.",
"+.,.].< 8 # 0 - # + y +.d.E.v.M.S.A.b.x.U '.oXK v 9.N.q.).H.' ' ",
"%.-.1.: @ @ j d h Q ,.Z A +X3XM.@X@.H ^.x.m.k.v.N.^.P v 8.).=.y ",
"$.j..Xg t s _ :.4 S E.(.;.=.y.b.=.T.s.d.@.e.j.:XZ._.E 6 u e.z.4.",
"..;.~.f r r N V Z n k.3X^.H b u.;Xx.0.M.OXv.c.v.XXY.( Y u $.XX`.",
"{ ` Q $ X % u n '.p.b.p.y.s.s.h.Z.G.qX2XA.c.R.*.C G _ u m :.oXC.",
"W m p + # z  .g.f.g.).p...f.^.m.w.G.1Xt.A.&X4.. y &.1.y T P.*Xw.",
"n v v 4 Y 3.L.S.V H m.m.s.u.8.p.@.x.j.o. XF : h +X!.' i z.5Xm.J ",
"u.y.] ` ` f.n.Z.X.H J J y.'.m.p.3.}.D > Y.Q % x j.*.: u 9.C.8.U.",
"d.=.P u.7.H I K.W v P J h.|.a.H.7.L.3 <  X;.T 8 ) w y S y.M.C.Z.",
"$.y.T.5Xm.b v ! k 3 B B ] y.v ] 9.L.R Q .X+.u > ~ ~ 3.' A o.M.7X",
"$Xx.U a.u.U D m - O 6 m | ;.Z +.6.!. .< D -.>.m y _ :.n v y.;X;X",
"r.M.d.y.y.] } N 2 @ : 1 ( 4.*.-.OX+.u 4 m b :._.K a.f.z.i.x.OXx.",
"n.l.@.U U ' } R ~ s > : 6 d d ^ XX+.N Q Q S D :.;.@.k.6X;Xe.C.=X",
"0Xb.b P u.I P R d u b } } u 4 } &.c.Y.' N 2.d : i F K m.n.r.1X1X",
"A.m.a.I.f.P B b 3 v ' ^.^.U U L.&.*.;.c.&.c + 2 p / N -.k.M.<XC.",
"S.(.=.P ] T.L.B 5 [ ] J 5.b.M.p.d &.c.c.F e   = # @ - P.@Xp.oX=X"
};
