/* XPM */
static char *_204748ee91d4c19ba55859f850404cccXqQhvCyH475GMWe[] = {
/* columns rows colors chars-per-pixel */
"32 32 138 2 ",
"   c #2C2C1C",
".  c #363E14",
"X  c #30301F",
"o  c #2D2A22",
"O  c #332F2A",
"+  c #343421",
"@  c #3C3D24",
"#  c #36322C",
"$  c #3A362F",
"%  c #3E3C2C",
"&  c #3D3934",
"*  c #423D36",
"=  c #433E3A",
"-  c #3A4216",
";  c #3E451B",
":  c #3F4818",
">  c #404917",
",  c #424B19",
"<  c #47511A",
"1  c #414225",
"2  c #545B26",
"3  c #53562C",
"4  c #464434",
"5  c #4D4C33",
"6  c #46413A",
"7  c #4A453D",
"8  c #4E483F",
"9  c #514D3E",
"0  c #535335",
"q  c #595C36",
"w  c #5E6627",
"e  c #5C622A",
"r  c #5E6235",
"t  c #60662E",
"y  c #646D29",
"u  c #62643B",
"i  c #66683E",
"p  c #6F7534",
"a  c #6E723A",
"s  c #727936",
"d  c #70753A",
"f  c #4C4641",
"g  c #4E4942",
"h  c #524D44",
"j  c #544E49",
"k  c #575146",
"l  c #585345",
"z  c #5D5B43",
"x  c #56514A",
"c  c #5A554C",
"v  c #5E584D",
"b  c #5D5750",
"n  c #5E5951",
"m  c #625D46",
"M  c #635C4E",
"N  c #635D54",
"B  c #685F55",
"V  c #635E59",
"C  c #616144",
"Z  c #6B6C43",
"A  c #65624C",
"S  c #696648",
"D  c #6D6A4D",
"F  c #706E48",
"G  c #727643",
"H  c #767B46",
"J  c #797E42",
"K  c #72734C",
"L  c #74784C",
"P  c #797C4B",
"I  c #666153",
"U  c #6A6255",
"Y  c #6F6E52",
"T  c #676259",
"R  c #6B655C",
"E  c #6E685C",
"W  c #726E51",
"Q  c #726B5E",
"!  c #767654",
"~  c #797955",
"^  c #75735B",
"/  c #79765B",
"(  c #7D7B5C",
")  c #6F6661",
"_  c #6E6961",
"`  c #736D63",
"'  c #746E68",
"]  c #767164",
"[  c #7B7366",
"{  c #7E7B63",
"}  c #75716A",
"|  c #7C756B",
" . c #7F786C",
".. c #7E7771",
"X. c #7E7971",
"o. c #807B5D",
"O. c #817E62",
"+. c #827A6D",
"@. c #847C72",
"#. c #897F75",
"$. c #877E79",
"%. c #887E7A",
"&. c #798138",
"*. c #7C8049",
"=. c #7E8058",
"-. c #808544",
";. c #828257",
":. c #888757",
">. c #82835D",
",. c #858462",
"<. c #8A8966",
"1. c #838269",
"2. c #89876F",
"3. c #878074",
"4. c #898175",
"5. c #8B857B",
"6. c #7B8BA9",
"7. c #7F9EB9",
"8. c #7EA0C7",
"9. c #8D8580",
"0. c #8BA39D",
"q. c #87A5AD",
"w. c #97ABAC",
"e. c #8AA4BF",
"r. c #91A5B7",
"t. c #91A2BC",
"y. c #ACB7A1",
"u. c #829FC3",
"i. c #809DC4",
"p. c #87A4C6",
"a. c #8AA6CD",
"s. c #94A4C2",
"d. c #95A5C4",
"f. c #96A6C6",
"g. c #88A2D6",
"h. c #8DA6D6",
"j. c #86A3DA",
"k. c #88A6DB",
/* pixels */
"y.w.r.e.8.i.h.k.j.j.j.k.j.h.t.6.d.d.d.d.s.d.r.0.q.p.p.e.7.p.a.g.",
"P O.+.F :.@.;.<.#.@.#.@.4.@.+.h %.#.#.4.@.#.( G ( O.W *.@.( :.#.",
" .+.+.U { 9.{ ( +.+. .[ +.[ +.v 3.+. . .+.@.! [ +.@.R ^ 5.+.( +.",
"[ O.@.N ) 9.=.{ ,.O.+.+.+.+.[ l 5.@. .@. .| +.[ { +.U V 5.O.( +.",
"[ H [ N E 3.(  .-.J | [ [ [ ] x %. .+.[ [ [ | ] H [ I E %.( O.o.",
"a y 9 a s A c k z p z k l k k 6 x M c c j z l d y h p s A c k q ",
"P H Y F ( =.( ..3.s ] @. . .@.| X.X. .#.T c 5.J K ! F { ;.{ +.+.",
"+.~ @.@.@.{ ( @.+.u } 5.@.@.@.+.+.@.+.@.Q B 5.{ ^ @.@.@.( o.+.+.",
",.~ @.+.+.[ ` | +.q ' 5.+.+.+.+.| [ | +.Q I 5.~ / @.+.+.[ [  .[ ",
"o./ +.~ | +.+.+.+.m 2.#.+.+.+.| +.+.+.+.R U 5.~  .>./  . .| +.[ ",
"A N S &.D m Z a A 9 z B B N N B m v v M k * m M N a J M m s S M ",
"[ ] <.Z r 1.>.,.C % V ` _ ` B 6 ' ) E Q E E { ` O.>.3 ( 1.,.~ 5 ",
"3.[ R j f 9.} %.[ j #.@.#.@.@.M 5.4.5.4.@.4.@.@.T T & } @...%.b ",
"| [ Q Q g c ` +.` ` +.[ |  .[ c $.X.|  .+.+.+.[ ` ` v g R | | R ",
"` ` | ` c #.` M ` ] [ +.+.+.+.v 5.3.@.+.+.` ` ` [ | c | | M R [ ",
"v c l k = j c k 6 7 M N M M m 6 T U U N B M v M k k 6 h c c 6 7 ",
"$ * V R R V x k } g c ] R R E R R ` R ` l $ $ * N R T V b h ` n ",
"6 ` | 3.+.3.E ] 5.R _ 5.4.3.5.3.4.4.3.4.Q # * ` [ #.@.#._ ` 5.[ ",
"N R +.| | | c N 1.T ) 5. .+. . .| [ | +.T h N R +. .| [ c B +.R ",
"[ R ] ] [ ` ` _ ` M _ 5.+.@.@. .+.+.+.+.U T  .R [ ` [ ` Q Q ` N ",
"x h 6 6 x h h k l 6 f U I I I U m N N I k 6 c j 6 f x h j x k 7 ",
"` R _ _ 7 R _ _ ` ) _ ` _ ' T & ' ` ` c $ N i r A I r A A W _ R ",
" . . . .v ..#.+.@.+.@. .| I n 4 | ` $.] h  .L [  .[ L 5. .;.@.@.",
"` ` ` ] j _ [ ` ` ` ` ` E R R 8 j T E R R ] Y ` ` R k ..^ W ^ ^ ",
"R R R Q 9 R ` ` E E N V N N V 7 _ N g b v I _ D D V x | Y E G Z ",
"9 7 7 8 * * h h g f 6 4 * 4 4 $ * 6 6 & $ 7 8 w 4 0 t l g 8 0 e ",
"T V V V V V B n V j o o & j V n b f g R 6 c I r z q m C M n I 2 ",
"T V N N N n n N V x O # x b N b N 7 j V f c T r n V n v z n A 1 ",
"V n c v x c x k c h & x 6 c x c h = f x & x N 0 c l c x x c l @ ",
"g g g g g f f g f 6 $ 6 6 & & 6 = 6 = = O 4 g 8 h 0 g f h h 7 @ ",
"  + + X X X + X @ +   X X   X X X X X +     @ @ ; : ; + : : @   ",
", : - > - : : : : : - : : - : - : : : : : . : : . : - < ; : < : "
};
