/* XPM */
static char *_7932_139d1440d1218090398214a30a079cc337234ef8db7d2c86f393d0689ce39f7e[] = {
/* columns rows colors chars-per-pixel */
"32 32 216 2 ",
"   c #0890B6",
".  c #0797BA",
"X  c #0A96C7",
"o  c #0699C5",
"O  c #0E9CCA",
"+  c #159CCB",
"@  c #019ED4",
"#  c #0D9FD8",
"$  c #189BD3",
"%  c #0EA1CE",
"&  c #19AAC7",
"*  c #16A2CC",
"=  c #1CA2C8",
"-  c #13ADCF",
";  c #19ADCB",
":  c #00A4D7",
">  c #0EA3D3",
",  c #0BADD6",
"<  c #04A3DD",
"1  c #0BA4DC",
"2  c #0DABDB",
"3  c #13A3D3",
"4  c #1CA4D5",
"5  c #12ACD5",
"6  c #1DABD2",
"7  c #15A6DA",
"8  c #19A4DC",
"9  c #13ABDD",
"0  c #1CACDC",
"q  c #11B2D5",
"w  c #1EB4D7",
"e  c #13B2DC",
"r  c #1BB3DD",
"t  c #28A2C7",
"y  c #2EA8C0",
"u  c #21A8C8",
"i  c #2CA8CA",
"p  c #24A7C7",
"a  c #2EB1CF",
"s  c #24B4CE",
"d  c #23A5D6",
"f  c #29A3D6",
"g  c #23ACD4",
"h  c #25A6DA",
"j  c #23ABDC",
"k  c #2AAEDF",
"l  c #30AEDC",
"z  c #2DB4D5",
"x  c #22B2DD",
"c  c #28B2DF",
"v  c #27BADD",
"b  c #2CBBDD",
"n  c #35B9D0",
"m  c #31B4DE",
"M  c #31BCDD",
"N  c #3ABEDC",
"B  c #05A5E5",
"V  c #0BA6E2",
"C  c #07ABE3",
"Z  c #0BACE4",
"A  c #00A3E8",
"S  c #0CA7EA",
"D  c #06AEEB",
"F  c #0CADEC",
"G  c #12A3E6",
"H  c #1BA5E3",
"J  c #12ABE4",
"K  c #1CACE3",
"L  c #12A6EE",
"P  c #18A0EA",
"I  c #15ABEC",
"U  c #1BADEB",
"Y  c #0BB2E4",
"T  c #04B3EB",
"R  c #0CB4EC",
"E  c #0EB9ED",
"W  c #13B1E4",
"Q  c #1CB3E4",
"!  c #17BDE7",
"~  c #14B3EC",
"^  c #1BB3EC",
"/  c #13B9ED",
"(  c #1CBAEC",
")  c #1EBCE1",
"_  c #0AA5F4",
"`  c #04AEF4",
"'  c #0AACF3",
"]  c #05ACFD",
"[  c #0BADFB",
"{  c #05A6F8",
"}  c #13ACF3",
"|  c #19AEF5",
" . c #15AFFC",
".. c #1FAEFA",
"X. c #01B5F1",
"o. c #0CB4F3",
"O. c #0CB9F4",
"+. c #05B5FE",
"@. c #0DB4FC",
"#. c #04BCFE",
"$. c #0DBAFC",
"%. c #13B4F4",
"&. c #1BB4F3",
"*. c #14BAF4",
"=. c #1BBBF4",
"-. c #14B5FC",
";. c #1BB5FA",
":. c #14BBFD",
">. c #1BBCFD",
",. c #25A6E0",
"<. c #24AEE3",
"1. c #28A5E8",
"2. c #24AEED",
"3. c #2AAEED",
"4. c #2EA9E4",
"5. c #31AEE6",
"6. c #22B2E3",
"7. c #2BB3E5",
"8. c #23BCE3",
"9. c #2BBDE6",
"0. c #24B4EB",
"q. c #29B3EB",
"w. c #23BBEC",
"e. c #2BBBEB",
"r. c #37BAE4",
"t. c #3DBDE4",
"y. c #32B5EC",
"u. c #38B5EB",
"i. c #33BCEC",
"p. c #3FBFEC",
"a. c #23ACF4",
"s. c #23B4F2",
"d. c #2CB5F3",
"f. c #23BCF3",
"g. c #28BDF3",
"h. c #23B6FF",
"j. c #22BEFE",
"k. c #2BBEF9",
"l. c #31BCF3",
"z. c #3CBCF2",
"x. c #32B7F8",
"c. c #40BBDD",
"v. c #0BC3FF",
"b. c #14C0F2",
"n. c #19C2F5",
"m. c #15C1FD",
"M. c #1DC3FE",
"N. c #14C8FF",
"B. c #19C9FF",
"V. c #2CC4EF",
"C. c #34C0E5",
"Z. c #3EC0E0",
"A. c #32C3EE",
"S. c #3AC5ED",
"D. c #33C9EC",
"F. c #35D0EF",
"G. c #24C3F4",
"H. c #29C3F3",
"J. c #2CC8F1",
"K. c #24C3FD",
"L. c #2BC3FC",
"P. c #24CAFE",
"I. c #2FCBFC",
"U. c #35C1F4",
"Y. c #3AC4F3",
"T. c #31C8F3",
"R. c #3DCBF4",
"E. c #33C4FA",
"W. c #3DC4FA",
"Q. c #34CBFC",
"!. c #3BCDFA",
"~. c #3BD1F6",
"^. c #3BD4FC",
"/. c #3EDAFF",
"(. c #47C7E4",
"). c #44CDEB",
"_. c #52CEEA",
"`. c #44C6F2",
"'. c #4BC6F4",
"]. c #45CBF3",
"[. c #4AC9F6",
"{. c #49C7FA",
"}. c #45CDFF",
"|. c #4DCBFB",
" X c #43C4FE",
".X c #43D4FE",
"XX c #4AD3FF",
"oX c #45DCFF",
"OX c #4CDAFE",
"+X c #44D0F4",
"@X c #50D2F2",
"#X c #5BD3F5",
"$X c #56DBF5",
"%X c #55D5FD",
"&X c #54DBFD",
"*X c #5ADCFF",
"=X c #46E2FF",
"-X c #4AE2FF",
";X c #54E2FF",
":X c #5CE4FF",
">X c #54ECFF",
",X c #5AEDFF",
"<X c #5CF2FF",
"1X c #5DF9FF",
"2X c #63E2FF",
"3X c #62EDFF",
"4X c #6EECFF",
"5X c #72EEFF",
"6X c #65F3FF",
"7X c #6BF4FF",
"8X c #62FAFF",
"9X c #6CFDFF",
"0X c #75F3FF",
"qX c #75FDFF",
"wX c #7CFDFF",
"eX c #83FFFF",
/* pixels */
"8..X*Xk 5.,.h.-.#.X.T Y Y / j.>.-. ._ ;.} s.XX$XeXeX_.z s F.G.m.",
"r x `.wXu.3.L -.$.O.E n.~ %.>.>._ -.} L L.U q.].[.N r.$X6X^.b./ ",
"Z 7 l.0X%XY.0.( b./ / n.~ ;.-.;.=.g.^ # L.q.H q.j $ w.oX1XQ.e , ",
"L V q.i.XX*XOX0 w.K.=.P.>.K.;.U w.3 V.7.+ <.d.U I &.S V : 2 q q ",
"} } U s.+ 3X0Xb 6.U %.>.%.~ I =.qX9XOXR.eX3XH L _ -.:.M.-.%.W q ",
"} ;.L U O $X7X7XW.s.} >.>.R L.1X^.b i.c 6XS.6.} [ ] +.X.@.[ =.2 ",
"Y *.F V w.e.[.0X Xa.} ' >.Y G.>X8.9 7 3 S.R..X^ %.o.m.@.:.@.:.B ",
"F R R %.j.2.,.4.z.3.s.[ P.R e q W ~ J w.> ,X9XV.( ~ *.P.@.] ] @.",
"Z =.Y *.j...a.1.wXXX~ %.M.' W 2 F -.-.&.=.^ w.-X9.6.w.&.>.:.$.+.",
"*.R *.*.-.h.P 3.z.Y.w.>.:.' Y ~ -.M.@.D ' &.w.U.7X+X7 w.( N.#.v.",
"=.V M.' %.k.E.0 j % W P.F >.>.@.>.] ` :.[ >.f.7 6X&XU.3 G.b.v.#.",
"^ g.;.%.~ @ Q 8.w.9 L./.G.&.'  .:.X.o.P.-.-.I 6.A.XX&X# ) T N.#.",
"6.<.P s.Q 8X9Xq W ~ J w.1X=XF >.[ P.>.%.} &.I E.K E.Q.s.! 2 X.B.",
"4 7.y.k 6XoXq ! *.L.L.K !.V.J ~ ~ =.f.Z ^ oXOX^ U ^ ^ / K.%.E *.",
"5.'.2Xn 7XD.Y O.M.R U H 7 !.-X5 ^ 1 ^ g..X<X>X> Z C O.D K.>.>.B ",
"*XwX0X$X6 > =.o.%.F U k.H .X1X8.^ U 0.E.9X~.e W R o.D O.' h.&.K ",
"l.z.e.> =.%.:.:.%.Z L.J J ^ ~ W k.^..Xl.^ Q W R X.#.v.X.F I <.f ",
"s.&.;.-.:.o.%.*./ L.Q.^ J ~ < %.%.0.k.0.0.J %.T #.v.#.:.I 6.m '.",
"[ { @.@.:.%.=.Q x OX,X3 0.^ ' %.C ( / 1 ^ ~ &.:.%.o.*.1 e.S.#X#X",
"] ] @.[ >.~ ( x b ;X7Xr g.I -.:.E Y : f.V ~ J f.K.U ^ E.7.0X0Xt ",
"{ -.>.-.K.~ e 8.wX&X& % J j.-.:.:.m.M.P.@ ^.OXQ * 6 x m 0X4X|.f ",
"}  .&.} k.Q 8.~.~.8.r G.^ o.[ -.O.T F R ~ W T.,XC.p Z.eX2X{.|.5X",
"S.4.<.j H..XoXI.2 < f.*.>.o.P.:.F =.~ < K.9 8.<X,X).$X*X`.$ x.:X",
"#Xc.t.r.XX9X8XV =.%.%.:.M.O.:.=.g.0.s.G./ g.w.% qX7X).g 7.l.s.P ",
"y 5X0Xt 4 l.d.;.j.K.-.M.%.E Y H.].wX9XK ^ ;.L &.L.w.Q 0 Q Q ( ~ ",
"p N $X7Xi.3 U I | | %.F Y ~ ! 8.z (.:X7Xk.;.} >.B ~ =.f.=./ / / ",
"r 5 A.9Xl.j 3.3.d.s.d.9 9 J./.b p i r.7Xk.k.;.%.' *.>.b.*.E O.*.",
"Z / G.7 3X}.f 7.l.7.K J.o 9X8X. = S.f <.}.Q.^ &.M.*.O.o.O.O.$.@.",
"O.%.~ Q X `.`.&X&XwXqXx A.].XX9.7.K 0.l.e.Y.;X> / / R O.$.$.:.@.",
"A %.J 7 OX:X:Xz b C..XqX;XR.g 0 I =.0.K c *X:Xx Q ! *.:.$.-.-.-.",
"V s.q.U.i.:X;X& w q V.8XoXj + 6.E O.~ 9 + &X2XXXe.w.=.-.%.o.-.>.",
"a.x.W.&X  b & ; - r w.9 > 6.i.Q O.X.*.w.4 m '.eXq.^ &.*.-.=.&.^ "
};
