/* XPM */
static char *a6e269a51d6e4a0fd18b41828e5e8325A8Ury0D18i7IRH20[] = {
/* columns rows colors chars-per-pixel */
"32 32 228 2 ",
"   c #1C0000",
".  c #250402",
"X  c #2D0301",
"o  c #2C0A02",
"O  c #2E0508",
"+  c #2C0A0B",
"@  c #250909",
"#  c #340301",
"$  c #3C0301",
"%  c #340903",
"&  c #3B0B04",
"*  c #340509",
"=  c #3D050B",
"-  c #340D0C",
";  c #3B0B0B",
":  c #2D130A",
">  c #3D1205",
",  c #37160B",
"<  c #3B130A",
"1  c #351408",
"2  c #2D0D11",
"3  c #250F12",
"4  c #3C0413",
"5  c #340D13",
"6  c #3D0C11",
"7  c #320711",
"8  c #2E1212",
"9  c #341313",
"0  c #3B1313",
"q  c #3E151B",
"w  c #3A1A18",
"e  c #430201",
"r  c #4B0101",
"t  c #440A03",
"y  c #4B0903",
"u  c #44040B",
"i  c #4B060B",
"p  c #440B0A",
"a  c #4A0B0D",
"s  c #530202",
"d  c #5B0101",
"f  c #530A04",
"g  c #54040B",
"h  c #5A010C",
"j  c #530B0D",
"k  c #5B0C0C",
"l  c #5B0C06",
"z  c #441106",
"x  c #4A1207",
"c  c #43120C",
"v  c #4B120C",
"b  c #44190A",
"n  c #4E1A0D",
"m  c #53110A",
"M  c #5B130A",
"N  c #5A170B",
"B  c #440E14",
"V  c #4B0D14",
"C  c #490E1C",
"Z  c #460717",
"A  c #550C12",
"S  c #5C0B12",
"D  c #570F1A",
"F  c #431315",
"G  c #4B1C13",
"H  c #4A121B",
"J  c #431A1B",
"K  c #481210",
"L  c #5E1314",
"P  c #5B1A1A",
"I  c #551516",
"U  c #610102",
"Y  c #6B0001",
"T  c #650C06",
"R  c #6C0209",
"E  c #630A0C",
"W  c #6D090D",
"Q  c #660809",
"!  c #700000",
"~  c #770808",
"^  c #6B100D",
"/  c #75140E",
"(  c #630514",
")  c #6A0212",
"_  c #650D12",
"`  c #6C0C10",
"'  c #640D1A",
"]  c #740D12",
"[  c #740A14",
"{  c #641414",
"}  c #6B1314",
"|  c #651319",
" . c #6D1419",
".. c #6C1C1B",
"X. c #641C18",
"o. c #751214",
"O. c #7A1A1C",
"+. c #781618",
"@. c #55221A",
"#. c #68221B",
"$. c #75221D",
"%. c #4C1920",
"&. c #521922",
"*. c #621122",
"=. c #7B1321",
"-. c #761E24",
";. c #422021",
":. c #682826",
">. c #722521",
",. c #7E2323",
"<. c #74242C",
"1. c #7C222C",
"2. c #792B2D",
"3. c #752A26",
"4. c #71322D",
"5. c #7E2430",
"6. c #683136",
"7. c #783738",
"8. c #891A1C",
"9. c #84161A",
"0. c #9F1D1D",
"q. c #820A16",
"w. c #80231E",
"e. c #891928",
"r. c #931D23",
"t. c #941721",
"y. c #822326",
"u. c #8B2525",
"i. c #83242C",
"p. c #8B222C",
"a. c #852B2C",
"s. c #8C2B2B",
"d. c #8F2927",
"f. c #94232A",
"g. c #9B2728",
"h. c #8B302F",
"j. c #9F3A2E",
"k. c #8C2C33",
"l. c #882936",
"z. c #962832",
"x. c #823233",
"c. c #8C3234",
"v. c #843639",
"b. c #893A38",
"n. c #933536",
"m. c #93363B",
"M. c #933F3E",
"N. c #993839",
"B. c #A02E2D",
"V. c #A22B36",
"C. c #A02D3C",
"Z. c #A1343B",
"A. c #AC343B",
"S. c #A33C3C",
"D. c #AE3C3C",
"F. c #A53636",
"G. c #B6373A",
"H. c #9D443E",
"J. c #8E3B44",
"K. c #983946",
"L. c #A53343",
"P. c #AD3D43",
"I. c #AB3D4B",
"U. c #A23F42",
"Y. c #B43D44",
"T. c #BD3D4B",
"R. c #B43441",
"E. c #BC3D50",
"W. c #C43747",
"Q. c #894746",
"!. c #9B4343",
"~. c #9A4949",
"^. c #934147",
"/. c #8F504B",
"(. c #894E50",
"). c #9C5553",
"_. c #915151",
"`. c #A14145",
"'. c #AA4444",
"]. c #A3454C",
"[. c #AA4449",
"{. c #A14B4A",
"}. c #AD4A4B",
"|. c #AC4A47",
" X c #B3444A",
".X c #B9434C",
"XX c #B64946",
"oX c #BD5146",
"OX c #AE4453",
"+X c #AC4C54",
"@X c #BC4C54",
"#X c #BA4A57",
"$X c #AD5452",
"%X c #A75A5A",
"&X c #BA5C5C",
"*X c #B55657",
"=X c #BF4F65",
"-X c #A45B60",
";X c #BD5E62",
":X c #A46463",
">X c #BA6565",
",X c #BE6F74",
"<X c #B77171",
"1X c #C05448",
"2X c #C94955",
"3X c #D84D5B",
"4X c #C2535B",
"5X c #CD585C",
"6X c #D4595E",
"7X c #C7494C",
"8X c #C05C64",
"9X c #CB5E69",
"0X c #DD5F63",
"qX c #C46365",
"wX c #CC656D",
"eX c #CB6768",
"rX c #D26566",
"tX c #D3646C",
"yX c #D8656A",
"uX c #C56C70",
"iX c #C96972",
"pX c #DD6B75",
"aX c #D6787A",
"sX c #E77678",
"dX c #E36678",
"fX c #EC7B81",
"gX c #DA8988",
"hX c #EB8386",
/* pixels */
"u u 6.(.,X,.U U Y Y Y d P./ f T T U +.eXfX&XN.Y.tXp.g y $ # u t ",
"D u a A { i.}.2Xd.d.'.rXF.9.d d u.|.`.T n.W W O.[ m.%X<X_.:.$ r ",
"' S i j O.wXtXz.s.s.|.rXXX0.8.A.[.}.c.r r e s r r v.).).2.2.i.i.",
"].` d E >XaX$XT f r E s.yX3X5XyXN._ r P # t e $ P # $ I e ~.iXk.",
"U qXaX>Xs } s y e e r E d e.A. XS u % ; , % % # # & % % & $ e L ",
"j.w.3.$.y e m a $ e e E d D.D.W e F 0 o w + % % & & # # z t r f ",
"b.N $ X o > F # i y Q ] f.G.B.Y r = X 0 o , % % # v z # $ $.y./ ",
"y N t o o o . $ e s e.@X6X7XB.Y r u # ; . & & v y v l M s |.5XG.",
"r e t v * & # u e I.9XY.G.G.0.Y r $ # > & v y f r $XgX$XS.rXsX6X",
"x.| r e e e V P %XJ.,.` ~ D.G.~ s r u $ $ X.^.].}.$XH.$.^ +.8.8.",
"J.i.=.) ) *.<.6.:XP $ e f c.XX8.d r s k >.M.+X'.[.c...r e z f m ",
"r 5.I.4Xh K.;X-X# & , b n >.}.pXq.] R d H.4X'.d r s r $ & G @.@.",
"; $ 1.I.pX=.s A p &     ; m [ V.3XW.G.T.hX8Xy.d y e % 9 0 > ; = ",
", # g p.I.L.=.h A $ X X X $ ( e.W.3XT.~ O...k e u = - w J w B H ",
", $ r R 2XE.f.[ k.( u 6 5 # u ( N.D.k.s y $ e = & J %.w 2 7 4 4 ",
"& v } R dXE.L.L.8Xl.g u H 4 Z *.K.{ e $ > & & . ; 5 9 2 2 5 C C ",
"X.e -.iX=Xe.h ' A 2.%XgXV u &.J.D u = 9 . + %.9 0 q 9 : @ - = C ",
",.!.J.1.' g u t p m $.b.%X-.*.J.i C O 2 9 9 * %.F * 9 9 o ; p r ",
"k.].v.g = = * t & $ e r ~.m.z.i.D p O - + 6 ; a u B = ; v a S 1.",
"d r e $ % o % X $ t t e d OX#XR j $ p # X t P a r A r j y j | m.",
"r $ e > o : > e e e $ r s +X+Xr e t e r r r $ e e r ` ].K.8X{.d ",
"$ x & % . o % e s r r r c.1.*.g e e d N.K.&X)./.4.%XqX8X~ +...e ",
"& z y #.t t e d +.u.d.o.m.k $ a M } g..X4X&X%XQ.4.:X&X@Xf.U r f ",
"r r #.!.f l T T S.5X4XZ.[ } m i s '.yXf.Z.U t z # $ k !.8X-.l e ",
"U y.*XaX&XqX>X&XhX@XA.G.E.N.O.d  XfX*Xd d y $ $ # c $ e { !.c.d ",
"f.wXqXa.s.,.$.h.n.] q.t.e.V.7XY.4Xz.o.s e $ * % # . < p $ %XiX[ ",
"k.;XJ.$ r e % e y i U U U e.W.7X XQ e $ # . , - - . * & $ v.8X[.",
"_ s e z t v n b $ I r r Q d ~ 2X[.2.I p - + + @ o 5 * $ i r ` I.",
"X.e & p # # % X J 6 * $ r &XsXg._ e . # 6 - @ 9 8 5 # # e i i.uX",
"7.Q.4.# v ; ; J w 9 9 ; $ H.oX~ l = p F - O + 5 + O - p a e y #.",
"v.%X]. .k i = 5 + @ 8 c e '.1X~ r $ p F . * 6 6 6 * % % G & $ x ",
"j 1.=X9X( V &.q 3 3 8 F s S.1Xj.{ y X ; ; B = 4 u # < o 1 > b & "
};
