/* XPM */
static char *_1612_b37d850a1560a261eeeac2cca49da56671215a04afe2f061b6ceebfeea73ac17[] = {
/* columns rows colors chars-per-pixel */
"32 32 90 1 ",
"  c #3E343D",
". c #3B3542",
"X c #3E3944",
"o c #3F3D48",
"O c #423B46",
"+ c #433D4B",
"@ c #493E4C",
"# c #483F50",
"$ c #414046",
"% c #45424B",
"& c #4A414C",
"* c #4E4849",
"= c #50444E",
"- c #524B4E",
"; c #464251",
": c #4B4452",
"> c #4E4B54",
", c #4F4B59",
"< c #524652",
"1 c #524C55",
"2 c #584F54",
"3 c #544E5A",
"4 c #4F5352",
"5 c #535355",
"6 c #5A5156",
"7 c #555857",
"8 c #55525B",
"9 c #5A535C",
"0 c #565A5A",
"q c #5C5B5C",
"w c #625C5D",
"e c #66625F",
"r c #524D63",
"t c #565462",
"y c #5B5562",
"u c #575F61",
"i c #5D5B63",
"p c #5D546B",
"a c #5E5A6C",
"s c #625663",
"d c #625D63",
"f c #685E66",
"g c #645D6A",
"h c #645D73",
"j c #5E6064",
"k c #656264",
"l c #6A6466",
"z c #6A6A67",
"x c #65626B",
"c c #6A656C",
"v c #6D6A6C",
"b c #72646C",
"n c #716C6D",
"m c #6F706C",
"M c #73736E",
"N c #7B756E",
"B c #666372",
"V c #6B6573",
"C c #6D6A73",
"Z c #6B6778",
"A c #6E6B79",
"S c #726C73",
"D c #726D7A",
"F c #747472",
"G c #797574",
"H c #767974",
"J c #7B7A75",
"K c #75737B",
"L c #7A757C",
"P c #7C7B7B",
"I c #817976",
"U c #817D7C",
"Y c #83817E",
"T c #777580",
"R c #7B7682",
"E c #7D7B82",
"W c #7E7E8B",
"Q c #817D83",
"! c #817D8B",
"~ c #867D90",
"^ c #7F8082",
"/ c #838183",
"( c #898483",
") c #84828B",
"_ c #8A858E",
"` c #8A898F",
"' c #848391",
"] c #898692",
"[ c #8C8A94",
"{ c #8F8D98",
/* pixels */
"!s))E)DZ[^E`DV[E)gQ)EWTh]/U/RB{E",
"PqUzJPfnPnHGkCQmPqPvLJlc^mNFvx^m",
"b-YFUv>vPFJGqcPJn*YJPG<fUFJFqkPP",
"*Xx>o9++x2@3%%i,2.g5 g+@x9%9%:i:",
"!L!Vx]QDDfg_!KA3_K^Ai[EKKVg]!RS:",
"GFGdFKFGIfSPMPvkPmGzvLvGUlkQvPvf",
"JPUqv(GKGwcEHPi8PPJivQLJIwi/FPk1",
"d&:X+Z>$6@+x>O+;v%;+%B3+6@;x:o%+",
"/xh~L/xhWQLEZa]KLZh'RLch'EJWAt]T",
"JwCQNJzCEmMJvcPFIkkPJHvcPMMHCxEM",
"IwFQMIeVYJJJknUNIevUHUlkYJJPkcUN",
"b&3AjxOyCCix:3Sdb&1Lsx%8SC9v>:Sl",
"w6g,;KytC9;ZiyVss9st+Tt8Ci;VtyZs",
"UbQvS!P/(lv[EUPE(FPSS)R/(vx`JUUU",
"JMUsCEPMGdS^mHHFJMGwcWJMJdx)MHFG",
"i05.:gx46O+Vj405u05X%Bi5q@XZu7q,",
"TuLEKDDg)KFUBa_KTtKEKKAgWLFLAy]K",
"Le^vPPcbPmHIcmPzUwUnPUcc^MFJSx^M",
"n*QGUF<c/HYGqc/PS*UPUG1x^GHPwgQY",
"1.x>os@+c3+1+%i,8.s6XgO+xi+9+%g>",
"!A)xi'RADfg]ERC1)FECy]TDSci]RKS#",
"GFPkFLFLIlbQmPvgPFLvvPmJQck(MUFs",
"FPPqcQLGIdcEFPk9JPPqxULHIwiPMPk1",
"c>:o+V6@2++g8$o;c1:++V9%2@+B5%;.",
"RBgWRQgp^EKEZt'KPZa!DQVp!LLRAr[K",
"JzCPGLncPMHJvZPMPlxQGJccPFMUvv^m",
"Jwn/HHdbYJJJdvUNJev(MUlkYHIPklYM",
"b=6KiC&tKSdV13ScS&<RiC;tKCjv31Sl",
"s<8t&A,8ct;x88cyw2r9XDt5xi+C3tgy",
"QF(vC]PY(cC`P(QEQNULC_P^(Sx[P(UQ",
"JMHdC^FHJqx/GGMHGFIfxEHMJdx^JMFG",
"iq6 %Zj06+%Bj0q>iw-OoZk02&XZi003"
};
