/* XPM */
static char *_53583d7fe6d47718d472340f094361dug5tLkzXefpsz51C[] = {
/* columns rows colors chars-per-pixel */
"32 32 170 2 ",
"   c #5F2300",
".  c #622500",
"X  c #6B2D01",
"o  c #722D00",
"O  c #6B3100",
"+  c #753301",
"@  c #7A3500",
"#  c #763900",
"$  c #7B3A00",
"%  c #72370D",
"&  c #793609",
"*  c #7A3B0D",
"=  c #7E3D15",
"-  c #7F4300",
";  c #7F4108",
":  c #813D01",
">  c #803F09",
",  c #834303",
"<  c #854B03",
"1  c #8C4D04",
"2  c #84440B",
"3  c #854A0A",
"4  c #8B4D0A",
"5  c #905505",
"6  c #824214",
"7  c #894111",
"8  c #8B4B11",
"9  c #84461D",
"0  c #884518",
"q  c #8F5213",
"w  c #925711",
"e  c #955A14",
"r  c #9B5F17",
"t  c #96551D",
"y  c #945B18",
"u  c #9C5E1F",
"i  c #9D611B",
"p  c #AF6D1D",
"a  c #B4741B",
"s  c #BB7C1E",
"d  c #935526",
"f  c #9A5A24",
"g  c #9A5931",
"h  c #9E6122",
"j  c #A36425",
"k  c #A86227",
"l  c #A56A23",
"z  c #AD6B25",
"x  c #A46328",
"c  c #A76A29",
"v  c #AC6C2C",
"b  c #B06D27",
"n  c #B26D2D",
"m  c #AE722C",
"M  c #B47425",
"N  c #B67D26",
"B  c #BC7C25",
"V  c #B4732C",
"C  c #B8752E",
"Z  c #B6792C",
"A  c #BD7C2C",
"S  c #A46532",
"D  c #AD6D33",
"F  c #A76A3B",
"G  c #AE6B39",
"H  c #B26E32",
"J  c #AF7333",
"K  c #AE713A",
"L  c #B47334",
"P  c #B97533",
"I  c #B57932",
"U  c #BC7B33",
"Y  c #B5763A",
"T  c #BA753B",
"R  c #B57A3E",
"E  c #BC7C3C",
"W  c #C17F2B",
"Q  c #C07E33",
"!  c #C07E3A",
"~  c #B47444",
"^  c #BF7D43",
"/  c #B57248",
"(  c #B37949",
")  c #BB7E4E",
"_  c #C47D45",
"`  c #BF812D",
"'  c #BF8030",
"]  c #BD823A",
"[  c #C28226",
"{  c #C3842C",
"}  c #C8892E",
"|  c #C58433",
" . c #C88734",
".. c #C68934",
"X. c #CB8B34",
"o. c #C4843A",
"O. c #C9873A",
"+. c #C48939",
"@. c #CC8C3B",
"#. c #D08E3B",
"$. c #CF9033",
"%. c #CF913E",
"&. c #D29236",
"*. c #D3933B",
"=. c #DA9B3C",
"-. c #BD8243",
";. c #BF844A",
":. c #C38444",
">. c #C88745",
",. c #C68A43",
"<. c #CC8C43",
"1. c #C5854B",
"2. c #CB844E",
"3. c #C6894A",
"4. c #CB8B4C",
"5. c #D08E41",
"6. c #D48F4A",
"7. c #CF9243",
"8. c #CF904D",
"9. c #CC914B",
"0. c #D19040",
"q. c #D29141",
"w. c #D49140",
"e. c #D59442",
"r. c #D59244",
"t. c #D69247",
"y. c #D49344",
"u. c #DA9746",
"i. c #D89547",
"p. c #D89747",
"a. c #D99942",
"s. c #DB9B43",
"d. c #DB9A46",
"f. c #D7954B",
"g. c #D1904C",
"h. c #D3934C",
"j. c #D2964D",
"k. c #D4954A",
"l. c #D9974B",
"z. c #DB974C",
"x. c #D8964A",
"c. c #D49A4C",
"v. c #D99848",
"b. c #DA984A",
"n. c #DA984C",
"m. c #DC984D",
"M. c #DC9B4B",
"N. c #C98D51",
"B. c #CF9351",
"V. c #D39552",
"C. c #DA9750",
"Z. c #D59953",
"A. c #DB9851",
"S. c #DF9A55",
"D. c #DD9D51",
"F. c #D39558",
"G. c #D4945C",
"H. c #D4995F",
"J. c #D99F58",
"K. c #E19C57",
"L. c #E19F53",
"P. c #DCA257",
"I. c #DAA15E",
"U. c #DDA05F",
"Y. c #E1A14A",
"T. c #E6A551",
"R. c #EAA955",
"E. c #E5A05B",
"W. c #E1A25F",
"Q. c #DFA663",
/* pixels */
"% X = % ; X % = & # @ @ + + + @ o o @ @ @ @ : : : o o > > : : : ",
"( ) ;.F = d ) F G G H L H P P P ! T T H n n n n k _ _ ! G k G k ",
";.;.R H.3 c G.f 4.h.6.h.z.z.z.z.L.m.C.z.z.i.i.z.C.K.E.S.m._ _ t.",
"Q.3   Q., y i . :.,.,.@.<.#.w.w.W Q | Q } } X.X.6.Q Q #.w.Q W Q ",
"h ,.J.] i i c.,.o.o. .X.X.X.#.#.#.#.X.X.} $.*.s.Y.u.Q Q W W =.=.",
"P.e < ] # m Z # <.<.<.@.#.@.X.X.X.@.#.#.&.X.*.*.*.r.#.W W $.=.=.",
";.3 3 E $ c L # >.>.>.O.! Q Q Q Q Q O.5.#.#.@. .! ! ! ! ! Q W W ",
"J J -.R 2 8 >.R L L P P ! Q Q Q ! P n V P Q P P P Q Q Q Q b W W ",
"- # - # # # # # $ # $ $ : $ : : $ @ @ : $ @ # 2 o : + 2 $ - , # ",
"J J J J L L L L V V V V V V V C P P P L V z n L _ T t @ x P V I ",
"k.c.c.y.k.7.7.9.t.f.x.x.u.u.u.u.t.h.A.n.<.7.V.h.H 1.2.X :.m ] Z.",
"X.$.%.+.....+.X.| |  . . . . .X.@.O.q.@.| <.k.,.X 8 3.# V.4 O c.",
"` { } ` } ` ....X.%.&.@.@.} X.$.X.} .. .` @.7.U ] Z.h 3 ,.,.P.] ",
"X.$.+.$...$.+.X.....@.X.$.} } X.@.} X.....q.k.,.3 l ;.O B.l - P.",
"..` ` ` ` ` ' ' ..O.X.X.X.| | | { { { { | ..,.,.- h N.O -.y - 9.",
"M M ` J ' J I ] I Z U A W A A U Z U A Z Z V V I R ^ h ; S ] ] c ",
"# - 8 . * 0 o @ o + : : + + : : : $ $ + 1 : : @ : > @ o + + + + ",
"] J K ~ = g / / E z b W Q U C n n P P z V b V ! n T T H L T P P ",
"c.,.J G.@ S G.D 6.<.#.Y.R.M.i.m.#.u.u.*.*.X.&.d.w.Y.L.u.m.m.u.M.",
"%.<   I.@ K H . L *.=.X.$.*.w.M. .{ { { } [ { { W {  .|  .X.} } ",
"` 7.c.] 3 u V.o.` e.*.` { &.X. .*.@.| X.} X.&.*.{ |  .O.X.#.#.&.",
"c.5 - Z.2 L L : @.q.*.} X.#.@. .@.@.X.X.W { ..O.@.O.@.@.@.X.#.X.",
"@.e - 3.# D H @ o.| ..O.| Q o.O.Q | @.#.W W W { q.@.<.@. .|  .[ ",
"v E R -.8 f 1.H E L U U C P ! V C M b W p B A | V v I U V M Z M ",
", X $ 8 o @ : @ : @ # : : $ $ @ o @ $ : : $ # $ o & + > + @ # # ",
"n o.E E n L v v P z b V n C C P ! T P H H H H H 1.G f 2 G Y L _ ",
"r.L.L.S.u.b.t.<.u.i.x.u.u.u.b.u.m.i.#.#.5.x.k.k.z :.>.X 9.Z Z Z.",
"X.Z { X.A @.Y.R.#.X.@.&.} { { W { W W { &.#.@.<.X 1 >.# ] < # +.",
"{ A *.d.{ s [ B } } X.#.X.} } { W W [ { .. . .| P Q.c # ,.4.c.] ",
"X.&.} s &.&.&.&.W { X.X.} } } { } X.X.....X.O.,.4 j ] # B.l - P.",
"O.@.[ M *.&.} } { } @.@.{ { { { } { { [ { {  .@.$ l -.O 3.w < c.",
"b p W B B a [ { M C W A M B W [ s s s s B ` U U E 3.h - m I ,.m "
};
