/* XPM */
static char *b1218d837e64447accc942dc1d8e4879uBzC5t86ib2aozGZ[] = {
/* columns rows colors chars-per-pixel */
"32 32 51 1 ",
"  c #2F2F25",
". c #343126",
"X c #383427",
"o c #35352A",
"O c #38362A",
"+ c #3D3B2D",
"@ c #3E3E30",
"# c #423D2E",
"$ c #483F2E",
"% c #423F30",
"& c #3F4033",
"* c #47402F",
"= c #48412F",
"- c #444233",
"; c #404234",
": c #434334",
"> c #424436",
", c #424437",
"< c #464534",
"1 c #454436",
"2 c #464436",
"3 c #4B4331",
"4 c #484232",
"5 c #494333",
"6 c #4A4534",
"7 c #4E4634",
"8 c #4E4734",
"9 c #4D4736",
"0 c #4E4836",
"q c #4F4837",
"w c #444638",
"e c #454738",
"r c #45473A",
"t c #484738",
"y c #454839",
"u c #474838",
"i c #464839",
"p c #46483A",
"a c #46493B",
"s c #474A3C",
"d c #494838",
"f c #4B493A",
"g c #4A4A3B",
"h c #4D4A3A",
"j c #4B4C3D",
"k c #504734",
"l c #504836",
"z c #504B3A",
"x c #514C3A",
"c c #544C39",
"v c #534E3C",
/* pixels */
"o1;++*--66k%%6t:%%$+#36kqz2#%2w,",
"o++@-#*-66$:w:::q2+#2366k:%%::%;",
".@;>1#++$66:t%%@#::222@@%::rr,@o",
" %;#+;;--z6$+2:%%%2%+:::;2t:%wr%",
"o+++&--6qq##:,222;+%@;:tw,@%ww1;",
"o:&1;+++:t2::;++%2:2w%+%:gwss;++",
"o1d1+##=%hf:%;w:%t66%2wtttht%@&@",
"Oy@#%;:-62%%:w:ww6%$:twtht%@:wrw",
"Oyw>:%++%%tf6-#%;1dlh1#;:w6t6%%:",
"oydw%:%+@wjf6::#+;d6:1>&%whq3t3-",
"+d%+%;2:6w,%2zh6-;++;wdyww%%%::t",
"+;@ww:%w2wwtz6:16#-1k1+;t%%,:%+;",
".1rswt6%%qzfzzq$#-lx61:++wdw2;@+",
"Ol3%%hck6f6+:fvzl63$$6ddgd;%+%@@",
"+63th6kkt:#%wtq6l-#1k2#3t:+::$@,",
"O6hgdq3$$t:qfw:##--0t6#%$6262;##",
"+66;*lhh0d06;hy>;-6$$6667663#262",
"@*#;601dh1;1:1<11;#$776zk6#$3622",
"+:1103++1yydy1+++--36:#$$23qk$++",
"o111=;11&yy1;1;;+-3=#61;#363=-;+",
"@%@@;--:1&@@;111;%++%6733=+#-3:-",
"+@:w6=+#&&&>6;++&1&;;#O##-%:;#++",
"o@61;;<#+<yd;w:;+yy%%&@#+:%:#%#+",
"+#+O;><;<1#*:dhth1++@&;%:;#O+#;#",
"++%;y@@+##6zh6:6-;$;>&++%##;2$##",
"+;tw::@++#660l6#+%##;>w@+%%##-3#",
"%t%%%w1%+%##*dd:-#+X+yd>:%+O+;27",
"%1136##+++##d3-$;@+;61;1:@@@;%;:",
"#6tt:2#X+@;-66##++;6t:2%%wwh6::#",
"3z2##:2%@:2#=6--*;###-khhht;;tdt",
"%2::--:;:;#;h7$--#+%;-66z6t2f66t",
"@tq66$#++::6h6#O+-1:::##:lzfzt:+"
};
