/* XPM */
static char *b72bca4147ac40d8a3c4f7fdcb7257beo7INBMMb9WbA3NpV[] = {
/* columns rows colors chars-per-pixel */
"32 32 126 2 ",
"   c #692B00",
".  c #6E3200",
"X  c #743606",
"o  c #7C3904",
"O  c #76350F",
"+  c #7C3B0B",
"@  c #7D3D12",
"#  c #7E400F",
"$  c #7E4112",
"%  c #823E12",
"&  c #85420D",
"*  c #824314",
"=  c #894614",
"-  c #864816",
";  c #894A17",
":  c #86461B",
">  c #8A461D",
",  c #854A19",
"<  c #8B4C1C",
"1  c #914D1C",
"2  c #8E511C",
"3  c #92521E",
"4  c #9E5E1E",
"5  c #864422",
"6  c #8A4722",
"7  c #8C4A22",
"8  c #924E26",
"9  c #934F28",
"0  c #8E5121",
"q  c #945424",
"w  c #995526",
"e  c #955925",
"r  c #9A5A26",
"t  c #95542A",
"y  c #9A572C",
"u  c #965A2D",
"i  c #9C5D2C",
"p  c #9D5D31",
"a  c #9F5D3A",
"s  c #A15D26",
"d  c #A35F2D",
"f  c #A15E33",
"g  c #9E6234",
"h  c #A36222",
"j  c #A86725",
"k  c #A4632C",
"l  c #A9652C",
"z  c #AB6B2D",
"x  c #A36434",
"c  c #A96633",
"v  c #A76836",
"b  c #AB6A35",
"n  c #A6643A",
"m  c #A9663C",
"M  c #A66939",
"N  c #AC6C3B",
"B  c #B16D36",
"V  c #B16E3B",
"C  c #AE7037",
"Z  c #AF703E",
"A  c #B27234",
"S  c #B3723C",
"D  c #B9753E",
"F  c #B7793D",
"G  c #B87A3D",
"H  c #A56740",
"J  c #A86644",
"K  c #A46941",
"L  c #AC6C43",
"P  c #AD6D49",
"I  c #B16E43",
"U  c #AE7244",
"Y  c #AD724A",
"T  c #B37443",
"R  c #B97642",
"E  c #B67846",
"W  c #BC7B44",
"Q  c #B4754C",
"!  c #BA764B",
"~  c #B7794B",
"^  c #BC7C4B",
"/  c #BA7651",
"(  c #BD7B53",
")  c #BE7F59",
"_  c #C17D45",
"`  c #C17E4B",
"'  c #C17E54",
"]  c #C17E5A",
"[  c #BE8045",
"{  c #BE804F",
"}  c #BF8252",
"|  c #C28445",
" . c #C3824C",
".. c #C9864D",
"X. c #CA8A4C",
"o. c #C38353",
"O. c #C98652",
"+. c #C68857",
"@. c #CB8A55",
"#. c #C4825B",
"$. c #CA875B",
"%. c #CB8C5B",
"&. c #D08F57",
"*. c #D28E5A",
"=. c #CF9156",
"-. c #CF905C",
";. c #D3925C",
":. c #D8975F",
">. c #D6985F",
",. c #DB9A5E",
"<. c #CB8762",
"1. c #CB8B61",
"2. c #D29362",
"3. c #D99763",
"4. c #D69867",
"5. c #DC9B64",
"6. c #D7966C",
"7. c #D79968",
"8. c #DA9B6A",
"9. c #E09E6A",
"0. c #DEA06F",
"q. c #DFA170",
"w. c #E4A66C",
"e. c #E2A473",
"r. c #ECA770",
"t. c #EBAA74",
/* pixels */
"b @.r.` r.W N c u q , . e , $ , $ 0 $ X E g g N -.2.4.7.q.} Z M ",
"D ..2.` @.! }  .~ ~ U g g u g g g M M g U ~ ~ U +.%.} { { E N g ",
"f f I I n T ^ P ( Q Y Q K K Y Y ~ U Y } E ~ ~ { } E g Z e x g x ",
"y 6 7 9 : 9 7 O P J P Y Y Y P K g M M g E T T E E E } q.  ; , $ ",
"m m n m Q ] #.' ~ } #.) } Y Q ~ 2.q.0.%.4.7.%.U Z ~ M , Z M M x ",
"Q ! / I ! I ! / u i t 7 u t t u g q x { { } { M M M E -.+.+.{ +.",
"` ..*.@.@...@.+.4 e 3 e 0 e 2 2 e * e Z Z k v C Z v Z 2.2.2.2.0.",
"3.*.=.>.;.,.0.;.>.>.0.q.C Z A C M E  .k { k N U M  .=.} E { { Z ",
"N b b l ..|  ._ G | [ G G W [ | O.R R _ b ! _ V C +.%.v 5. .^ ^ ",
"b b S c D N S S 2...=.>.=.&.>.@...O.B b B R c B ^ k 2 2 < q i i ",
"f f n f y y p d 7.;.;.-.O.$.&.` O.D B ` R D V R o.k 3 i + , 0 r ",
"9 6 8 9 7 8 q 7 I ' E N _ I b ` d s ` r.5.3.9.3.3.3.-.^ W C v x ",
"' / / ' ! ' ' ^ ! ` D Z W x 3 B D _ B B B _ D ` D ` ^ B -.=.{ Z ",
"T I ! T V m V B V N B N S ..,.X...B d D _ R B R 2.;.;.;.%.o.T x ",
"T I W S _ R W W S A A l h | ,.X.,.B l _ V B D V ;.@.;.8.T T C v ",
"` _ ` W 5.3.5.,.A j z A z 4 j | _ O._ _ _ O.` _ W _ W W v Z N C ",
"@.R _ W  ._ W l A C z v C A B N D I _ ] ` @.$.` _ ' R B B b c V ",
"B *.3.O.&.&. .S c v b Z 3 ; 2 q y 8 8 f I I B B B &.;.$.$.*.' V ",
"s D .._ D @.@.N W S T W ; 3 q 3 y y 8 % B b b V s _ $._ ' O.! f ",
"1 % % = o b $...` ` { +.^ ;.1.` _ ` _ B V B z c D B r = % % > > ",
"z D b V B V x N N V N n Q M n x B l l B z B A z d d f V V m f J ",
"D R R ..@.%._ ! N N U n } n E 0.:._ ` ,.X.X.W F _ _ ` ` I ! / ' ",
" ._ %.3.4.@.T r x g p y g q n o._ ` *.:.;.&.&...` ` ' ' ' ] ] ] ",
"W O.` V ` q + ; % * : : 7 7 : @ % V ' D D _ _ R ` W ` ' ! ' ] ] ",
"N S v e Z v x v n g n N g a n n n P L I m N w * < > : 8 > 8 > > ",
"Z i E 2.o...%.o.2.$.o./ T ^ ' ! ] ] / ( <.2.$.Q ! c q q y y p f ",
"N g v %.{ } } ' 8.%.+.} / #.+.o.P J P L ' #.%.o.*.( T L ! T P Q ",
"2 0 - - # * & * ^ T E { } ^ ! ( 7 6 7 : : @ * * n N N n L L m m ",
"E E } E v x Z M v v v v M b c M m n p N N U Z Z Z ! } ^ ^ #.( / ",
"Y E Y Y %.+.%.%.o.2.@.S T ^ ` R ` ' E W v C k b O.-.2.6.<.6.<.Q ",
"i g q e E %.%.-.+.;.+.S D W W F [ X. .[ F C F [ -.@.#.6./ } P a ",
"$ $ 0 < X g } U T S N N R D z C [ G | G | | [ G [ Z x Y @ 7 5 5 "
};
